<?xml version="1.0" standalone="no"?>
<!DOCTYPE svg PUBLIC "-//W3C//DTD SVG 1.1//EN" "http://www.w3.org/Graphics/SVG/1.1/DTD/svg11.dtd" >
<svg xmlns="http://www.w3.org/2000/svg" xmlns:xlink="http://www.w3.org/1999/xlink" version="1.1">
<metadata>
Created by FontForge 20230101 at Sat Aug 21 19:04:33 1999
 By Glenn Lewis
http://fonts.tom7.com/ - Non-Blocking Socket Copyright (c) 1999 Tom 7 - Use and distribute freely, but never sell (on CD, for instance!) - ImightbeTM@aol.com - 339 Still Hill Rd - Hamden CT 06518 - USA - I want specifics on the general idea...
</metadata>
<defs>
<font id="NonBlockingSocket" horiz-adv-x="403" >
  <font-face 
    font-family="Non Blocking Socket"
    font-weight="400"
    font-stretch="normal"
    units-per-em="1000"
    panose-1="0 0 4 0 0 0 0 0 0 0"
    ascent="800"
    descent="-200"
    x-height="540"
    cap-height="745"
    bbox="-2 -228 1828 845.273"
    underline-thickness="20"
    underline-position="-143"
    unicode-range="U+0020-2026"
  />
<missing-glyph horiz-adv-x="500" 
d="M63 0v800h375v-800h-375zM125 63h250v675h-250v-675z" />
    <glyph glyph-name=".notdef" horiz-adv-x="500" 
d="M63 0v800h375v-800h-375zM125 63h250v675h-250v-675z" />
    <glyph glyph-name=".null" horiz-adv-x="0" 
 />
    <glyph glyph-name="nonmarkingreturn" horiz-adv-x="500" 
 />
    <glyph glyph-name="space" unicode=" " horiz-adv-x="500" 
 />
    <glyph glyph-name="exclam" unicode="!" horiz-adv-x="247" 
d="M229 591q0 -4 -7.5 -15.5t-10.5 -12.5q-16 -4 -46 -19q-15 -12 -21 -43q-5 -25 -2 -45q15 0 38 -11q7 -10 0 -26q-10 -6 -45 -6q0 -3 -1.5 -15.5t-1.5 -15.5q4 -2 22 0q16 1 18 -3.5t2 -14.5q-1 -11 -5.5 -13.5t-19 -1.5t-16.5 -1q3 -24 7.5 -32t4.5 -14q0 -27 -24 -27
q-26 0 -61 18q-41 20 -41 45q0 2 5.5 16.5t5.5 26.5q1 35 -3.5 107.5t-4.5 66.5q0 12 4 51t4 61q0 21 -3 38q9 28 27 28q3 0 10 -3t11 -3q3 0 10.5 4.5t9.5 4.5q3 0 29.5 -7.5t30.5 -7.5t6.5 1.5t5.5 1.5q20 0 34 -13q16 -16 18 -49q1 -25 1 -50q1 -2 5 -9.5t4 -11.5z
M127 46q0 -11 -31 -22q-25 -9 -32 -9q-8 0 -45 21q0 5 5 17t6 17q2 10 2 21q0 14 -3.5 35t-3.5 28q0 34 75 34q7 0 27 -13v-129z" />
    <glyph glyph-name="quotedbl" unicode="&#x22;" horiz-adv-x="311" 
d="M142 718q0 -1 -4 -10.5t-4 -15.5q1 -7 3.5 -18t2.5 -17q0 -10 -6 -20q-2 -4 -17 -9l-16 -66q-17 -57 -27 -57q-2 0 -8 -2t-9 -2q-7 0 -9 10q-4 25 12 73q9 24 18 49q-6 4 -22.5 6.5t-24.5 11.5q0 2 -1.5 30.5t-1.5 32.5q0 3 2 6t2 4q-6 10 -3 21q1 6 9 11q5 3 12 3
q2 0 9.5 -3.5t11.5 -4.5q12 -3 38 -3q3 0 7.5 2.5t7.5 2.5q18 0 18 -35zM91 701q-6 24 -17 24q-2 0 -4 -2t-3 -16t-2 -26q-1 -13 9 -14t15 10.5t2 23.5zM289 720q0 -1 -4 -10.5t-4 -15.5q1 -7 3.5 -18t2.5 -17q0 -10 -6 -20q-2 -4 -17 -9l-16 -66q-17 -57 -27 -57
q-2 0 -8 -2t-9 -2q-7 0 -9 10q-4 25 12 73q9 24 18 49q-6 4 -22.5 6.5t-24.5 11.5q0 2 -1.5 30.5t-1.5 32.5q0 3 2 6t2 4q-6 10 -3 21q1 6 9 11q5 3 12 3q2 0 9.5 -3.5t11.5 -4.5q12 -3 38 -3q3 0 7.5 2.5t7.5 2.5q18 0 18 -35zM238 703q-6 24 -17 24q-2 0 -4 -2t-3 -16
t-2 -26q-1 -13 9 -14t15 10.5t2 23.5z" />
    <glyph glyph-name="numbersign" unicode="#" horiz-adv-x="726" 
d="M709 460q0 -8 -7 -17t-15 -9q-6 0 -18.5 4.5t-18.5 4.5l-20 -4q-10 -15 -19 -30q-4 -5 -35 -18q-1 -12 -8 -92q-5 -57 -5 -93q0 -6 3 -11q9 0 26.5 3t26.5 3t29 -15q-7 -38 -35 -38q-7 0 -20.5 3t-20.5 3q-14 0 -14 -35q0 -8 3.5 -24t3.5 -23q12 -6 33 -20l1 -4
q0 -13 -16 -18.5t-19 -11.5q-3 -14 -6.5 -29t-21.5 -15q-16 0 -19 17q-1 4 -1 30q-6 6 -22 6q-10 0 -21 11q1 -7 4 27q6 4 32 5q11 27 11 45q0 7 -1.5 20t-1.5 20h-27q-5 -3 -10 -24q-4 -17 -24 -17q-7 0 -20.5 2.5t-20.5 2.5t-20.5 -2.5t-20.5 -2.5q-9 0 -16 9.5t-12 18.5
q-53 7 -90 7q-18 0 -18 -28q0 -12 3.5 -36.5t3.5 -37.5q0 -33 -23 -42q-12 -5 -52 -5q-29 0 -31 10q-6 26 -5 71q2 54 0 71q-21 6 -49 6q-34 0 -34 24q0 16 33 25l19 -6q6 0 16.5 1.5t16.5 1.5q0 16 1 31q1 19 11 30l19 10q9 4 9 26t-2 64t-2 62q-2 4 -9 4q-8 0 -9 -8
q-2 -6 0 -17q2 -14 2 -15q0 -18 -18 -18q-11 0 -34 23q-10 -6 -18 -6q-23 0 -23 21q0 5 1.5 17t0.5 18h-18q-3 0 -6.5 -3t-5.5 -3q-13 0 -23.5 8.5t-10.5 20.5q0 23 30 23q7 0 19 -1.5t16 -1.5q0 44 21 44l29 -8q10 5 18 5q18 0 21 -17q1 -5 0 -33q4 -1 12 -1l12 1
q-6 14 -6 37q0 14 3 40.5t3 39.5q0 9 -19 19t-19 19q0 21 1.5 63.5t1.5 63.5q0 45 29 45q9 0 28.5 -6t28.5 -6q16 -19 16 -27v-143q-10 -8 -29 -24q0 -13 -3 -20q2 -5 -1 -97h22q84 0 158 21q11 12 22 23q28 23 70 23q6 0 19.5 -3t19.5 -3q16 0 17 50v38q0 78 33 78
q22 -13 22 -20q0 -21 -11.5 -64.5t-12.5 -65.5q22 -9 36 -30q3 -5 20 -42q11 -5 19 -5q5 0 15.5 3t16.5 3q11 0 20.5 -9t9.5 -21zM532 340l-1 56q-113 0 -130 32q-1 10 -10 29l-15 1q-33 1 -83 -10q-79 -17 -82 -17q3 -108 0 -115q1 -14 9 -41l19 -6q9 -13 9 -25
q0 -5 -2 -16.5t-2 -19.5t6 -16q30 -1 90 0h22q1 2 7 45q5 28 31 28q6 0 19 -3.5t20 -3.5q49 0 44 -44q5 -6 15 -13h24q10 126 10 139zM441 161v45q-9 13 -17 13q-12 0 -20.5 -17t-7.5 -30v-7z" />
    <glyph glyph-name="dollar" unicode="$" horiz-adv-x="689" 
d="M643 305q-9 -14 -9 -56q0 -9 -3 -28t-3 -28q0 -10 5 -25.5t5 -23.5l-1 -9q-19 -21 -13 -44q-9 -22 -31 -22q-9 0 -25 5.5t-22 6.5q-109 17 -184 17l-14 -4q0 -1 22 -12q14 -7 14 -17t-31 -24l-3 -8l11 -38q0 -29 -33 -29l-29 13q-5 7 -5 35q0 7 -16 49q0 10 8 19
q14 14 15 16h-5q-21 0 -60 3.5t-58.5 3.5t-30.5 6q0 -20 -27 -39q-28 13 -51 13h-15q-14 -8 -22 -8q-16 8 -21 12.5t-8 17.5q2 15 2 29q0 7 -3.5 20t-3.5 18q0 25 33 25q16 0 54 -6q43 -5 52 -10q1 -11 2 -23.5t12 -12.5q3 0 9.5 2.5t9.5 2.5q21 0 64.5 -9t66.5 -9q7 0 8 14
q3 62 3 99q0 7 -2 23t-2 23l-11 14q-8 0 -26 -11.5t-29 -11.5q-39 0 -126 16q-22 38 -22 45q0 12 6 37.5t6 38.5l-2 9l-7 13q0 11 3.5 71t3.5 89q0 34 -4 43q31 32 76 32q8 0 15.5 -9.5t15.5 -10.5q48 -11 87 -9l26 1l1 12q2 22 -25.5 29t-27.5 26q0 13 40 35q2 4 10 37
q5 23 25 23q25 0 31 -28q2 -8 2 -46q-7 -5 -10 -17l2 -9q13 -5 27 -11q18 -8 18 -19q0 -13 -20 -17q-25 -5 -27 -7v-14q2 0 122 -8q11 23 23 29q9 4 37 4q45 0 52 -8q4 -6 4 -55q0 -8 8 -27q-2 -12 -36 -25q-25 -8 -49 -16q-15 0 -26 19q4 16 4 19v4q-10 10 -66 16
q-37 4 -74 7q-17 -84 -17 -226h68q52 1 135 -23l10 3q22 0 50 -16q32 -17 32 -36zM568 593q5 7 0 22q-6 13 -14 15q-4 2 -9 0q-7 -1 -5 -11q2 -9 4 -17q-1 -5 1 -15q10 -12 23 6zM596 293q-2 11 -11 12q-6 0 -10.5 -4.5t-3.5 -11.5q0 -13 15 -13t10 17zM594 234q-9 18 -26 8
q-6 -4 -6 -13t6 -14q12 -11 22 -3q11 7 4 22zM589 161q3 4 -3 9.5t-12 5.5q-3 0 -4 -2q-7 -14 7 -17q7 -1 12 4zM322 600q-62 13 -82 13q-18 0 -35 -34q-15 -29 -15 -50l15 -84q3 -17 -9.5 -25.5t-28.5 -6.5v-20q80 -19 142 -23q2 77 13 230zM527 282q0 17 -2 25
q-5 4 -33 10t-38 6q-81 0 -105 -14q2 -26 2 -62q0 -16 -3 -47t-3 -47l3 -19q121 -13 138 -13q4 0 12.5 1.5t12.5 1.5l-1 6q0 6 5 22.5t5.5 25.5t3.5 51q3 33 3 53zM107 132q0 10 -15.5 21t-29.5 11q-13 0 -20 -10q-10 -14 0 -27q5 -6 12 -6q4 2 13 5q6 2 15 -1t12 -3
q13 0 13 10z" />
    <glyph glyph-name="percent" unicode="%" horiz-adv-x="766" 
d="M356 544q0 -13 -17 -13h-10h-12q-1 -1 -4 -26q-19 -9 -32 -9q-3 0 -19 3t-27 4q-6 -1 -11 -1q-40 0 -40 48q0 11 3 20q1 -1 -22 -1q-26 0 -25 24q9 14 27 14q10 0 26 -3q2 5 -1 17t-3 13q0 22 43 22q13 0 77 -22q9 -1 16 -9.5t7 -14.5q0 -16 -11 -36q4 -7 21 -12
q14 -5 14 -18zM740 687q0 -101 -41 -101q-2 0 -18 3t-19 3q-32 0 -86 -44q-42 -35 -64 -65q-18 -12 -45 -44q-5 -12 -8 -50q-10 -6 -25 -34.5t-24 -35.5l-112 -64q-92 -59 -102 -111q-2 -7 1 -28q3 -26 3 -36q0 -39 -30 -39q1 0 -35 6q-40 7 -76 10q-12 10 -12 29
q0 3 3 29.5t4 38.5q2 28 -1 47q24 18 30 20q2 1 17 1q18 0 38.5 -10l20.5 -10q7 0 40.5 29.5t35.5 36.5q30 105 147 177q16 6 53 28q16 13 105 101q16 15 32 29q25 22 27 32q-2 22 -1 64q2 8 47 17q38 7 50 7q15 0 30 -10.5t15 -25.5zM632 244q0 -12 -9 -15q-14 -5 -16 -9
q4 -14 1 -29q-1 -5 -9.5 -15.5t-17.5 -11.5q-12 0 -49.5 -3t-41.5 -3q-29 0 -29 65q1 -1 -27 -1q-9 0 -17.5 10t-8.5 18q0 4 9.5 10t15.5 6q1 0 9 -1.5t22 -1.5q2 3 -1 8t-3 8q0 11 13.5 29.5t29.5 18.5q3 0 31 -6t31 -6q4 0 7 1.5t7 1.5q7 0 17 -7t12 -14q2 -11 -1 -24
l19 -14q6 -5 6 -15zM694 658q0 22 -11 22q-39 0 -39 -31q0 -16 29 -16q21 0 21 25zM154 127q0 37 -32 37q-26 0 -26 -31t16 -31h26q16 0 16 25z" />
    <glyph glyph-name="ampersand" unicode="&#x26;" horiz-adv-x="528" 
d="M521 132q0 -3 -5 -11t-6 -14q-1 -7 2 -15q3 -12 3 -16q2 -29 -0.5 -40.5t-21.5 -19.5q-13 -5 -19 -5q-3 0 -16.5 3.5t-18.5 3.5q-12 1 -37 0q-29 -1 -27 -1q-20 0 -27 24q-8 31 -9 32q-23 12 -65 42q-11 11 -25 52q-8 -7 -20 -34t-16 -32q-12 -15 -48 -27
q-31 -10 -46 -10q-4 0 -11 5t-9 5q-23 3 -67 10q-9 11 -9 25q0 3 4.5 21.5t5.5 24.5q2 22 -1 68q-4 51 -4 46q0 -1 3 32t4 65q1 5 -1.5 19t-2.5 20q0 14 15 22q8 1 25 5q21 10 45 32q1 2 1 6t-7 15.5t-9 16.5q-23 56 -23 73t10 28q14 15 36 48q2 3 25 18q16 10 38 10
q3 0 34 -10q35 -12 53 -16q30 -10 30 -29q0 -31 -14.5 -69t-23.5 -42q-22 -10 -53 -30q-34 -21 -34 -25q0 -6 12 -42q13 -40 24 -63q18 -29 52 -86q12 6 35 35t25 41q-6 4 -14.5 17t-7.5 14q13 13 18 13q7 -7 20 -16l8 8q-11 15 -22 36q0 4 8.5 10t10.5 5q6 -3 35 -29.5
t36.5 -35.5t11.5 -17q-3 -2 -9.5 -12t-10.5 -10q-3 0 -10.5 10t-11.5 13q-2 0 -12 -11q2 -7 8.5 -12.5t6.5 -10.5q0 -7 -17 -16q-4 7 -15 14q-7 3 -37 -38t-30 -51q0 -8 19 -31q14 -16 27 -32q27 1 117 -4q-7 0 24 1q16 1 32 -6q9 -4 9 -20zM195 604q-18 11 -30 11
q-7 0 -17 -39q-8 -35 -8 -43q0 -6 3 -12q38 1 48 35q3 10 4 48zM223 210q0 18 -41 107q-38 83 -50 101q-3 -25 -11.5 -33t-8.5 -25q0 -3 4.5 -24t5.5 -28q4 -72 15 -191q14 1 28 10q9 7 17 13q41 61 41 70zM89 154q0 3 -4 60q-6 63 -7 92q-5 0 -8 -37q6 -21 6 -70.5t6 -67.5
q7 14 7 23z" />
    <glyph glyph-name="quotesingle" unicode="'" horiz-adv-x="161" 
d="M142 718q0 -1 -4 -10.5t-4 -15.5q1 -7 3.5 -18t2.5 -17q0 -10 -6 -20q-2 -4 -17 -9l-16 -66q-17 -57 -27 -57q-2 0 -8 -2t-9 -2q-7 0 -9 10q-4 25 12 73q9 24 18 49q-6 4 -22.5 6.5t-24.5 11.5q0 2 -1.5 30.5t-1.5 32.5q0 3 2 6t2 4q-6 10 -3 21q1 6 9 11q5 3 12 3
q2 0 9.5 -3.5t11.5 -4.5q12 -3 38 -3q3 0 7.5 2.5t7.5 2.5q18 0 18 -35zM91 701q-6 24 -17 24q-2 0 -4 -2t-3 -16t-2 -26q-1 -13 9 -14t15 10.5t2 23.5z" />
    <glyph glyph-name="parenleft" unicode="(" horiz-adv-x="267" 
d="M244 150q0 -2 -6.5 -11.5t-6.5 -15.5q0 -5 2.5 -14.5t2.5 -13.5q0 -2 -2 -6.5t-3 -6.5q-23 -10 -34 -10q-3 0 -47 -3q-15 0 -21.5 5.5t-6.5 25.5v34q-14 7 -36 31q-17 34 -34 88q-21 69 -21 108v92q0 36 25 92t54 89l-5 21q13 22 22 22q2 0 19 -5.5t20 -5.5q2 0 11 4.5
t13 4.5q22 0 25 -34q1 -19 1 -38q9 -14 9 -21q0 -13 -28 -21q-35 2 -84 12q-13 -16 -30 -47q-14 -59 -14 -154q0 -38 16 -102q24 -89 61 -89q2 0 14.5 5t16.5 5q20 0 41 -11q26 -12 26 -30zM199 129q0 24 -20 24q-18 0 -25 -11q0 -12 1.5 -23.5t17.5 -11.5q26 0 26 22z" />
    <glyph glyph-name="parenright" unicode=")" horiz-adv-x="296" 
d="M250 314q0 -38 -51 -120t-51 -80q0 -6 4 -16.5t4 -15.5q0 -8 -22 -25l-29 9l-34 -9q-32 0 -32 23q0 11 6 34t6 35t-5 22q1 11 28 19l38 -12l17 4l9 -9q18 8 27.5 26.5t18.5 37.5q5 10 12 28q19 45 19 109q0 55 -6 82q-3 14 -24 55t-29 42q-12 -11 -22 -11q-4 0 -13 2
t-17 2l-52 -7q-9 -2 -16 7t-7 18q0 71 14.5 84.5t85.5 13.5q22 0 25.5 -18t5.5 -35q2 -3 27 -30q30 -33 44 -71q10 -28 19 -84q3 -19 3 -44q0 -17 -1.5 -40t-1.5 -26zM110 119q0 7 -5 16t-8 9h-13q-5 -30 -5 -42q12 -5 14 -5q17 0 17 22z" />
    <glyph glyph-name="asterisk" unicode="*" horiz-adv-x="287" 
d="M262 672q0 -6 -6 -14q-13 -9 -26 -17q-24 -16 -24 -28q0 -3 4 -6q28 -6 28 -18q0 -22 -19 -22q-2 0 -4.5 1.5t-5.5 1.5t-8 -4v-14q14 2 19.5 -12.5t2.5 -25.5q-12 -7 -23 -7q-6 0 -19 10t-17 16q-1 0 -4 -26q-3 -22 -16 -22q-12 0 -15 21q-3 28 -4 30h-34q-8 -10 -11 -24
q-2 -8 -10 -8q-29 0 -29 22q0 15 23 32.5t23 22.5q0 3 -1 4.5t-1 3.5q-5 0 -8 -1t-6 -1q-32 0 -32 21q0 15 20 18q25 3 28 6q-4 4 -26 16q-13 7 -13 22q0 7 7 14t13 7q9 0 19 -12t23 -12q17 0 23.5 29t21.5 29q9 0 15.5 -7.5t6.5 -11.5t-6 -22t-6 -26q9 -8 18 -8q6 0 52 41
q8 0 17.5 -7.5t9.5 -11.5z" />
    <glyph glyph-name="plus" unicode="+" horiz-adv-x="576" 
d="M574 413l-3 -4l2 -13l-3 -15q-19 -5 -57 -5q-21 0 -65.5 2t-61.5 2l-28 -1l-1 -82q0 -26 17 -31t20 -21q-6 -11 -13 -20q0 -7 8 -14.5t8 -15.5q0 -3 -4.5 -12t-3.5 -15q39 -43 39 -62t-37 -55.5t-58 -36.5q-12 0 -29 7q-11 29 -23 57q-15 39 -15 56q0 6 10 16.5t11 15.5
q-1 13 8 42q-10 -1 -16 12t-6 23q0 24 42 31l3 105l-10 -3q1 -2 -12 -3t-33 -1h-28q0 -21 -24 -21q-11 0 -33 3t-33 3q-30 0 -88 -13q-10 -2 -25 26q0 31 12 39q8 4 41 4q9 0 35.5 17.5t26.5 20.5q5 5 11 5q9 0 28 -18t32 -18q6 0 14 7.5t13 8.5q18 4 72 4q0 18 2 39t2 39
q0 27 -28 32t-28 26q0 5 11.5 34t12.5 43q0 -10 0 109q0 24 29 24q38 0 71 -9q48 -12 48 -38q0 -25 -15 -83t-15 -92t-6 -39q-11 -1 -30 -3q-5 0 -7 -2.5t-5 -86.5q100 -3 202 -3q13 0 13 -17zM205 379q-3 16 -25 19q-16 3 -33 5q8 -29 37 -29zM372 113q0 10 -9.5 17
t-20.5 7q-10 0 -24 -6q7 -19 21 -58q6 0 29 23z" />
    <glyph glyph-name="comma" unicode="," horiz-adv-x="152" 
d="M133 121q0 -23 -7 -37q-8 -4 -20 -14q-1 4 -1 -9q0 -1 4 -22.5t4 -31.5q-12 -8 -25 -25q15 -15 15 -20q0 -16 -25 -16q-18 0 -55 14v21l15 6q3 0 9 -2t8 -2q8 0 17 23q7 19 7 26q0 -3 -3 23q-2 16 3 21h-16q-2 0 -8.5 -4.5t-8.5 -4.5q-23 0 -29 19q-3 9 -3 41q0 11 18 28
q57 5 70 5t23 -18q8 -13 8 -21z" />
    <glyph glyph-name="hyphen" unicode="-" horiz-adv-x="565" 
d="M511 358l-4 -4q3 -5 3 -13l-3 -15q-18 -5 -55 -5q-19 0 -63.5 2t-65.5 2q-54 0 -79 -9q5 -11 5 -19q0 -39 -83 -39q-8 0 -27.5 3.5t-32.5 1.5l-25 12l-44 -10q-11 -2 -25 26q0 33 14 40q6 3 39 3q27 0 27 13q0 7 -4 21.5t-4 21.5q13 14 39 15q39 1 43 2q7 7 25 15
q22 4 67 4q39 0 115.5 -3.5t95.5 -3.5q42 0 42 -61zM184 300q-13 69 -40 69q-19 0 -19 -36q0 -15 12 -26.5t27 -11.5z" />
    <glyph glyph-name="hyphen" unicode="&#x2010;" horiz-adv-x="565" 
d="M511 358l-4 -4q3 -5 3 -13l-3 -15q-18 -5 -55 -5q-19 0 -63.5 2t-65.5 2q-54 0 -79 -9q5 -11 5 -19q0 -39 -83 -39q-8 0 -27.5 3.5t-32.5 1.5l-25 12l-44 -10q-11 -2 -25 26q0 33 14 40q6 3 39 3q27 0 27 13q0 7 -4 21.5t-4 21.5q13 14 39 15q39 1 43 2q7 7 25 15
q22 4 67 4q39 0 115.5 -3.5t95.5 -3.5q42 0 42 -61zM184 300q-13 69 -40 69q-19 0 -19 -36q0 -15 12 -26.5t27 -11.5z" />
    <glyph glyph-name="hyphen" unicode="&#x2010;" horiz-adv-x="565" 
d="M511 358l-4 -4q3 -5 3 -13l-3 -15q-18 -5 -55 -5q-19 0 -63.5 2t-65.5 2q-54 0 -79 -9q5 -11 5 -19q0 -39 -83 -39q-8 0 -27.5 3.5t-32.5 1.5l-25 12l-44 -10q-11 -2 -25 26q0 33 14 40q6 3 39 3q27 0 27 13q0 7 -4 21.5t-4 21.5q13 14 39 15q39 1 43 2q7 7 25 15
q22 4 67 4q39 0 115.5 -3.5t95.5 -3.5q42 0 42 -61zM184 300q-13 69 -40 69q-19 0 -19 -36q0 -15 12 -26.5t27 -11.5z" />
    <glyph glyph-name="period" unicode="." horiz-adv-x="187" 
d="M150 90q0 -2 -4.5 -11.5t-4.5 -14.5q0 -2 2.5 -12t1.5 -14q-15 -12 -20 -12q-3 0 -12 2.5t-12 2.5q-2 0 -18.5 -2.5t-18.5 -2.5q-31 0 -31 26q0 2 4 13.5t4 15.5q2 14 -3 38q21 15 42 15q3 0 10.5 -2t9.5 -2q3 0 9 2t9 2q12 0 18 -11q14 -26 14 -33zM113 63v21q0 9 -23 9
q-22 0 -22 -15q4 -21 12 -21q-1 0 33 6z" />
    <glyph glyph-name="slash" unicode="/" horiz-adv-x="760" 
d="M746 612q0 -16 -10 -24q-6 -5 -67 -42q-52 -30 -72 -55q-25 -29 -38 -29q-3 0 -14.5 11t-15.5 11q-1 0 -27 -24q-10 -9 -251 -245q-14 -13 -14 -22q0 -5 4.5 -12t4.5 -12q0 -7 -6 -16q-6 -2 -23 -5q-6 -5 -5 -14.5t-4 -15.5q-9 -3 -26 -16q-2 -41 -3 -43q-8 -38 -35 -38
h-92q-8 0 -21 14.5t-13 22.5q0 2 16 36q18 38 23 54q5 12 16 19q12 0 35 5q10 11 35 25q2 1 0 4q-4 3 -4 7q0 11 9 24t22 13t35 -16q47 44 148 145q92 93 145 140q12 10 12 25q0 4 -9.5 17.5t-9.5 17.5q0 19 15.5 25t33.5 14t31 19q30 25 77 78q7 8 18 8q15 0 49 -50
q31 -46 31 -56zM136 92q0 21 -31 35q-10 -23 -26 -57q-2 0 7.5 -2t29.5 -2q20 13 20 26z" />
    <glyph glyph-name="zero" unicode="0" horiz-adv-x="544" 
d="M523 75q-33 -28 -105 -34q-8 4 -32 4q-6 0 -28.5 -3.5t-35.5 -3.5q-30 0 -86 -5q-62 -6 -87 -6l-70 6q-41 7 -41 51q0 8 5.5 22.5t5.5 22.5q-2 18 -5 59q-4 57 -5 128v61q1 38 -1 126q0 16 -3 59q-2 33 -2 55q0 30 31.5 66.5t60.5 36.5q8 0 24 -4.5t23 -4.5q21 0 60.5 11
t59.5 11q8 0 23.5 -7t23.5 -7q7 0 21 3t21 3q60 0 93 -25q4 -8 10.5 -25.5t7.5 -44.5q1 -19 0 -51q-2 -37 -2 -47q0 -28 5 -122q-4 -6 -1 -17q4 -14 4 -17q0 -7 -3 -19t-3 -19q0 -43 15.5 -131t15.5 -132zM440 416q0 20 -13 114q-13 98 -18 103l-27 -11q-48 11 -141 11
q-14 0 -44 -5q-34 -5 -40 -10q-63 -54 -63 -252q0 -54 4 -67l53 11q6 40 6 60q0 -3 -4 28l-7 10q0 17 13.5 28t31.5 11q14 0 41.5 -4t41.5 -4q3 0 8.5 2.5t7.5 2.5q31 0 53 -35q-2 -20 -5 -31q4 -1 16 -5t19 -4q24 0 45.5 12t21.5 35zM297 359q0 39 -48 39q-44 0 -40 0
l-9 -28q0 -8 3 -24.5t3 -24.5q0 -7 -5 -19h23q36 0 69 16q4 51 4 41zM437 313l-14 15q-17 -11 -69 -11q-2 -9 -2 -19q0 -4 1 -10.5t2 -10.5q0 -7 -1 -17q1 -14 -5 -42q-16 -32 -61 -32q-74 0 -96 6q-46 13 -46 61q-5 0 -15.5 1.5t-15.5 1.5q-28 0 -28 -39q0 -36 12 -63
q-1 -15 -1 -31q0 -13 4 -29l5 26l-3 15q5 9 22 16l73 -22q6 11 24 24q21 0 21 -29q0 -10 -3 -26q8 -3 18 -17l12 -1q30 0 58 10q38 13 38 37.5t2.5 80.5t2.5 79q22 13 32 17q19 9 33 9z" />
    <glyph glyph-name="one" unicode="1" horiz-adv-x="368" 
d="M343 87q0 -62 -48 -62q-29 0 -88 19t-87 19q-10 0 -31 -6.5t-31 -6.5q-14 0 -27 27q0 29 46 36t50 22q9 39 9 93q0 9 -2.5 28t-2.5 29q-10 2 -18 2q-6 -6 -14 -6q-10 0 -19 9t-9 20q0 23 27.5 24.5t28.5 7.5q3 25 3 59q0 8 -3.5 22.5t-3.5 21.5q0 5 1 10q-11 32 -11 73
l-45 39l-28 -5q-24 0 -28 38q4 0 2 14q3 19 12 55q13 9 21 9q47 0 42 0q9 -1 31 -3q10 3 32 3q30 -9 30 -46q0 -27 -5.5 -80.5t-5.5 -79.5q0 -21 3 -62.5t3 -61.5q0 -26 12 -143q1 -11 -1 -30q-3 -23 -3 -31q0 -13 22 -13q13 0 38 2.5t38 2.5q37 0 46 -6q14 -8 14 -43z
M135 578q0 13 -5 37q-4 1 -20 6t-21 5q-15 0 -29 -9q6 -5 17.5 -7.5t15.5 -5.5q14 -9 42 -26z" />
    <glyph glyph-name="two" unicode="2" horiz-adv-x="455" 
d="M406 67q0 -37 -35 -37q-14 0 -42.5 6.5t-42.5 6.5q-3 0 -8 -2.5t-8 -2.5q-4 0 -12.5 3t-11.5 2q-15 -1 -47 -2q-36 4 -83 5q-23 -6 -41 -6q-16 0 -22 17q-2 5 -5 33q-1 7 0.5 18t1.5 15q0 8 3 25t3 25q0 28 -4 83t-4 82q0 35 49 35q14 -13 30 -13q10 0 34 5.5t31 9.5
q-1 13 -1 40q0 40 4 119.5t4 119.5q0 28 -16 28q-3 0 -14 -2t-18 -2q-16 0 -30 6q-3 -5 -4 -28t-7 -31l-24 7q-1 1 -1 3q0 6 2.5 18t2.5 18q0 8 -1 13q-5 5 -24 12q-7 -11 -7 -60q-24 1 -32 20q2 5 2 11q0 14 -10.5 37.5t-12.5 32.5q19 19 50 39q19 -17 73 -32
q50 -14 78 -14q5 0 16.5 6.5t16.5 6.5q19 0 46 -16t27 -34q0 8 -4.5 -37.5t-4.5 -228.5q0 -57 -3 -133q-1 -14 -24.5 -26.5t-39.5 -12.5q-3 0 -11 2.5t-12 2.5q-7 0 -22 -4t-22 -4q-5 0 -13 4t-13 4q-9 0 -26.5 -42.5t-17.5 -55.5q0 -11 2 -31q2 -23 2 -32q12 -12 109 -12
q12 0 46 5q7 10 9 36q2 22 10 28q2 2 13 2q3 0 105 -10q9 -12 5 -52q6 -2 6 -29zM260 464q0 27 -3 102q-4 64 -2 102q-14 -13 -15 -35q2 31 2 -38q0 -113 -5 -150l-3.5 -14t-2.5 -15q0 -16 4.5 -50t4.5 -51h9zM351 94q0 14 -20 14q-16 0 -19 -6q-3 -5 0 -15h10q19 0 28 1z
" />
    <glyph glyph-name="three" unicode="3" horiz-adv-x="492" 
d="M462 106q0 -11 -21 -21t-34 -10q-19 11 -30 11q-23 0 -63 -12.5t-61 -12.5l-34 6q-3 0 -40 -8q-44 -10 -46 -10q0 -3 4 -12.5t3 -15.5q-4 -27 -22 -27q-8 0 -17.5 8.5t-11.5 17.5q3 5 3 19q0 11 -3.5 34t-3.5 34q0 13 25 27q25 -9 25 -23q0 -4 -2 -7h25q11 2 34 6
q12 2 59 2q27 0 53 29.5t26 57.5q0 12 -5 20q8 12 8 57q0 6 -2 21q-1 14 0 22q-2 2 -19 13q-9 12 -12 30t-8 23q-9 8 -38 8l-24 -11q-9 0 -23.5 10.5t-14.5 19.5q0 7 13 18t21 11q6 0 17 -2.5t17 -2.5q15 0 25.5 16t28.5 16q15 -10 21 -10q19 0 19 54q0 5 -14.5 89t-15.5 86
q-5 8 -17 8q-64 0 -128 -21q5 -6 11 -22q1 -14 -9 -26t-21 -12q-5 0 -15.5 4t-15.5 4q-7 0 -21.5 -5.5t-21.5 -5.5q-29 0 -29 57q0 49 2 55q6 29 37 29q10 0 26 9t22 9q16 0 22.5 -23t27.5 -23q23 0 39 6q21 8 29 10q26 4 73 9q25 0 34 -31q6 -17 13 -105q7 -83 7 -111
q0 -22 11 -29q20 -13 21 -14q11 -14 11 -53q0 -29 25 -76q-11 -21 -11 -64q0 -57 5 -137l1 -7zM136 663v20q0 5 -5.5 15.5t-6.5 12.5q-9 -2 -17.5 -14t-8.5 -22q0 -15 22 -15q10 0 16 3zM389 408l-6 12q-45 -4 -45 -18q0 -13 18 -20l30 -6z" />
    <glyph glyph-name="four" unicode="4" horiz-adv-x="411" 
d="M394 419q0 -10 -4 -26q-5 -19 -6 -27q0 -8 2.5 -23.5t2.5 -21.5q0 -25 -29 -26q-9 0 -23 11q-3 -3 -4 -12q0 -6 1 -17.5t1 -12.5q0 -6 -3.5 -17.5t-3.5 -17.5v-122l4 -7q-2 -25 14.5 -38t16.5 -19l-1 -25q-11 -3 -35 -3q-82 0 -82 18q7 17 26 18q9 0 16 10l-1 38
q-1 28 4 82.5t5 79.5q0 33 -10 64l-10 2q-12 -23 -55 -23q-33 0 -176 -8q-23 0 -29 28q-3 10 -3 49q0 6 1.5 19.5t1.5 20.5q54 126 54 214q0 37 86 37q9 0 18 -9.5t9 -18.5q0 -18 -46 -18q-15 0 -34 -69l-22 -88v-32q96 6 212 19q9 77 9 99q0 14 -4.5 39.5t-4.5 37.5
q-4 6 -14 7q-8 1 -22 -0.5t-15 -1.5q-3 0 -3 19q0 14 2 55q2 33 1 36q4 9 29 12q18 2 50 0q46 -1 45 -1q6 -9 6 -34q0 7 2 -34q2 -26 -2 -33.5t-19.5 -10.5t-17.5 -12q-4 -24 -2 -67q3 -65 3 -68q0 -10 4 -28.5t4 -27.5q6 -5 22 -10q4 0 11 1.5t10 1.5q8 0 8 -9zM328 683
q9 17 -4 27q-9 7 -23 0q-14 -8 -11 -23q2 -9 12 -12q18 -6 26 8zM348 354q0 11 -5 31q-50 10 -62 10q-9 0 -13 -11q-2 -8 11 -20q31 -1 55 -15z" />
    <glyph glyph-name="five" unicode="5" horiz-adv-x="469" 
d="M438 378q-17 -11 -25 -11q-3 0 -15.5 5t-15.5 5q-10 0 -50 -13q-31 0 -31 29q0 11 5 26q-14 6 -27 13q-4 2 -20 2q2 0 -26 -4q-2 -19 -19 -52q-15 -1 -43 -7q-34 -12 -34 -69q0 -36 11 -55q0 -1 -2 -3.5t-2 -4.5q31 -7 64 -7q3 0 8 2.5t8 2.5q55 0 84 -133
q20 -89 20 -165q0 -18 -14.5 -36.5t-25.5 -23.5q-4 -2 -58 -12q0 -14 -2 -38q-2 -8 -6.5 -10.5t-17.5 -3.5q-14 0 -17 2.5t-3 20.5q1 19 0 21l-13 4q0 -32 -7 -42q-3 -3 -19 0t-17 7v38q-1 12 0 35q1 28 1 26q0 27 9 27q-1 0 6.5 1t11.5 1q6 -1 8.5 -5.5t1 -21t1.5 -18.5
q4 -2 11 0q7 10 8 28q2 15 4 16q16 8 24 -3q3 -5 3 -19q-1 -21 0 -27q65 -7 65 52q0 48 -15 137q-6 31 -10 44q-10 31 -28 41q-22 11 -95 11q-3 0 -14 -4t-14 -4q1 0 -10.5 9.5t-26.5 9.5q-3 0 -5 -1.5t-6 -1.5q-21 0 -24 37q1 18 1 37q-4 10 -10 33q-7 81 -7 140
q0 6 6.5 14.5t11.5 8.5q3 0 40 -4t40 -4t22 6.5t22 6.5q2 0 6 -2.5t7 -2.5t14.5 2.5t15.5 2.5q3 0 13 -2.5t14 -2.5q3 0 16 5.5t16 5.5t7 -3t8 -3q19 0 20 24.5t27 24.5q3 0 19.5 -5.5t19.5 -5.5t17 2.5t18 2.5q25 0 30.5 -7.5t2.5 -16.5q-3 -12 -3 -14q1 -7 2 -41
q1 -26 7 -40q1 -2 1 -20zM393 421v48q-20 5 -27 5q-16 0 -22 -3q0 -18 6 -58q-1 -1 25 -1q13 0 18 9z" />
    <glyph glyph-name="six" unicode="6" horiz-adv-x="530" 
d="M506 178q-2 -12 -5 -40q1 -35 0 -75q-4 -11 -41 -27q-32 -14 -38 -14q-46 0 -83.5 6.5t-32.5 6.5q-11 0 -153 -11q-42 0 -54 21q-11 17 -13 78q0 13 -13 83q-3 4 -7 29q-12 0 -35 6q-8 4 -8 61v50q1 8 13.5 16t14.5 11q1 -6 1 31q0 3 -5 78.5t-5 78.5q0 46 44 48
q20 1 45.5 5.5l25.5 4.5q3 0 8 -2.5t8.5 -2.5t48.5 -1.5t49 -1.5l40 7q36 7 63 4q0 4 -1 26q-1 18 5 23q2 2 15 3q14 0 17.5 -1.5t4.5 -12.5q1 -17 7 -31q4 -2 11 -1q2 3 5 19q2 12 8 12q-6 0 14 2q9 1 13 -4.5t5 -18.5q0 -8 -1.5 -22t-1.5 -15q0 -52 -12 -52
q-16 0 -20.5 4.5t-5 16t-1.5 13.5l-13 1q-2 -4 0 -34q-4 -6 -20 -6q-19 0 -23 10q-1 5 -1 28q-21 1 -80 -8h-64q1 -4 -1 -13q-5 -10 -26 -17q-17 -6 -34 -12.5t-39.5 -25t-24.5 -28.5q-4 -17 -4 -49q0 -2 7.5 -28t9.5 -38q0 -1 18 -9q15 -7 15 -18q0 -4 -1 -8h14
q99 5 143 12q8 1 11.5 15t13.5 14q3 0 15 4.5t15 4.5t9.5 -4.5t10.5 -4.5q39 0 71 -14q47 -20 47 -60q6 -78 1 -123zM454 309q-7 9 -33 16q-22 7 -36 7q-18 0 -21.5 -13t-6.5 -27q4 -8 14 -9q15 -1 16 -1q12 -7 13 -7q8 0 26 8q25 11 28 26zM446 213q0 2 -3 14.5t-3 17.5
q-42 -10 -68 -10q-13 0 -36 24t-26 36q-32 4 -37 4q-80 0 -112 -16q-1 -12 -3 -24q-4 -22 -19 -22q-13 0 -16 3q2 -69 16 -170q25 0 33 1q12 1 46 5h41q32 0 33 9q4 23 34 44q27 17 55 34q6 9 21 22q14 2 37 8q0 1 3.5 9t3.5 11zM117 291q0 35 -31 35q-20 0 -21 -5
q-2 -18 -3 -37q24 -6 33 -6q22 0 22 13z" />
    <glyph glyph-name="seven" unicode="7" horiz-adv-x="452" 
d="M420 589q-2 -16 -23 -31q-23 -18 -25 -23q-27 -58 -54 -117q-28 -69 -28 -124q0 -17 6.5 -52t6.5 -52q0 -10 -1 -31t-1 -32q0 -10 5.5 -27t5.5 -26q0 -14 -16.5 -21.5t-33.5 -13.5q-23 -9 -40 -9q-21 0 -29 11q-2 2 -12 25q-6 13 -6 39q0 17 -12.5 38.5t-12.5 40.5
q0 8 6.5 20t11.5 22q9 21 17 57q10 42 15 56q9 29 37 73q40 61 44 70q4 14 16 40q36 34 73 76q7 37 7 59q0 41 -22 41q-19 0 -57.5 -6.5t-56.5 -6.5q-20 1 -65 2q-15 0 -42 -1q9 -8 18.5 -17t11.5 -20q1 -6 -3 -29q-1 -9 -9 -31q-5 -8 -23 -7q-27 1 -29 1q-3 -1 -14 -5
q-7 -4 -22 -4q-31 0 -39 35q-2 11 -2 59q0 16 29 27q1 9 2 27q16 14 121 14q12 0 34.5 -4t33.5 -4q24 0 72 11t71 11q27 0 34 -31q10 -51 0 -130zM110 631q1 11 -12 19q-14 8 -23 0q-4 -4 -3 -15q2 -14 14 -17q22 -7 24 13z" />
    <glyph glyph-name="eight" unicode="8" horiz-adv-x="417" 
d="M401 311q0 -21 -31.5 -46t-31.5 -46q0 -20 7 -60.5t7 -60.5q0 -57 -31 -57q-24 0 -74 15.5t-73 15.5q-10 0 -30.5 -3t-30.5 -3q-48 0 -48 31q0 13 3 41t3 42q0 31 -4 77q-32 16 -35.5 23t-3.5 44q0 12 -5 34t-5 34q0 6 9.5 22.5t9.5 26.5v110q-5 36 -5 74q-6 7 -6 14
q0 13 14 24.5t26 11.5l17 -8q28 0 43 -3q3 14 16 37q4 3 24 3q11 0 12 -16q2 -24 3 -27l7 -1l9 36q21 0 24 -5q2 -4 0 -24q-1 -15 8 -15q28 0 55.5 -2.5t35.5 -8t19 -23.5q6 -10 6 -89v-99q1 -17 2 -18.5t31 -22.5q17 -12 17 -41q0 -6 3 -18.5t3 -18.5zM357 318l-9 28
q-6 16 -20 16q-13 0 -22.5 -11t-9.5 -25q0 -4 2 -13t2 -14h31q9 0 26 19zM272 438q0 94 -7 138l-20 16q-9 7 -24 10q-1 -14 -8 -29q-5 -2 -12 1.5t-8.5 3t-4.5 30.5q0 4 -7 4q-5 0 -8 -18t-7 -20q-7 -2 -25 4q-3 2 -3.5 14.5t-3 16t-24.5 3.5h-23v-41q0 -28 7 -77
q9 -55 10 -76l34 -15q17 -11 17 -29q0 -5 -1 -11q20 -8 50 -13q37 -7 50 -10v11q-1 8 -1 12q0 10 9.5 34t9.5 41zM310 108q0 19 -6 67q-5 42 -3 66q-24 11 -32 19q-11 11 -18 35q-12 3 -39 10q-21 4 -59 3q-2 -10 2 -24q-8 -11 -8 -18q0 -10 4.5 -31.5t4.5 -33.5
q0 -41 3 -82q102 -28 144 -28q7 13 7 17zM106 311v39q-5 6 -9 12q-7 9 -12 9t-11.5 -10.5t-6.5 -15.5l9 -37q9 3 30 3z" />
    <glyph glyph-name="nine" unicode="9" horiz-adv-x="337" 
d="M321 403q0 -6 -5 -13q-2 -16 1 -37q-4 -8 -25 -15t-25 -17q-2 -5 -7 -42t-5 -51q0 -56 1 -61q40 0 41 -1q5 -4 3 -13q-2 -16 -2 -13q0 -6 -16 -4q-27 3 -21 3q-5 0 -4 -7q2 -6 6 -7q16 0 34 -8q2 -5 0 -19q-2 -15 -9 -15q-3 0 -64.5 2t-65.5 2q-9 0 -9 10q1 -18 1 16
q0 7 18.5 5.5t21.5 4.5q-2 1 2 6q2 5 -1 5q-42 0 -42 3q0 24 3 26q11 6 43 0q1 13 10 47q7 27 7 77q0 2 1 18q0 12 -1.5 20t-6.5 13q-8 2 -24 9q-7 7 -20 18q-27 15 -49 15q-3 0 -11 -2.5t-12 -2.5q-14 0 -29 10.5t-15 26.5q0 6 3 13q0 4 -9.5 16t-10.5 18q-2 21 1.5 62.5
t1.5 61.5q-1 8 -5 31t-4 27q0 3 3 14t3 17q1 14 1.5 28t8.5 27q7 0 23.5 2t19.5 2q2 0 11 -3t13 -3t40 7.5t39 7.5q4 0 27.5 -10t27.5 -10q3 0 6 2.5t7 2.5q18 0 31 -32q9 -26 9 -49q0 -4 -7 -63t-7 -63q0 -16 1 -30q3 -18 11 -34q1 -2 18 -25q13 -17 13 -26zM211 597
q1 23 0 62q-4 0 -10 1.5t-10 1.5q-16 0 -39 -12q0 -11 -2 -35q0 -18 -6 -52q-5 -16 -30 -28q-20 -10 -20 -34q0 -14 10 -73q8 0 25 -5t19 -5q5 0 6 1.5t2 2.5q-2 8 -2 15q0 40 48 39q4 37 9 121zM266 398q0 12 -12 21.5t-27 9.5q-3 0 -6.5 -2t-5.5 -1q0 -2 -1.5 -8t-1.5 -9
q0 -18 19 -21q16 -2 31 -5q4 4 4 15z" />
    <glyph glyph-name="colon" unicode=":" horiz-adv-x="187" 
d="M150 90q0 -2 -4.5 -11.5t-4.5 -14.5q0 -2 2.5 -12t1.5 -14q-15 -12 -20 -12q-3 0 -12 2.5t-12 2.5q-2 0 -18.5 -2.5t-18.5 -2.5q-31 0 -31 26q0 2 4 13.5t4 15.5q2 14 -3 38q21 15 42 15q3 0 10.5 -2t9.5 -2q3 0 9 2t9 2q12 0 18 -11q14 -26 14 -33zM113 63v21q0 9 -23 9
q-22 0 -22 -15q4 -21 12 -21q-1 0 33 6zM148 426q0 -5 -4 -10q1 -14 -2 -41q-12 -9 -20 -9l-12 2q1 -5 0 -14q-6 -16 -22 -16q-21 0 -18 33q-8 0 -18.5 9t-11.5 18q13 13 28 9q-2 9 0 25q3 4 26.5 10t30.5 6t15 -8.5t8 -13.5z" />
    <glyph glyph-name="semicolon" unicode=";" horiz-adv-x="184" 
d="M149 398q0 -5 -4 -10q1 -14 -1 -41q-12 -9 -21 -9l-11 2v-14q-13 -32 -22 -32q-7 0 -13.5 16t-4.5 33q-9 0 -19 9t-12 18q14 13 29 9q-3 9 0 25q2 4 26 10t30 6q7 0 15 -8.5t8 -13.5zM145 92q0 -1 -3 -29.5t-3 -41.5q0 -5 1.5 -21t1.5 -24q-1 -10 -16 -10q-2 0 -6 1.5
t-6 1.5q-5 0 -23 -11t-29 -11q-8 0 -13.5 6.5t-5.5 11.5q0 6 19 14q13 5 25 10q7 4 20 11q1 6 3 18.5t2 14.5v11q-1 9 -1 13q-65 -4 -57 -4q-30 0 -30 27q0 2 2.5 13.5t2.5 16.5q-1 25 0 26q6 12 24 12q3 0 9 -2.5t8 -2.5q3 0 15.5 3.5t15.5 3.5q-2 0 26 -7q11 -4 14.5 -15
t3.5 -36zM108 99q0 5 -7 12q-6 -5 -19 -5h-19v-21h16q6 0 17.5 3.5t11.5 10.5z" />
    <glyph glyph-name="less" unicode="&#x3c;" horiz-adv-x="374" 
d="M343 177q0 -16 -9 -20.5l-17 -8.5q-18 -13 -44 -46q-2 0 -9 -3t-10 -3q-15 0 -48 48q-27 41 -31 54q21 13 21 17q-23 25 -46 46q-54 53 -98 83q-20 14 -20 29q0 8 22 28q18 18 26 22q25 14 51 38q23 21 46 43q-2 3 -11 15q-8 9 -8 13q0 8 20 18q17 9 24 9q-7 0 23 -9
q4 4 4 8q0 3 -6 12.5t-6 12.5q0 31 24 31q9 0 17.5 -13t12.5 -13q2 0 8.5 3.5t10.5 3.5q22 0 22 -19q0 3 -3 -16q-18 -7 -18 -17q0 -3 6 -13t6 -13q0 -6 -9.5 -12.5t-12.5 -6.5q-2 0 -33 15q0 -8 3.5 -14.5t3.5 -13.5q0 -8 -8 -18t-18 -10q-2 0 -14.5 6t-14.5 6
q-5 0 -58 -50t-53 -54q0 -9 61 -63t67 -54q40 31 49 31q16 0 12 1q8 -2 14 -16q4 -7 51 -87zM300 183q0 4 -15 27.5t-23 23.5q-17 0 -18 -13q11 -12 23 -23q16 -15 16 -24q0 -2 -1 -5q-21 -13 -24 -13q-4 0 -15 11q-15 15 -18 17q3 -9 13 -25q12 -20 19 -20q5 0 24 19.5
t19 24.5z" />
    <glyph glyph-name="equal" unicode="=" horiz-adv-x="633" 
d="M630 516l-4 -5q3 -5 3 -12l-3 -15q-18 -5 -72 -5q-29 0 -98.5 2t-102.5 2q-84 0 -109 -10q5 -10 5 -19q0 -38 -83 -38q-8 0 -27.5 3t-32.5 1l-25 13l-44 -10q-11 -2 -25 26q0 33 14 40q6 3 39 3q27 0 27 12q0 8 -4 22.5t-4 21.5q13 14 39 14q39 1 43 2q7 7 25 16
q22 4 88 4q61 0 177.5 -4t131.5 -4q42 0 42 -60zM596 367q-15 -4 -15 -16v-3.5v-4.5q0 -9 -15 -9q-27 0 -27 -12q0 -8 3.5 -22.5t4.5 -21.5q-13 -14 -39 -14q-40 -1 -43 -2q-23 6 -56 10q-41 -7 -183 -15q-128 -7 -183 -7q-42 0 -42 60l7 -56q-6 13 -6 73q0 3 42 6t42 5
q21 6 77 6q18 0 56.5 -1t57.5 -1q82 0 109 11q-5 10 -5 19q0 38 84 38q8 0 29 -3q17 -3 31 -1l25 -13l44 10q2 -4 3 -7q0 -2 -1 -17q-1 -10 0 -12zM505 335q0 15 -11.5 26.5t-26.5 11.5q-2 0 -23.5 -22t-23.5 -22q2 -13 26 -22q20 -8 41 -8q18 0 18 36zM184 458
q-13 69 -40 69q-19 0 -19 -36q0 -15 12 -26.5t27 -11.5z" />
    <glyph glyph-name="greater" unicode="&#x3e;" horiz-adv-x="414" 
d="M391 404q0 -7 -19.5 -34t-20.5 -30q-17 4 -84.5 -72t-102.5 -136q-3 -5 -20 -24q-20 -22 -25 -22q-10 0 -39 12q-11 12 -31 33q-7 5 -15.5 10t-8.5 17q0 3 1.5 8t1.5 7q17 7 50 31q4 9 14 26q5 8 20 8q3 0 15.5 -5t15.5 -5q11 0 40 52q3 4 48 61q31 39 31 65q0 2 -40 39
q-49 45 -63 60q-51 51 -51 64q0 8 4 12q9 8 17 17l-7.5 2.5t-3.5 12.5q10 0 19.5 1t15.5 1q17 0 28 -14q6 -19 30 -51q4 -6 15 -17q28 -17 39 -17q3 0 11 3.5t10 3.5q18 0 38 -11q16 -9 25 -30q4 -15 11 -38q1 -3 16 -20t15 -20zM303 355l-2 16l-102 -122l6 -9zM127 193
l-2 10l-26 -30l-12 -1l1 -20z" />
    <glyph glyph-name="question" unicode="?" horiz-adv-x="596" 
d="M584 625q0 -20 -7 -77q-6 -8 -20 -21q-11 -8 -69 -38q-100 -52 -100 -149q0 -5 10.5 -6t10.5 -5q0 5 3 -14q3 -13 -1 -19t-16 -6.5t-12 -1.5q0 -27 -1 -26q3 -4 13 -5t13 -5v-28q0 -2 -29 -3q-7 0 -9 -2q-1 -11 -3 -22q-2 -16 -10 -21h-18q0 14 -11 38q-3 2 -21.5 3
t-18.5 5q0 30 5 30h13q10 -1 14 -1q3 0 8 4l-1 32q-17 -2 -47 3q-5 3 1 31q16 1 43 9q1 14 -9.5 38t-10.5 26q0 7 47 55q10 5 26 15q51 46 60 55q48 46 57 68q1 3 1 33q0 29 -3 41q-47 8 -139 25q-5 4 -16 9q-53 12 -94 12q-94 0 -131 -8v-21q0 -19 14.5 -24.5t27.5 -10.5
q5 -14 11 -45q4 -34 4 -95q0 -27 -14 -55q-16 -35 -41 -35q-1 0 -51 -3q-30 0 -39 25q-1 3 2 10.5t3 9.5q1 16 -2 44q-3 32 -3 45q0 18 -10 105q0 1 -4.5 7.5t-4.5 9.5q0 10 17 21q14 9 20 9q8 0 17 -5q6 8 13 40q4 16 28 16q3 0 18 -2.5t19 -2.5q3 0 76 4t76 4q2 0 33 -5.5
t48 -5.5q4 1 5 12.5t2 13.5q12 20 51 20q3 0 7.5 -3.5t7.5 -4.5q25 0 73 -9q29 -12 59 -43q5 -5 2 -52q-1 -9 3 -28t4 -20zM425 1q0 -9 -11 -19.5t-16 -10.5q-19 0 -68 11q-59 13 -59 25q0 10 3 28.5t3 28.5q-2 18 1 52q2 6 16 16.5t19 10.5q12 0 52 -15.5t43 -20.5
q6 -12 6 -38v-37q1 -5 6 -16.5t5 -14.5zM115 565q0 48 -48 55q0 -2 -1.5 -6.5t-1.5 -7.5q0 -4 7 -53q9 -58 12 -81h18q8 8 9 31v35q5 21 5 27zM352 61q0 4 -2.5 12t-2.5 11h-15q-4 -2 -8 -15t-4 -19q0 -22 20 -22q4 0 8 13t4 20z" />
    <glyph glyph-name="at" unicode="@" horiz-adv-x="484" 
d="M457 178q0 -3 -2 -16t-2 -18q-4 -55 -2 -82q-16 -8 -26 -8q-4 0 -15.5 3.5t-14.5 3.5q-4 0 -6 -1t-5 -1q-41 0 -54 13q-5 12 -11 24t-34 12q-3 0 -13.5 -1t-14.5 -1q-63 0 -105 8q-3 1 -37 21q-2 8 6.5 21.5t8.5 19.5v142q-10 7 -30 17q-12 4 -32 14q1 -3 1 16q0 4 7 4
q5 0 24 -4t26 -3q-1 15 0 16q-3 2 -35 11q-24 6 -24 17q0 23 9 25q-4 -1 37 -8q7 -1 15 -1q1 4 0 10q-4 3 -27.5 6t-32.5 14l1 22q2 2 27 2q3 0 12.5 -2t12.5 -2q9 0 7 13q0 30 -13 41q-7 6 -32 11.5t-38 16.5q-1 19 -5 57t-4 39q0 15 31 25q22 7 36 7q3 0 18 -4t18 -4
t16 2.5t16 2.5q2 0 21 -7t29 -8q25 -3 70 -3q3 0 12 2.5t13 2.5q35 0 68 -9q47 -12 47 -36q0 -2 -4 -17.5t-5 -22.5q0 -28 -2 -84q-1 -11 -4 -50q-2 -34 -2 -57v-58q-3 -4 -8 -11q1 -10 -3 -22q-5 -15 -15 -15q-3 0 -26.5 4t-27.5 4q-3 0 -30 -1.5t-30 -1.5
q-22 0 -42.5 18.5t-20.5 39.5q0 -2 5 9t5 29q0 9 -3.5 30.5t-3.5 22.5q0 52 6 73q4 14 35 14q17 0 73 -14q18 -5 25 -25q-6 -3 -20 -3q-7 0 -26 4t-21 4q-3 0 -7.5 -12t-4.5 -17q0 -12 18 -23q14 -9 21 -9q3 0 9.5 3t9.5 3q14 0 32 -29q0 -2 5.5 62.5t6.5 137.5
q-43 14 -53 14q-3 0 -20.5 -1t-20.5 -1q-2 0 -7.5 2.5t-9.5 2.5q-3 0 -7.5 -2.5t-8.5 -2.5q-68 13 -82 13q-50 0 -50 -31q0 -34 23.5 -49t25.5 -57q2 -37 -1.5 -127.5t-1.5 -129.5q1 -30 2 -59q6 -29 40 -29q3 0 19.5 3t19.5 3q2 0 27.5 -5.5t37.5 -5.5q5 3 5 9q0 5 -4 13.5
t-4 10.5q11 40 44 40q3 0 25 -3.5t25 -3.5q2 0 5.5 1t7.5 1q12 0 28 -11t16 -24zM408 132q0 45 -27 45q-15 0 -15 -12q0 -3 5.5 -22.5t5.5 -28.5q11 -6 25 -8q6 18 6 26z" />
    <glyph glyph-name="A" unicode="A" horiz-adv-x="411" 
d="M380 92q0 -27 -24 -27q-8 0 -19 3l-49 -7l-18 6q-5 9 -12 27q4 10 4 20q0 11 -7 63q-6 46 -4 58q-11 4 -42 4q-17 0 -48 -3q-34 -4 -48 -4q1 -12 2 -36q15 -2 29 -5q18 -3 27 -12q11 -28 11 -82q0 -18 -30 -30q-24 -11 -45 -11q-56 0 -56 73q0 26 4.5 32t28.5 20
q-2 3 -8 41q-3 22 -29 29q2 11 13 40q9 25 9 42q0 12 -3.5 38.5t-2.5 40.5q-23 19 -35 105l-14 120q47 66 285 66q27 0 34 -21q10 -33 16 -39l-1 -12q0 -17 14.5 -48t14.5 -48l-17 -38v-312q0 -64 20 -93zM303 461q0 31 -8 42q-9 -3 -9 -22q0 -8 1.5 -25.5t1.5 -26.5
q14 7 14 32zM329 345v29h-11v-30zM328 324v9h-9v-9h9zM259 424q0 22 -5.5 65.5t-5.5 65t-45 35.5q-31 7 -63 14l-39 -8q-3 -19 -3 -30q0 -21 6.5 -64t6.5 -64q0 -9 -13 -49q2 -24 4 -49q3 -29 12 -49q20 -8 37 -8q21 0 41 3q10 1 14 13t10 16q12 4 34 13q9 89 9 96zM130 99
v30q-2 23 -11 23q-10 0 -19 -7t-9 -17q0 -35 27 -35z" />
    <glyph glyph-name="B" unicode="B" horiz-adv-x="512" 
d="M466 323q0 -33 -4.5 -100.5t-4.5 -102.5q0 -26 -3 -35q-5 -15 -23 -26l-19 5q-43 0 -128 -5t-128 -5q-20 0 -27 35t-16 34q-28 -5 -22 -5q-60 0 -60 80q0 9 -4.5 27.5t-4.5 26.5q0 12 25.5 19.5t28.5 19.5q-9 12 -9 49q0 16 2 45t2 37q0 148 -22 295q13 8 26.5 16.5
t26.5 8.5q23 0 58 -20q37 -23 37 -42q0 -5 -2 -14t-2 -14l3 -11q15 0 45.5 4t45.5 4q63 0 74 -49q5 -47 10 -95q7 -27 7 -71q0 -42 -6 -87l13 1q25 2 32 2q41 0 49 -27zM419 146q0 15 -4.5 42.5t-4.5 41.5q3 6 3 16q0 25 -6 41l4 13q-4 3 -38 3q0 -20 -1 -53q-2 -39 -2 -53
q0 1 7 -91q13 -2 37 -5q5 31 5 45zM340 158v110q0 16 -15 47l-37 1q-7 0 -21.5 -4t-21.5 -4q-35 0 -44 2q-29 5 -29 26q0 9 13 15t23 6l11 -7l27 7l24 -2q13 3 37 13q3 38 3 34q0 38 -9 113q-11 97 -26 97q-54 0 -85 -14q-11 -97 -11 -160q-12 -18 -36 -30q-13 -7 -13 -41
q0 -11 10 -34q-10 -23 -10 -51l4 -15q3 -6 22 -13q14 -6 14 -23l-10 -53l10 -29l-10 -21q0 -37 50 -37q18 0 60 5t65 5q5 43 5 57zM125 163v50q0 10 -14.5 20.5t-24.5 10.5q-16 0 -22 -8q0 -17 2 -49q2 -27 33 -27q5 0 13.5 1.5t12.5 1.5z" />
    <glyph glyph-name="C" unicode="C" horiz-adv-x="426" 
d="M351 629l1 -10q0 -8 -10 -21q-1 -1 -14 -1q-3 0 -3 3q0 1 3 15q3 11 1 17q-1 3 -7 3q-6 -1 -7 0q-3 -13 -12 -36q-2 -3 -10 0q-9 4 -10 4q4 19 0 33q-7 2 -55 2q-39 0 -68 -15q-35 -18 -35 -52q0 2 13 -52q6 -22 10 -60q4 -49 6 -61q-3 -12 -2.5 -39t-3.5 -40
q-14 -15 -14 -38q0 -6 2.5 -19t2.5 -20q0 -9 -2 -25t-2 -24q0 -24 19 -39q42 -2 50 -12q10 -19 21 -37q16 0 51 3q9 0 30 2q16 0 39 -2.5t36 -2.5q7 -28 2 -31q-14 -9 -153 -7q-10 -23 -29 -25.5t-38 -4.5q-7 -2 -21 -12q-6 -4 -46 -4q-34 0 -48.5 13.5t-14.5 47.5
q0 54 27 76t27 65q0 53 -9 70q-6 11 -25 13q-22 3 -34 14q-8 118 -8 134q0 76 15 123q18 58 66 100q84 13 137 13q24 0 30 -2h25q6 21 2 30q0 5 4 6q3 1 11 -0.5t11 -1.5l6 -43q7 -4 8 -1q2 6 3 24q0 15 2 15q21 0 22 -1v-24q0 -16 19 -18q-14 1 31 1q6 0 7 -18t-5 -24.5
t-54 -3.5zM200 79l-4 28l-20 11l-2 -48zM121 114q0 7 -2 13q-4 2 -16 2q-26 0 -26 -12v-25q0 -22 4 -31q12 0 36 -1q4 49 4 54z" />
    <glyph glyph-name="D" unicode="D" horiz-adv-x="435" 
d="M413 159q0 -12 -11 -37q-15 -8 -35 -29q-11 -33 -35 -33q-3 0 -16.5 3.5t-16.5 3.5t-24.5 -5t-24.5 -5q-15 0 -41 16q-9 4 -20 16q-17 3 -32 6t-37 13q-2 1 -29 5q-17 3 -28 20q0 4 3.5 12.5t3.5 13.5q0 6 -5 12q-9 9 -26 10q-6 6 -13 20q-5 33 -5 127q0 -1 3 31t2 47
q-2 44 6 48l28 12q10 6 10 26q0 9 -1 34q-2 30 -2 58q0 2 -3 7t-3 7q0 5 3 16t2 16q-13 17 -13 28q0 21 8 41q11 27 28 27q34 0 43 -17.5t38 -17.5q3 0 29 1t29 1q1 0 30 -3.5t44 -4.5q29 -33 77 -88q0 -1 16 -12q9 -8 10 -16q5 -66 2 -100q-4 -49 -4 -38v-104q0 -3 5 -27.5
t5 -28.5v-112zM353 580q-14 17 -69 61h-14q7 -14 77 -66zM344 226q0 52 -4 84q-2 12 -2 25q0 11 2 36t2 40q0 34 -7 69q2 11 3 27q-1 14 -22 34l-28 24q-28 28 -79 75q-13 12 -44 12q-7 0 -26.5 -5.5t-20.5 -8.5q1 -11 -2 -27q-11 -18 -8 -94q-3 -12 -3 -10v-37l32 -30
q27 -30 27 -48q0 1 -7 -8q-1 -74 -11 -155q-4 -31 -10 -44q-4 -9 -21 -11q-13 -1 -13 -18q39 -27 71 -27q17 0 30 12q18 16 20 17q11 5 59 17q30 7 59 16q0 6 1.5 19t1.5 16zM97 340q0 87 -19 87q-8 0 -14 -12.5t-6 -21.5v-149q0 -12 5 -29q22 6 29 6q0 3 2.5 58.5t2.5 60.5
z" />
    <glyph glyph-name="E" unicode="E" horiz-adv-x="478" 
d="M453 128q-25 -45 -49 -89q-18 -21 -78 -21q-35 0 -45 6q-92 -15 -95 -15q-7 0 -41 14l-10 19q9 15 9 41q0 40 -10 80q-9 4 -35 4q-18 0 -18 38q0 13 2 34t2 25v2l-16 -3l-25 11q-8 71 -8 83q0 8 1.5 22.5t1.5 18.5q0 1 25 13q14 7 14 22l-10 27l10 37q0 115 -20 149
q-33 13 -34.5 15t-1.5 29q0 10 -6 24q13 35 32 35q4 0 14.5 -1t18.5 -1q43 0 126.5 11.5t120.5 11.5q18 0 33 -20q12 -18 23 -35q-8 -21 -8 -40q0 -10 2.5 -29.5t2.5 -29.5q0 -20 -30 -31q-21 -8 -46 -8q-10 0 -21 20q-14 28 -22 37q-17 19 -47 19q-17 0 -48 -4
q-34 -6 -48 -6l-9 -17q9 -109 9 -105q0 -23 -4 -37q13 -41 15 -66q9 -7 35 -7q2 0 23 -6q5 -18 3 -41h23q39 -1 51 9q4 3 8 18q2 11 20 11q19 0 16 -33q60 -8 60 -40l-22 -19l-33 18l-24 -8l-31 10q-13 -7 -48 -7q-19 0 -31 -61q-8 -45 -8 -78q0 -75 20 -128q82 0 94 28l8 4
q32 -5 36 -5q39 0 56 18q6 6 16 34q6 17 23 17zM152 323q0 56 -43 56l-31 -10v-18q-1 -36 10 -36h40z" />
    <glyph glyph-name="F" unicode="F" horiz-adv-x="501" 
d="M469 606l-12 -13q0 -19 -9 -22h-25q-10 0 -33 -6.5t-34 -6.5l-19 1q-10 9 -14 32q-9 5 -26 17l1 35q2 36 -11 48.5t-50 12.5q-17 0 -64 -10q-51 -11 -57 -18q5 -5 7 -16q-7 -13 -13.5 -27t-6.5 -29q0 -9 4 -14q32 -13 31 -43q-4 -24 -10 -74q9 -9 71 -9l42 10l22 -8
q9 -24 18 -79l-8 -20q-12 -6 -36 -14l-15 8l-13 -3q-14 0 -23 9t-17 19h-34q-3 -12 -2 -28q3 -25 3 -27l-4 -4q4 -27 4 -36q0 -32 -42 -48v-51q16 -2 37 -56q-16 -25 -16 -56v-14q1 -9 1 -12q0 -15 -10 -19q-3 -1 -30.5 -3t-30.5 -1q-15 96 -15 103q0 26 14.5 45t14.5 29
q0 33 -10 46q-4 6 -20 12q-12 4 -14.5 18t-0.5 31q2 16 5 32q2 12 4 40q0 3 -3 38q-1 9 -6 49q-4 26 -4 56q0 43 52 48l-2 48q-1 23 -1 37q1 5 4 21q3 12 0 21q-6 26 -6 19q0 9 13 15t27 12.5t33 10.5q7 2 64 2q33 0 99 3.5t100 3.5q15 0 26 -4q20 -6 35 -24.5t15 -32.5
v-104zM424 652q-2 16 -5 32q-3 20 1 31l-14 9l-8 -5l-15 7q-20 0 -59 -6q8 -12 11 -37q3 -29 6 -38q28 2 83 7zM426 602v7l-68 -7l15 -7zM103 395q-4 23 -11 76q-2 24 -1 67h-31l-6 -17q0 -32 4 -97t4 -98q0 -29 15 -29l14 2q13 61 12 96z" />
    <glyph glyph-name="G" unicode="G" horiz-adv-x="547" 
d="M514 105q0 -3 -2 -8t-2 -7q2 -23 -2 -67q-3 -12 -31 -11q-3 0 -16 1.5t-16 1.5q-2 0 -98 -8q-7 3 -14 78q0 2 -4.5 7t-4.5 8q0 10 8 19q9 13 25 10q16 3 33 5q10 3 11 20v14h-29q-3 0 -19 -5t-19 -5t-13 2.5t-13 2.5t-60.5 -7.5t-60.5 -7.5q-9 0 -41 7q-36 9 -39 15
t-10 21q-3 10 0 45q3 25 -12 35q-15 3 -40 13q-11 9 -11 19v38q0 8 11 8q3 0 10 -1t11 -1q11 0 17 5q0 1 3 13q3 10 0 10t-24.5 3t-24.5 3q-14 0 -14 13q0 5 3.5 20t1.5 20q24 1 55 8q-1 3 -3 26q-28 5 -55 14v26q0 24 5 38q4 11 24 11q3 0 12.5 -1.5t12.5 -1.5q14 0 16 45
v54q8 10 27 22q17 0 51.5 2.5t105.5 13.5q65 10 66 10q3 0 6 -2.5t6 -2.5q33 0 35 13.5t18 13.5q15 0 16.5 -8t3.5 -17q6 0 9 -2q0 1 5 23q4 14 22 14q12 0 25 -13q-3 -23 -3 -39q0 -17 3 -29t3 -14q0 -7 -8 -14t-15 -7q-16 0 -22.5 18.5t-7.5 18.5q-8 0 -8 -9q0 -4 2 -13
t2 -14q0 -18 -21 -18q-20 0 -20 19q0 3 1 8v8q0 19 -20 19q-33 0 -153 -13q-3 -1 -13.5 -5t-13.5 -4t-5 1t-5 1q-38 0 -38 -37q0 -2 6.5 -11.5t6.5 -14.5q3 -34 5 -103q0 -11 -3 -36t-3 -38q0 -8 4.5 -28.5t4.5 -31.5q-3 -68 -2 -103q-2 1 44 1q3 0 37 6t37 6t4.5 -1t4.5 -1
t30.5 7t30.5 7q2 0 18.5 -1t26.5 -1q1 31 -2 93q-1 -1 -19 -14q-13 -10 -25 -10q-3 0 -17.5 2.5t-17.5 2.5t-11.5 -2.5t-11.5 -2.5q-5 0 -37 13q2 10 -1 34q-4 30 -4 33q0 15 40 24q29 7 55 7q3 0 21.5 -12t21.5 -12t8.5 2t7.5 2q6 0 17 -6.5t13 -13.5q4 -17 2 -52
q-3 -69 6 -113q42 0 42 -19q0 -27 -36 -24q-16 2 -16 -15q0 -3 4 -14q5 -14 6 -22q3 0 13 -2t13 -2t5 2.5t5 2.5q10 0 20.5 -10.5t10.5 -20.5zM346 370q1 3 1 5q0 8 -10.5 14t-16.5 6q-23 0 -23 -16q0 -4 1.5 -7t1.5 -4q7 0 23.5 1t22.5 1zM474 82q0 14 -27 14
q-3 0 -22 -3.5t-22 -3.5t-7 2t-7 2h-16v-28q0 -16 41 -16q14 0 58 11q0 3 1 11.5t1 10.5z" />
    <glyph glyph-name="H" unicode="H" horiz-adv-x="426" 
d="M395 614q0 -16 -24 -26q-1 -6 -2 -22.5t-1 -25.5q0 -89 10 -139q-3 -6 0 -294l-17 -28q-16 0 -27.5 10.5t-7.5 26.5l10 40q0 23 -2 65q-1 46 -2 64l-15 11q-17 0 -54 -3t-56 -3q-31 0 -54 6v-29q0 -35 1 -40q2 -10 -1 -28q5 -6 10 -19q-6 -24 -6 -101q0 -40 -38 -40
q2 0 -39 3l-13 -5q-19 5 -29 10l1 88q0 9 -3.5 16.5l-3.5 7.5q0 35 51 26q-3 78 -3 220q0 18 -5 48q-7 43 -8 49q-5 42 -9 41l-16 -5l-19 11q0 22 -3 69.5t-3 71.5q0 34 4 47q9 26 34 26q16 0 53 -22q42 -5 43 -24q-8 -18 -7 -25q3 -19 3 -22q0 -27 -6 -80q6 -18 6 -44
l1 -187q0 -20 41 -21l103 -3q18 0 44 14q1 80 -4 237q-1 11 -30 16q-4 -3 -11 -3t-14.5 10t-7.5 17q0 17 43 23l26 -8l10 3q13 0 30 -9t17 -21zM109 653q0 8 -1.5 25t-1.5 25q-17 0 -49 2q0 -11 -1.5 -34.5t-1.5 -35.5q0 -43 13 -43h28q6 0 10 27q4 21 4 34zM118 118
q0 17 -3 27q-14 -2 -26.5 -4.5t-12.5 -21.5q0 -8 6 -23t12 -15q24 0 24 37z" />
    <glyph glyph-name="I" unicode="I" horiz-adv-x="495" 
d="M481 716q0 -19 -26 -19q-8 0 -21.5 2t-16.5 2q-23 0 -23 -18q0 -5 2 -17t2 -18q0 -19 -35 -19q-10 0 -28 1.5t-22 1.5q-40 0 -48 -3q-21 -7 -21 -37q0 -16 5.5 -45t6.5 -42q4 -104 4 -279q0 -42 8 -71q14 0 41.5 4t40.5 4q15 0 37 -25q4 -1 23 -8q14 -6 24 -6q6 0 12 -2
q6 -7 14 -25q2 -5 2 -10q0 -20 -17 -42q-11 -2 -37 -5q-48 -2 -63 4q-6 2 -9 23q-3 17 -35 17q-25 0 -29 -6.5t-4 -30.5q0 -13 -16 -13q-21 0 -21.5 23.5t-13.5 23.5t-66 -24q2 -30 -31 -30q-58 0 -75 13q-8 40 -8 58q0 55 47 55q7 0 23.5 -1.5t25.5 -1.5q4 0 84 6q3 3 3 57
q0 77 -11 229t-11 229q0 11 -3 20q-10 -1 -72 -10q-45 -7 -73 -7t-28 19q7 16 13 24q21 -1 59 2q22 7 64 16q64 8 182 8q2 0 20 1t31 1q90 0 90 -29zM355 672l-7 21l-14 -2l-24 7q-36 0 -73 -20q8 -17 36 -17q26 0 82 11zM419 81l-2 12q-27 5 -32 5q-11 0 -14 -19
q13 -5 25 -8q16 6 23 10z" />
    <glyph glyph-name="J" unicode="J" horiz-adv-x="463" 
d="M410 354q0 -16 -15.5 -27.5t-31.5 -9.5q0 -6 2 -22t2 -19v-130q0 -37 -37.5 -71t-72.5 -30q-33 -3 -100 -9q-4 -7 -16 -16q-29 -7 -54 -7q-31 0 -50.5 25t-19.5 51q0 37 33 37q57 0 79 -10q6 -3 10.5 -17t8.5 -18t27 -4q72 0 100 18q40 24 40 97q0 6 -3 18t-2 20
q0 4 7 33q4 19 4 46q0 16 -26 25t-26 21l15 66q0 10 -12 75q-11 62 -14 71q-14 19 -32 58q3 9 2 27q-14 6 -41 17l-52 10q-38 8 -38 27q0 8 9.5 15.5t19.5 7.5q4 0 56 -8t56 -8q32 0 64 -3q13 -1 39 -5q22 -4 27 -4t41 -43q1 -40 -3 -105q-3 -70 -3 -96q0 -9 3.5 -56z
M109 65q0 10 -6.5 19t-13.5 6q-13 -5 -12 -20q1 -18 20 -18q12 0 12 13z" />
    <glyph glyph-name="K" unicode="K" horiz-adv-x="515" 
d="M497 605q0 -8 -7 -17q-14 -2 -16.5 -19t-16.5 -17q-3 0 -9.5 3t-9.5 3q-16 0 -16 -11q0 -5 4.5 -17.5t4.5 -18.5q0 -12 -19 -12q-11 0 -18 12t-13 12q-18 0 -53 -16q-1 -9 -3.5 -32.5t-2.5 -30.5v-165q7 -6 19 -28t23 -29q85 -19 85 -59q0 -9 -3 -24q-4 -18 -4 -22
q20 -41 20 -61q0 -7 -6 -14t-13 -7q-10 0 -20 24t-34 24q-3 0 -10.5 -1t-10.5 -1q-7 0 -26 6.5t-19 10.5q-6 25 -6 73q0 4 4.5 15t2.5 17q-6 17 -34 52t-32 43q-28 58 -33 62t-53 4q-9 0 -9 -16q0 -9 12 -26q1 -6 -2 -21.5t-3 -24.5q0 -62 2 -110q0 -21 7.5 -67.5t7.5 -47.5
q0 -13 -4 -16q-49 -32 -65 -32q-29 0 -30 25q3 21 4 59q-3 40 -7 80.5t-23 100.5q-2 6 -9 7q-11 2 -14 3.5t-9.5 14.5t-6.5 17q0 -6 2 51q2 52 1 72q13 14 25 14q4 0 14.5 -4t13.5 -4q11 0 17 48q5 35 5 60q0 -1 -2.5 22t-1.5 35q-15 8 -53 16q-16 4 -16 25q0 16 8 65
q10 61 19 61q3 0 14 -4t14 -4t9.5 1t9.5 1q12 0 35 -10.5t27 -17.5q1 -7 2 -21q1 -10 7 -30t6 -23q0 -15 -9 -80q-1 -10 -24 -15q-4 -10 -10 -53.5t-6 -55.5q0 -13 12 -34q14 -26 30 -26q4 0 35 5.5t34 5.5t8.5 -1.5t9.5 -1.5q29 0 29 32q0 6 -2 20q-1 12 0 17q-1 20 2 59
q1 7 11 14q30 2 61 13q-11 10 -11 19q0 6 6 14.5t13 8.5t17 -6q14 -7 32 -11q0 5 -7 14.5t-7 10.5q0 10 3 19t9.5 14t6.5 21q0 3 -5.5 26t-5.5 26q0 11 13 21t23 10q18 0 31 -11q10 -8 19 -16v-117zM413 149q0 2 -15.5 16.5t-21.5 14.5q-13 0 -16 -27v-29q14 -6 16 -6
q12 0 24.5 8t12.5 23zM127 334q2 26 -13 48t-33 22q-21 0 -21 -48q0 -7 8 -12q12 -1 59 -10z" />
    <glyph glyph-name="L" unicode="L" horiz-adv-x="495" 
d="M442 36q0 -7 -16 -11t-21 -2q0 14 -6 41q-1 -1 -8 -1q1 -13 -2 -33q-3 -7 -17 -7q-2 0 -7.5 18t-7.5 18q-35 0 -94 -18t-99 -18q-2 0 -16 4t-17 4q-4 0 -22 -4t-21 -4q-15 0 -20.5 7t-5.5 23q1 20 -0.5 24t-6.5 14q-4 7 -4 11q0 8 22 20q27 14 30 16q-1 2 -1 42
q0 34 -5 40t-25.5 12t-25 15.5t-2.5 32.5q4 39 4 54q0 25 -4 73t-4 47q0 62 32 110q0 9 4 26q-11 5 -15 26q-10 4 -31 19q0 6 3.5 22t3.5 22q0 9 -2 28t-2 29q20 15 25 15q3 0 9 -4t10 -4q3 0 13 6.5t14 6.5q47 0 47 -89q0 -27 -7 -42q-3 -8 -20 -14q-2 -6 -2 -14t4 -24
t4 -23q0 -6 -1.5 -11.5t-9.5 -16.5t-8 -14q0 -16 30 -51.5t31 -35.5q6 -53 6 -130q0 -8 -21.5 -29t-21.5 -49q0 -6 7.5 -46.5t9.5 -44.5l-3 -24q5 -3 19 -19q9 -10 18 -10h16q2 0 58 14q63 16 90 21q-3 15 -4 41q2 8 20 8q1 0 23 -43q3 -1 6 3t5 24q1 16 4 16q22 0 22 -1
q16 -40 16 -116zM110 664v18q-14 15 -28 20q-5 -5 -6 -19q-1 -13 3 -18q31 0 31 -1zM127 82l-18 9q-13 -2 -13 -19q0 -11 7 -14q7 -4 15 9q4 7 9 15z" />
    <glyph glyph-name="M" unicode="M" horiz-adv-x="729" 
d="M700 141q0 -3 -4.5 -18t-4.5 -21q2 -22 -1 -60q-6 -20 -32 -20q-4 0 -18.5 2t-19.5 2q-3 0 -30 -3.5t-31 -3.5q-6 0 -18 8.5t-12 14.5q-1 9 4 69q0 2 -1 34q-1 18 7 26t39 7q28 -1 28 6q7 149 0 264q-4 51 -13 156q-14 11 -40 8q-31 -3 -41 1q10 -80 10 -76
q0 -17 -11 -24l-56 -30q-36 -23 -46 -55q-4 -13 -7 -99.5t-1 -116.5q1 -20 -16.5 -33t-35.5 -13q-9 0 -20 10.5t-11 16.5q0 3 4.5 13.5t5.5 17.5q0 7 -3.5 18.5t-3.5 14.5q0 268 10 316q3 13 21 21q30 11 31 11q7 12 7 32q0 21 -15 28q-23 10 -147 10q-9 0 -61 -15
q4 -13 19 -18q12 -5 12 -19q0 -3 -6.5 -15t-8.5 -20q-10 -50 -10 -128q0 -3 6.5 -134t6.5 -135q0 -14 -2 -18q-2 -7 -16 -12.5t-16 -12.5q-5 -16 -6 -43q1 -22 1 -45q-13 -13 -23 -13q-30 0 -21 76q-6 9 -30 29q-20 16 -20 25q-3 111 -10 289q-8 138 -8 121q0 35 14 51
t53 18q1 3 -1.5 10t-2.5 11q0 7 7 20.5t12 16.5l36 3q32 5 65 10q68 8 180 8q7 0 22.5 -11t18.5 -22q2 -8 0 -18q35 -15 50 -15h109q8 0 29 -16.5t22 -20.5q-1 -28 0 -90q0 -43 2 -129q5 -91 6 -186q-1 -15 6 -40q4 -4 25 -14q12 -6 12 -32zM622 106q-5 13 -17 13
q-14 0 -17 -15q-2 -7 6 -14.5t17 -7.5q8 0 11 8t0 16zM132 224q-1 84 -5 219q-2 101 -1 153h-21q-10 -14 -10 -98q0 -17 5 -110q-1 -71 5 -155q2 -4 27 -9z" />
    <glyph glyph-name="N" unicode="N" horiz-adv-x="504" 
d="M487 56q0 -23 -27 -27q-37 -6 -45 -12q-64 0 -64 73q0 27 16 64.5t38 49.5q8 18 8 35q0 20 -5 56q-5 40 -6 57q-5 113 -8 149q-9 84 -29 147q-9 26 -40 26q-9 0 -26 -2.5t-25 -2.5q-10 0 -30.5 3.5t-30.5 3.5q-28 0 -37 -16q-5 -11 -5 -42q0 -21 25.5 -83.5t40.5 -82.5
l-11 -39q-8 -7 -26 -9h-3q-3 0 -15 -9t-17 -11l-14 -11q-7 -45 -15 -135q37 -29 37 -66q0 -27 -11 -58q-15 -40 -36 -40q-40 0 -57 4q-23 6 -49 26q6 39 6 80q0 46 19 58q10 5 49 5q4 0 7 11q9 31 11 119q-3 4 -16.5 10t-15.5 16q-1 8 0 23q2 19 2 22q0 14 -8 39.5t-9 36.5
q0 24 -2 72q-1 14 -7 43.5t-6 45.5t34 43q0 8 1 24q10 6 30 13q7 -2 70 -30q51 -22 60 -22l34 8q10 -4 47 -7q33 -2 78 -26q20 -91 32 -235q4 -53 45 -279q-3 -13 -3 -27q0 -15 4.5 -45.5t4.5 -45.5zM129 167q0 40 -31 40q-9 0 -23 -6q-10 -57 -10 -55q0 -28 28 -28
q24 0 31 13q5 8 5 36z" />
    <glyph glyph-name="O" unicode="O" horiz-adv-x="475" 
d="M438 115q-8 -21 -15 -31q-25 -5 -77 -20l-76 6q-17 0 -45.5 -5.5t-26.5 -5.5q-10 0 -47.5 15.5t-42.5 22.5q-20 27 -20 164q0 41 2 103.5t2 72.5q0 88 -13 95q-49 5 -49 92q0 25 9 51q12 31 31 35q29 -6 57 -12q35 -9 46 -28q28 3 82 14q9 11 18 16l22 4q40 0 87 -25
q54 -29 51 -64q-4 -57 -4 -49q0 -31 4.5 -93t4.5 -93q0 -26 -9 -33q-2 -2 -34 -15v-29l25 -12.5t13 -20.5q0 -9 -2.5 -25.5t-2.5 -24.5q0 -41 10 -105zM120 587q-3 14 -8 58q-4 0 -14 1.5t-14 1.5v-58q6 0 18 -1.5t18 -1.5zM339 305v30q-5 9 -23.5 16t-24.5 13q11 39 11 55
q0 10 -5 22.5t-5 18.5q-3 20 -6 39q-2 19 1 38l6 35q-16 10 -34 35q-67 20 -69 20q-16 0 -22 -36q-6 -40 -25 -48q-9 -28 -9 -65q0 -17 2.5 -51t2.5 -51q0 -23 -2.5 -72.5t-1.5 -74.5l-4 -7q0 -79 14 -98q26 -1 53 -14l20 5l19 -5l48 10l22 -5q0 15 1 44t1 44q0 13 -3 39
t-3 39q0 17 12 19.5t24 4.5z" />
    <glyph glyph-name="P" unicode="P" horiz-adv-x="463" 
d="M438 367q0 -12 -29 -36q-3 0 -6 3t-6 3q-22 -12 -72 -12q-17 0 -46.5 1.5t-40.5 1.5q-21 0 -28 -3q-11 -5 -11 -23q0 -31 -1.5 -91t-1.5 -89q0 -21 2 -39q5 -6 24 -17v-29q-8 -13 -23 -13q-3 0 -17.5 -1.5t-17.5 -1.5q-11 0 -25.5 -4t-25.5 -4q-21 0 -28 39q19 20 35 16
q13 2 13 11q0 208 -14 287l-19 4q-10 2 -11 8t-2 14q0 40 -8 122q-4 21 -22.5 35t-20.5 24q-4 23 -2 61q2 63 2 62q0 5 -3.5 16t-3.5 16q0 26 36 26q21 0 34.5 -7t22.5 -8q10 1 33 0q5 -1 13 -6.5t13 -5.5t13 3t13 3q6 0 19.5 -3t20.5 -3q23 0 75.5 10.5t61.5 10.5
q48 0 48 -151q0 -13 -8 -28.5t-8 -29.5q0 -104 10 -147q1 -3 6.5 -12t5.5 -13zM381 647q-3 10 -3 32h-38l-4 -19q2 -4 12.5 -10t14.5 -6q8 0 18 3zM384 385q-16 121 -18 193l-7 -1q-32 0 -53 34q-16 26 -22 64q-14 7 -30 7q-11 0 -33.5 -1.5t-32.5 -1.5q0 -7 -2 -20t-2 -20
q0 -51 13 -132q15 -104 18 -131l31 -1q14 0 39 3t36 3q4 0 11.5 -2.5t11.5 -2.5q21 0 40 9z" />
    <glyph glyph-name="Q" unicode="Q" horiz-adv-x="533" 
d="M516 97q0 -16 -31 -46t-38 -30q-1 0 -32 20q16 16 16 22q0 7 -37 47q-41 45 -44 50q-14 -2 -42 0q-35 3 -43 3q-38 0 -118.5 -6.5t-77.5 -6.5q-13 0 -35.5 15.5t-22.5 31.5v293q0 12 7.5 48t9.5 38q21 27 58 79q3 11 7 22q5 16 17 19q50 14 71 14q4 0 22.5 -3.5t22 -3.5
t50.5 -3.5t51 -3.5q12 0 71 -8q12 0 34 -9q18 -14 18 -28q0 1 -5.5 -47t-6.5 -73q-5 -95 -11 -284q-1 -14 -5 -43.5t-4 -31.5q0 -15 10 -15q4 0 15.5 -23.5t15.5 -23.5q11 0 30 18q8 -4 16 -7q11 -8 11 -24zM277 635v24l-71 13l-10 -23zM320 488q0 19 -6 60q-9 54 -20 54
q-4 0 -21 -9.5t-20 -9.5q-4 0 -10.5 3.5t-10.5 3.5t-17.5 4.5t-17.5 4.5t-11.5 -1.5t-10.5 -1.5q-13 0 -21 12q-2 5 -12 29q-10 -7 -23 -20q-7 -14 -7 -43q0 4 1 -58q1 -86 2 -241q0 -25 13 -71q35 7 47 7q-2 15 7 124q2 22 21 27h27q4 0 30 -1.5t30 -1.5q14 0 24 10
q0 23 3 71zM264 309q-15 11 -21 11q-9 0 -15 -22q-4 -16 -4 -28q0 -31 12 -31q10 0 22 19t12 35q0 11 -6 16zM76 289q3 27 3 63q0 110 -13 162q0 -19 -7.5 -77t-7.5 -93q0 -45 9 -82q1 -9 8 -28q3 -3 5 -3q4 0 3 22q-1 31 0 36z" />
    <glyph glyph-name="R" unicode="R" horiz-adv-x="481" 
d="M454 122q0 -21 -27 -21q-12 0 -25.5 15t-17.5 15q-3 0 -21 -11t-22 -11q-3 0 -17 15q-17 17 -26 23q-7 1 -22 7q-17 14 -17 26q0 3 13.5 20.5t13.5 20.5q0 15 -57 73q-54 55 -59 55q-13 0 -34 -32q-1 -1 -8 -3.5t-12 -5.5q0 -2 -1.5 -7.5t-1.5 -9.5q0 -2 2.5 -31t2.5 -47
q1 0 14 2q10 1 16 -0.5t6 -8.5q0 -15 -4 -18q-11 -3 -21 -5q-13 -3 -13 -16q0 -14 9.5 -16t18.5 -2q13 -1 13 -16t-5 -18q-13 -8 -31 -5v-18q8 -4 18 -8.5t10 -13.5q0 -8 -9.5 -11.5t-19.5 -7.5q-3 -5 -8 -14q-4 -5 -11 -5q-4 0 -11 8.5t-9 10.5q-7 1 -22 4q-9 4 -9 17
q0 12 9 14q17 5 21 9q1 6 -2 16q-11 1 -26 9q-2 3 -2 12q0 10 3 12q10 0 24 5q2 4 2 30q0 3 -14 4t-14 4q0 24 5 26.5t13.5 1t8.5 0.5q0 1 -5 57t-6 77q-1 50 -11 147q0 10 -4 33q-8 26 -9 49q-2 35 -2.5 40t-6.5 20t-6 19q0 13 15 24q-2 5 -2 9q0 19 35 30q26 8 50 8
q3 0 58.5 -8t59.5 -8q3 0 22 5.5t22 5.5q20 0 39 -10q6 -8 20 -24v-114q0 -35 -53.5 -107.5t-81.5 -82.5q10 -27 107 -113q3 0 21.5 8t22.5 8q14 0 35 -18q29 -26 36 -30q0 -4 3 -16.5t3 -16.5q0 -3 -9.5 -16.5t-9.5 -16.5q0 6 3 -8q30 -32 30 -44zM218 633q0 4 -6 19.5
t-6 21.5q-6 5 -19 5q-54 0 -54 -84q0 -9 1 -26q1 -14 0 -18q-15 -178 -15 -160q0 -11 4 -17q24 25 63 75q22 37 22.5 55.5t5 67.5t4.5 61zM385 213q0 17 -20 17q-10 0 -26 -17.5t-14 -28.5q23 -11 22 -11q5 0 21.5 16t16.5 24z" />
    <glyph glyph-name="S" unicode="S" horiz-adv-x="440" 
d="M432 607q0 -17 -41 -22q-1 -8 3 -13q0 -9 1 -28l-5 -7q5 -14 3 -21l-7 -9l-19 -4q-10 0 -31.5 1.5t-31.5 1.5q-36 33 -39 46q5 15 5 39q0 7 -9 23q0 21 23 28q20 5 39 11q-16 21 -21 21q-4 0 -15 -3l-31 10l-48 -6l-10 -9q-32 8 -49 8l-28 -4l2 -32q1 -20 8 -32
q3 -6 28 -29q17 -15 17 -38q0 -67 -15 -96l-40 -8q-28 -6 -28 -21q0 -37 29 -37q11 0 34.5 2.5t35.5 2.5q17 0 55 12.5t55 12.5q44 0 60 -8q29 -17 38 -148q3 -86 7 -172q-18 -12 -46 -14q-24 -1 -49 -2l-13 -7l-38 1q-17 0 -50 -1.5t-49 -1.5q1 -27 -21 -27q-18 0 -18 35
q-37 0 -41 -3q-26 9 -26 21q0 21 27 21q6 0 17.5 -1.5t15.5 -1.5v22q1 10 13 10q9 0 20 -2q3 -4 3 -17t22 -13h49q9 0 49 4q29 2 50 -1q14 3 28.5 7t14.5 19q0 13 -5 34q-7 25 -8 34q-13 9 -44 12q-20 2 -35 31q-6 50 -8 55q-10 23 -47 23q-4 0 -14.5 -5t-13.5 -5
q-17 0 -22 12t-10 12q-39 0 -52 -19q-7 -10 -10.5 -43.5t-15.5 -50.5q-13 4 -16 5q-8 3 -12 10q0 1 -4 45q-2 19 -12 89q-9 59 -9 83q0 26 35 22v5q0 13 -3 36.5t-3 34.5q0 12 5 35.5t5 34.5q0 21 -12 86q22 20 164 20q34 0 54 -5q11 2 22 2q33 0 53.5 -19.5t17.5 -54.5
q29 0 36 3q14 0 22.5 -13.5t8.5 -28.5zM352 555v17q0 9 -6 18t-15 9h-13l-2 -12q1 -12 8 -34q11 3 28 2z" />
    <glyph glyph-name="T" unicode="T" horiz-adv-x="558" 
d="M529 671q0 -10 -19 -19q-15 -7 -22 -7q-1 0 -18.5 4.5t-26.5 4.5q-21 0 -65 1h-64q-17 -5 -20 -33q-1 -8 -2 -50q0 -23 -2 -103.5t-2 -105.5q0 -43 2 -69q0 -1 -1 -16q-1 -13 0 -22q2 -12 7 -16l20 1q16 1 17 -4q3 -17 1 -19q-10 -7 -36 -7q0 -1 1 -9v-12q2 -2 24 -3
q18 -2 18 -12q0 -13 -6 -18t-21 -2.5t-17 -3.5q9 -24 -5 -37q-9 0 -24 -2q-11 -2 -15 35q-3 4 -10 4h-11q-3 1 -3 3v25q8 1 21 6q3 3 1 9q-3 9 -3 10q-8 1 -16 3q-3 5 -2 14q2 13 2 10q0 2 11 3q5 0 6 3q-1 -3 -1 66q0 13 -4 24q-22 -62 -26 -76q-5 -20 -7 -58q0 -16 2 -48
q-1 -17 3 -47q4 -7 30 -7q2 0 37 1.5t38 1.5q20 0 23 -2q13 -5 16 -32q-25 -16 -32 -16q-3 0 -18 3.5t-18 3.5t-49.5 -5t-49.5 -5q-18 0 -20 39v42q-1 26 -1 45q1 47 -2.5 66t-3.5 26q0 5 15.5 35t15.5 32q3 18 11 37q4 11 2 35q-3 36 -3 38q0 39 6 118t6 76q0 27 -8.5 34
t-34.5 7q-12 0 -20 -20.5t-32.5 -21.5t-54 -10l-29.5 -9q-8 0 -16.5 9.5t-8.5 18.5q0 1 7 37q7 40 10 69q1 6 12.5 11.5t15.5 5.5q3 0 12.5 -4.5t13.5 -5.5q21 -1 64 -7q2 -9 11 -25q8 -8 44 -8q3 0 24 4t25 4t4.5 -1.5t1.5 -1.5q8 0 26 -4.5t25 -5.5q83 -6 151 -6
q2 0 6.5 3t7.5 3q18 0 33 -8q20 -10 20 -27zM116 708q-18 6 -28 6q-15 0 -18 -18l-4 -24h24q4 -1 12.5 2t10.5 3q-1 16 3 31z" />
    <glyph glyph-name="U" unicode="U" horiz-adv-x="463" 
d="M433 59q0 -30 -42 -38q-16 -3 -64 -3q-12 0 -38.5 4.5t-38.5 4.5q-11 0 -32.5 -3t-32.5 -3q-42 0 -81 7q-24 15 -27 25q-2 4 -2 37q0 15 -15 29q-21 22 -24 25q2 17 2 47q0 34 -3 103t-3 104q0 17 2.5 51.5t2.5 50.5t25 21.5t25 21.5q0 27 -24 27h-5.5h-5.5q-32 0 -32 45
q0 14 2 46t2 49q6 7 57 17q46 8 63 8q34 0 34 -51q0 -12 -2.5 -34.5t-2.5 -28.5q0 -9 12 -32q0 -7 -13.5 -30t-13.5 -28v-6q0 -2 0 -1q15 -11 15 -35q0 -39 -10 -175q-10 -139 -16 -163q-1 -6 -26 -22q4 -19 7 -39q7 -17 33 -17q53 0 141 6q12 25 12 62q0 169 -11 220
q0 3 -6 22q-5 14 -5 22q0 26 17 34.5t17 28.5q0 8 -4 25.5t-4 26.5q0 7 1.5 21t1.5 21q0 30 -2 33t-11.5 4t-11.5 3t-2 27q0 4 14.5 2.5t17 2t2.5 24.5v29q1 6 3 7q12 3 50 0t40 -6q5 -6 2 -24q-4 -16 -9 -19q-12 1 -33 -3q-1 -6 1 -13q16 0 35 -7q9 -21 0 -26
q-5 -3 -19.5 -3t-18.5 -3q0 -11 -3.5 -40t-3.5 -39q0 -7 5 -19q-2 -10 -2 -19q0 -28 19 -56q21 -34 26 -56q5 -28 7 -64q0 -26 -1 -67q-1 -51 -1 -65q0 -18 4 -53t4 -53zM120 603q9 5 9 17q0 20 -21 54q-22 0 -32 3q-5 -11 -5 -29q0 -37 13 -45q17 -10 36 0zM124 472
q-16 0 -37 6q-12 -91 -12 -108q0 -105 13 -196q4 1 12 4t17 112q7 94 7 131v51z" />
    <glyph glyph-name="V" unicode="V" horiz-adv-x="538" 
d="M517 662q-39 -94 -117 -362q-11 -37 -38 -101q-11 -7 -29 -28q-9 -17 -24 -106q-11 -8 -51 -11q-16 5 -25 11q1 29 -40 104q-46 84 -51 108q-31 133 -36 150q-22 84 -50 145q-6 13 -18.5 64.5t-12.5 64.5q0 8 10 14.5t19 6.5t61 -21q10 -10 24 -117q15 -114 25 -135
q3 -6 20 -4q30 2 21 2q16 0 36 -57q17 -50 18 -75q0 -13 -1.5 -37t-1.5 -35q0 -50 16 -86l7 5q60 126 95 292q1 8 12 35q10 23 10 35q0 9 -21 23q-27 17 -29 19l-6 21q16 36 31 72q18 40 51 51q28 -10 56 -19q39 -15 39 -29zM438 656q-19 -3 -42 -67q5 -18 16 -18l6 3
q7 27 20 82z" />
    <glyph glyph-name="W" unicode="W" horiz-adv-x="605" 
d="M587 696q0 -38 -6 -35q5 -14 5 -25q0 -23 -22 -40l8 -19q-5 -15 -13 -20t-17 -10q-9 -106 -18 -213q-11 -126 -11 -213q0 -29 1 -57q-15 -24 -44 -24q-7 0 -18 9q-52 7 -157 24q-5 -16 -11 -31q-7 -18 -22 -18q5 0 -45 12q-32 3 -63 7q-34 6 -51 37q-13 24 -36 156
q-19 100 -27 164q-2 13 -11.5 36.5t-12.5 33.5q-4 20 -2 38q4 27 4 32q0 39 -1 50q-1 20 -4 36q7 7 33 23q1 9 -1 25q-3 20 -3 26q0 21 20 21q17 0 20 -19q3 -15 5 -30q7 -15 46 -32q34 -16 34 -40q0 -13 -7.5 -37t-7.5 -37q0 -8 5.5 -23.5t5.5 -23.5q0 -14 -15.5 -32.5
t-15.5 -22.5q0 -44 16 -123q19 -92 22 -123q1 -7 7 -21.5t6 -23.5q0 -5 -4.5 -15t-3.5 -16q38 -13 59 -13q17 50 17 64q0 8 -5 18q-31 15 -37 44q-2 9 -2 63q0 35 13 87q16 65 37 65q26 0 88 -30q67 -33 67 -53q0 -23 -12.5 -64.5t-12.5 -64.5q0 -9 1 -18q-18 -34 -44 -34
q-5 0 -15.5 3t-16.5 3q-10 0 -10 -14q0 -28 22 -33q24 0 48 -1q3 0 8 3t8 3t25 -11t33 -11q12 0 13 11q6 37 11 122q6 100 9 127q3 34 11 180q-29 16 -29 36q0 9 8.5 16t16.5 13q-1 14 -18 23q-25 13 -27 15q5 36 9 73q10 48 41 48q37 0 66.5 -21t29.5 -55zM538 684
q0 6 -34 30q-5 -8 -5 -21q0 -27 21 -27q18 7 18 18zM109 539q0 18 -4 46q-23 0 -34 3q-7 -22 -7 -30q0 -7 11 -49q9 -2 28 -6q6 13 6 36zM344 332q0 11 -21 24t-33 13q-2 -10 -13 -33q-10 -19 -10 -35q0 -8 4 -18q11 0 33 -2t33 -2q1 9 4 26.5t3 26.5z" />
    <glyph glyph-name="X" unicode="X" horiz-adv-x="648" 
d="M624 485q0 -22 -24 -22l-25 6.5t-50 6.5q-3 0 -17.5 -1.5t-18.5 -1.5q-24 0 -28 26q-8 44 -10 49q-30 -2 -62 -17q-41 -19 -41 -47q0 -6 3 -19q6 -18 45.5 -50t43.5 -40q-3 -11 -2 -34q7 -23 7 -41q0 -8 -2.5 -24t-2.5 -27q0 -22 8 -51q1 -5 10 -9t16 -7q22 -18 72 -57
l25 -12q15 -7 18 -21q1 -7 1 -17q-12 -16 -32 -16q-8 0 -57 38t-50 39q-9 3 -49 5q-33 2 -49 12t-25 46q-5 25 -9 51q-9 15 -20 40q2 11 1 32q-5 19 -10.5 39t-18.5 34q-21 -27 -61 -87q-45 -68 -45 -77q0 -2 10 -13l5 -2.5t5 -7.5q0 -11 -9 -23t-22 -12q-4 0 -6.5 4.5
t-5.5 4.5q-4 0 -8 -7q-6 -10 -8 -12q15 -15 15 -20q0 -6 -6.5 -15.5t-13.5 -9.5q5 0 -19 5q-3 1 -20 -23t-21 -26q-7 -4 -22 11t-15 24q0 11 11 24q15 19 19 26q-25 23 -25 28q0 12 7.5 20t12.5 8q4 0 14.5 -8.5t14.5 -10.5q4 9 13 27q-10 9 -24 30q-4 12 19 27q3 2 15 -5.5
t17 -7.5q11 0 40 45q17 29 35 58q17 19 33 39q20 26 16 40q-20 14 -58 38q-20 10 -47 33q-3 7 -1 85q2 67 -15 67q-4 0 -9 -1.5t-9 -1.5q-35 0 -35 26q0 30 32 30q68 0 118 -59q22 -26 79 -128q32 18 98 49q8 -1 25 2q27 7 39 23q1 2 1 7t-3 25.5t-3 31.5q0 42 34 42
q12 0 60.5 -18t49.5 -26q4 -54 18 -159q0 -3 4 -14t4 -16zM571 517v23q3 60 -16 106q-5 11 -48 19q-4 -10 -4 -110q0 -26 13 -33q10 -6 37 -6q19 0 18 1z" />
    <glyph glyph-name="Y" unicode="Y" horiz-adv-x="492" 
d="M474 713q0 -3 -16 -3.5t-21 -4.5q1 -6 0 -13q5 -3 18 -2t14.5 -2t1.5 -18t-3 -19q-10 2 -29 0q-2 -4 -2 -21q0 -24 6 -198q0 -6 2 -24t2 -22q0 -9 -9 -21t-20 -12q-4 0 -8 4.5t-7 5.5q-34 8 -88 11q-12 -12 -13.5 -32t-2.5 -38q3 -27 1 -90q0 -7 -3.5 -22.5t-3.5 -19.5
q0 -14 10 -21t10 -14t-6 -27t-6 -33l4 -28q3 -20 -2 -28q-8 -15 -21 -15q-3 0 -36 5.5t-34 5.5q-3 0 -14.5 -2.5t-14.5 -2.5q-22 0 -22 28q0 8 2 18q5 21 -7 79q15 15 31 13q14 5 14 25v156q-8 8 -48 18q-28 7 -26 30q-8 7 -34.5 13.5t-33.5 14.5q-12 11 -14 39q0 3 3 18
t4 22q2 37 0 64q-2 34 -6 91q-3 3 -34 20q-1 6 1.5 26.5t2.5 29.5q0 4 -5.5 18t-5.5 17q0 6 6 16t12 11q18 -1 59 -1l4 2.5t9 2.5q12 0 22.5 -14t10.5 -22q0 -3 -7 -9.5t-7 -26.5q0 -11 2 -27q0 -2 3 -8t2 -9q-9 -9 -23 -28q-6 -17 -6 -70q0 -119 19 -119q15 0 15 10v5
q-1 4 -1 6q0 11 10 18q20 15 48 15q3 0 22 -7q23 -7 34.5 -9t23.5 -3q17 -3 21 -10q2 -5 0 -18q-1 -19 -1 -21q8 -12 44 -11q9 9 10 27v28q0 15 25.5 30.5t30.5 36.5q1 5 1 26q0 -3 -5 38q0 17 -7 42q-23 -2 -51 0q-3 3 -2 15q1 11 5.5 15.5t24 5.5t24.5 4v13q1 -1 -26 -1
q-16 0 -21.5 4.5t-6.5 17.5q-1 12 0.5 15t23.5 6q9 1 27.5 -1.5t23.5 -2.5h20q15 1 17 1t10.5 1t12.5 1q6 -1 8 -3.5t2 -30.5zM399 415q4 37 -1 69q-21 -16 -21 -32q0 -40 22 -37zM75 735q-18 -3 -22 -2v-21q0 -2 7 -9.5t12 -8.5q3 14 3 41zM228 389v47q-7 0 -20 4.5
t-16 4.5t-10 -1.5t-9 -1.5q0 -6 -1.5 -16.5t-1.5 -12.5q0 -27 32 -27q4 0 13 1.5t13 1.5zM237 74q0 24 -17 24t-16 -21v-18q4 0 15 -1t15 -1q0 2 1.5 8t1.5 9z" />
    <glyph glyph-name="Z" unicode="Z" horiz-adv-x="486" 
d="M470 650q0 -4 -4 -8.5t-5 -7.5q-6 -20 -6 -68q0 -22 -1 -72.5t-1 -76.5q0 -4 -8.5 -8t-16 -7.5t-10.5 -19.5t-6.5 -30t-20.5 -24q-13 -9 -22 -9q-4 0 -5.5 3.5t-5.5 3.5q-3 0 -11.5 -2.5t-10.5 -3.5q-16 1 -47 1q-20 -1 -55 -29q-31 -28 -62 -55q-19 -12 -37 -25
q-24 -16 -36 -40q-17 -33 -17 -63q0 -11 25 -11q55 -9 162 -24q8 17 12 58.5t10 56.5q11 25 39 25q3 0 21.5 -4.5t31.5 -5.5t29 -6q20 -7 23 -16q13 -43 13 -115q0 -17 -8 -31q-10 -17 -27 -17q-4 0 -16.5 3t-16.5 3t-49.5 -4.5t-49.5 -4.5q-27 0 -102 17t-117 17
q-4 0 -6 -1.5t-6 -1.5t-13 9q-12 13 -17 17q8 18 8 37q0 16 -5.5 34t-5.5 19q0 3 20.5 25t21.5 35q33 13 62 39q36 35 71 69q13 9 35 28q9 13 30 34q24 10 67 38q3 3 3.5 13.5t0.5 13.5q5 20 9 77q1 10 6.5 36t5.5 29q0 36 -75 47q-2 1 -81 4q-7 -4 -6 -44q2 -53 3 -51
q-8 -10 -18 -10q-4 0 -16 9t-16 9q-3 0 -8 -3t-9 -3q-23 0 -24 14q-2 31 -2 99q0 3 -2.5 12.5t-2.5 12.5q0 11 12.5 19t24.5 8q3 0 29 -8q30 -8 41 -10q49 -10 117 -10q46 0 90 -9q64 -12 64 -36zM392 110q0 36 -17 36q-8 0 -29 -7q3 -59 3 -58h26q17 0 17 29z" />
    <glyph glyph-name="bracketleft" unicode="[" horiz-adv-x="313" 
d="M299 588q0 -38 -34 -38h-16q-5 2 -23 16q-4 7 -8 15q-7 13 -32 19q-31 7 -60 7h-11q-4 -1 -2 -15q3 -32 3 -71v-91q0 -2 6 -62t6 -63q0 1 -22.5 -51.5t-22.5 -72.5q0 -2 1 -7t1 -9q17 0 38.5 -4.5t27.5 -4.5q15 0 46 11t44 11q17 0 17 -50l-6 -9l1.5 -8.5t1.5 -15.5
q0 -20 -16 -20q-1 0 -54.5 7.5t-80.5 7.5q-3 0 -21 -1.5t-21 -1.5q-8 0 -17.5 6.5t-9.5 14.5q0 4 5.5 32.5t6 33t2.5 27.5q3 20 3 28v106q0 15 -11 86t-10 74q3 19 3 40q0 23 -4 51.5t-4 32.5q0 14 9.5 22.5t19.5 8.5q9 0 36 -4.5t31 -4.5q2 0 4.5 2t5.5 2t17.5 -4.5
t17.5 -4.5h42q1 11 3.5 24.5t16.5 13.5q3 0 10 -4t9 -5q9 -2 18 -3q16 -4 20 -13q13 -31 13 -61zM262 592q9 -3 9 14q0 16 -9 17t-12 -2q-7 -5 3 -20q4 -7 9 -9zM83 575q0 5 -9 13q-2 -24 0 -60q4 -57 4 -63q6 60 5 110z" />
    <glyph glyph-name="backslash" unicode="\" horiz-adv-x="576" 
d="M559 150q0 -13 -13 -22q-7 -3 -21 -11q-16 -17 -31 -34q-21 -23 -36 -23q-11 0 -24 17q-16 23 -22 28q-6 1 -18 5q-19 11 -19 28q0 13 14 24l20 10q-2 10 -42 82q-8 21 -27 62q-25 34 -69 105q-91 183 -116 183q-3 0 -22 -10.5t-26 -10.5q-15 0 -52 53q-34 49 -34 55
q0 16 22 23q37 12 55 26q11 9 24 9q21 0 36 -25q9 -17 17 -34q13 -14 32 -43q-1 -10 -1 -28q2 -10 13.5 -25.5t21.5 -29.5l80 -140q74 -127 86 -127q3 0 13 6t15 6q29 0 44 -19q22 -29 53 -83q27 -50 27 -57zM141 654q0 10 -6 24q-8 19 -22 19q-5 0 -30 -16q1 -17 12 -30
t26 -13q20 6 20 16z" />
    <glyph glyph-name="bracketright" unicode="]" 
d="M370 617q0 -10 -8 -167.5t-8 -181.5q0 5 2 -57q1 -48 -1 -79t-19 -31q-3 0 -35 1t-35 1q-2 0 -23 -2q-24 -3 -38 -4q-31 -1 -96 -8q0 -14 -7 -21.5t-21 -4.5q-4 2 -15 32q-10 27 -10 31q0 -2 3 36q2 32 0 54q10 13 23 13q20 0 17 -42q-1 -25 11 -34q57 5 84 5q42 0 59 13
q0 14 2.5 42t2.5 30q0 175 -29 310q-3 12 -36 27q-28 12 -34 12q-31 0 -45 -10q-6 -5 -13 -20q-5 -10 -15 -10q-49 0 -49 53q0 41 13 66q56 -4 62.5 -20t42.5 -16h132q2 0 10.5 2.5t12.5 2.5q60 0 60 -23z" />
    <glyph glyph-name="asciicircum" unicode="^" horiz-adv-x="377" 
d="M343 653q0 -3 -6 -32t-8 -40q-2 -18 1 -47q-20 -24 -31 -24q-3 0 -6 1.5t-7 1.5t-22.5 -9t-22.5 -9q-14 0 -26 13.5t-12 24.5q0 3 5 16.5t6 20.5q-2 26 -2 78q1 5 7.5 14t6.5 12q0 7 -12.5 19t-17.5 12q-19 0 -28 -31q-6 -19 -6 -33q0 -30 4 -48q1 -5 6 -17.5t5 -16.5
q0 -16 -18 -28q-5 -1 -17 -6q3 -14 -4 -27.5t-20 -13.5q-3 0 -13.5 4.5t-14.5 5.5q-18 3 -37 7q-24 4 -30 13q-2 17 3 32q-1 4 -8 13t-7 13q0 -1 5.5 31t3.5 56q15 26 45 26q3 0 19 -4.5t20 -4.5q11 0 46 46.5t50 46.5q3 0 29 -36q31 -43 49 -60q10 0 36 -1q9 1 19 -5.5
t10 -13.5zM97 548q20 -5 20 35q0 46 -22 40q-12 -3 -19.5 -12.5t-7.5 -21.5q0 -34 29 -41z" />
    <glyph glyph-name="underscore" unicode="_" horiz-adv-x="565" 
d="M537 73l-4 -4q3 -5 3 -13l-3 -15q-24 -6 -66 -6q-14 0 -44 1h-47q-43 0 -76 -4q-14 -2 -46 -6q-48 -5 -88 -5q-8 0 -27.5 3.5t-32.5 1.5l-25 12l-44 -10q-11 -2 -25 26q0 33 14 40q6 3 39 3q27 0 27 12q0 7 13 7h18q8 1 8 7q9 9 24 9q8 0 25 -3.5t25 -3.5q5 0 9 1
q5 1 33 -16.5t33 -16.5q27 5 68 6q28 0 76 -1q53 -2 69 -2q31 0 34 -1q10 -3 10 -22zM199 102q-3 0 -28 2q-21 1 -31 0q-15 -1 -15 -8q0 -15 12 -26.5t27 -11.5l20 5q-1 9 10.5 22t11.5 14q0 3 -7 3z" />
    <glyph glyph-name="grave" unicode="`" horiz-adv-x="224" 
d="M195 654q0 -14 -16.5 -29t-30.5 -15q-9 0 -27 29t-48 29q-3 0 -14 -3.5t-13 -3.5q-20 0 -16 38q0 1 -2 2t-2 4l2 3q-5 15 -1 20q7 11 30 21q2 1 13 1q3 0 8 -1t8 -1q2 0 8 3t9 3q4 0 10.5 -5.5t6.5 -10.5q0 2 -5 -38q19 -12 31.5 -16t26.5 -8q22 -8 22 -22z" />
    <glyph glyph-name="a" unicode="a" horiz-adv-x="518" 
d="M495 106q0 -8 -11 -19t-20 -12q-50 -7 -78 -5q-24 6 -70 15l-25 -32l-28 5l-41 -12q-4 -1 -20 10q-10 7 -19.5 13t-47.5 8q-33 3 -37 12q-8 18 -8 33q0 8 3.5 24.5t3.5 25.5q-16 3 -26 8q0 5 -1.5 18.5t-1.5 20.5q0 29 5 98q6 79 13 91.5t35 12.5q8 0 45 -5l34 13
q16 -20 98 -20q33 0 41 8q-3 49 -12 145l-9 2l-128 -32l-15 5q-4 0 -10.5 -11t-13.5 -11q-12 0 -36 -2.5t-36 -2.5q-40 0 -45 17l-6 54q14 9 69 21q52 11 73 12l17 -22q3 3 7 23q3 16 13 16q13 0 15.5 -18.5t15.5 -18.5l33 2l40 20l10 -2l17 7q14 0 25 -8q15 -10 22 -13
q9 -9 12 -33q1 -16 0 -50q-2 -41 -2 -55q1 -36 -2 -99q0 -14 10 -46q9 -28 6 -45q10 -12 37 -16t33 -16q2 -5 9 -64t7 -70zM143 567l-1 2h-13q-11 1 -29 -3q-23 -4 -30 -5v-16l16 -3q16 0 34 5q23 7 23 20zM359 134q0 36 -6.5 108t-6.5 109q0 15 -8 26l-122 -8q5 -6 5 -13
q0 -12 -18 -22t-31 -9q-5 -17 -5 -98q0 -39 -8 -50q-10 -1 -20 -2.5t-10 -13.5q0 -29 4 -38q7 -13 30 -13q17 0 19 15q0 -1 0 28q0 26 24 26q55 0 74 -8q3 -3 18 -34q9 -20 26 -20q35 0 35 17zM265 106l-19 34l-20 -3q-3 -9 -3 -18q0 -4 3 -19q2 -12 0 -19q35 10 36 10z" />
    <glyph glyph-name="b" unicode="b" horiz-adv-x="420" 
d="M382 60q0 -25 -112 -27q-133 -3 -148 -9l-19 3q-8 0 -25.5 -4t-26.5 -4q-29 0 -29 29q0 46 5 64q10 30 44 43v115q0 18 -6 53.5t-6 54.5q0 10 1 20q-1 2 -25 15q-1 97 -11 302q30 28 74 28q26 0 30 -17q0 1 0 -36q0 -26 17 -89q-2 -8 -14 -31q-8 -17 -8 -31
q0 -19 8.5 -61t8.5 -52q0 -14 -16 -20q-20 -6 -23 -12q5 -5 19 -5q28 0 81.5 12.5t79.5 12.5q54 0 74 -24q16 -22 16 -81q0 -9 8 -19l-5 -17q0 -35 4 -106.5t4 -106.5zM343 102q-16 42 -16 152q-11 -75 -11 -78q0 -1 3 -50q2 -30 -3 -49h24q0 10 3 25zM318 317q-8 16 -9 28
q-2 18 -4 25l-17 1l-36 -2v-18l14 -11l15 5q22 -12 22 -21q0 -14 -18.5 -21t-33.5 -5l-51 8q-15 0 -45.5 -4t-45.5 -4q0 -10 -1.5 -30t-1.5 -29q0 -65 8 -97q40 -4 40 -27q0 -5 -1.5 -17.5t-1.5 -20.5q16 0 49 -1.5t49 -1.5q6 0 17 2.5t17 2.5q1 21 0 56q-1 44 -1 55
q0 57 3 69q6 35 33 58zM116 92l-3 16h-13q-13 0 -23.5 -9t-10.5 -22q0 -10 3.5 -11.5t15.5 -1.5q18 0 24.5 5t6.5 23z" />
    <glyph glyph-name="c" unicode="c" horiz-adv-x="370" 
d="M342 463q-6 -8 -24 -16l-17 2l-38 -12l-9 1q-29 28 -29 27t2 9.5t2 24.5q-12 0 -35.5 -1t-34.5 -1q-1 -8 -1 -40q0 -21 -7.5 -62t-6.5 -62l1 -69q0 -23 -27.5 -40t-27.5 -22v-104l12 -11q20 4 30 4l1 22q10 5 32 13l68 -2q8 -1 20 16q-1 9 -27 34q1 8 29 19q41 0 55 -24
q-18 -5 -20 -40q-2 -31 -3 -62q-6 -32 -32 -32q-8 0 -41 3q-23 3 -44 -1l-39 17l-48 -9q-10 -2 -25 5.5t-15 17.5q0 40 3 121t3 121q0 45 -16.5 61t-16.5 21q-2 27 -2 108q0 45 1 49q5 29 31 29q7 0 36 -20t69 -20q58 0 80 2v11q0 15 3 25q4 4 82 7l26 -16v-104zM305 489
q0 10 -1.5 29.5t-1.5 29.5h-24l-5 -11q5 -30 5 -45l16 -8z" />
    <glyph glyph-name="d" unicode="d" horiz-adv-x="400" 
d="M376 56q0 -39 -38 -39h-51h-44q-5 1 -15.5 5.5t-13.5 4.5t-34.5 -5t-34.5 -5q-29 0 -72 11q-58 16 -58 41q0 3 3.5 6t5.5 5q-2 24 5 52q4 16 1 41q-4 36 -4 37q3 11 6 32q-3 23 0 31q5 13 25.5 13t32.5 5q4 2 3 11q-3 16 -3 21q0 12 21 12q3 0 9 -11t9 -13q4 -3 11 4
q1 2 -2 15q-2 10 1 10l8.5 3.5t10.5 1.5q3 -2 6 -11t5 -9q15 0 47 12q17 6 83 15q1 24 3 49t2 44q0 2 -4 49t-4 60q-1 10 1.5 31.5t2.5 32.5q0 28 -12 46q-19 30 -19 49q0 18 21 36t39 18q14 0 26 -10q9 -8 9 -27q-1 38 -1 -22q0 -16 -16 -41q-5 -2 -10 -10v-62
q-1 -34 -3 -94l5 -22.5t4 -22.5q0 -3 -4.5 -29t-4.5 -29q0 -1 2.5 -18t2.5 -24q-1 -49 4 -52q28 -3 28 -29q0 -6 -2 -29.5t-2 -59.5q0 -26 5 -59q-2 -13 -4 -37q1 -5 4.5 -18t3.5 -16zM325 697q8 2 4 13q-3 11 -10 13q-5 2 -7 -9q-1 -7 3 -13t10 -4zM299 308h-16
q-3 0 -37.5 -11t-37.5 -11t-7.5 1t-7.5 1q-5 0 -12 -6q6 -28 6 -27q-6 -24 -26 -24q-3 0 -8 12.5t-7 15.5q-1 2 -4 0l-4 -3q4 -27 2 -36q-2 -8 -16 -8q-10 0 -22 41q-7 0 -22 -4q-13 -8 -13 -29q0 -36 21 -72q1 -5 2 -12q8 -11 23 -16q21 -7 21 -8q34 -21 34 -30q0 -3 -1 -9
t-1 -14q2 0 7 -1.5t8 -1.5q35 0 40 10q2 16 4 31q6 27 41 54q-4 18 -4 50q1 38 1 44q-1 3 -2.5 9.5t-1.5 9.5q0 13 17 29q7 1 13 3q10 3 10 12zM311 80q0 16 -26 16q-21 0 -21 -16q0 -10 10 -20.5t21 -10.5q7 0 12 13q4 10 4 18zM126 59q-5 18 -56 36v-21q14 -11 56 -15z
" />
    <glyph glyph-name="e" unicode="e" 
d="M384 128l-1 -30l-24 -6l1 -14l-2 -13l-20 -8q-6 0 -10 10q-3 7 -6 15q-6 0 -10 -12q-5 -17 -6 -18q-12 -15 -62 -15q-26 0 -33.5 16.5t-10.5 15.5q-95 -12 -96 -12q-17 0 -17 69q0 90 0 85q-3 13 -8 43q0 10 -1 34q-1 30 -5 70q-17 1 -33 2q-22 2 -22 18q0 6 3.5 18.5
t3.5 19.5q0 32 -1 89q-1 63 -1 89q0 12 4 31q6 26 7 31q14 7 56 18q56 -17 95 -17q6 0 28 7q78 -16 87 -16t16 1q9 -5 25 -18l-1 -24q-1 -25 3 -35q6 -13 7 -18q1 -16 4 -53q2 -21 5 -68q0 -3 -2 -24q-2 -13 4 -25q-3 -9 -5 -46l-1 -14q-16 -20 -25 -20q-131 0 -192 -3v-17
q-9 -14 -9 -21v-92l4 -40q3 -32 12 -32q12 0 51 16v5q-1 50 54 50q28 0 38 -3q18 -7 19 -30l11 -6q10 -1 10 24q0 16 15 15q8 -3 25 -13l-4 -11l-2 -12zM304 566v33q-6 10 -15 7l-44 11l-12 -6l32 -28q23 -18 34 -18zM265 378q0 31 -17 151l-48 66q-28 30 -73 30
q-5 0 -14 -1.5t-13 -1.5v-72q0 -15 22.5 -31t22.5 -32q0 -10 -3 -30.5t-3 -30.5q0 -12 15 -40l-25 -32l3 -15q-3 -1 75 -1q14 0 57 11q1 11 1 29zM272 105q0 26 -23 26q-14 0 -14 -21q0 -9 7.5 -23.5t15.5 -14.5q14 0 14 33z" />
    <glyph glyph-name="f" unicode="f" horiz-adv-x="481" 
d="M461 640q0 -8 -11.5 -14.5t-15.5 -6.5q-15 0 -22 18q-5 14 -2 27q-22 4 -41 4q-53 0 -95 -19q-55 -25 -67 -74q-4 -19 -5 -27v-98q10 -9 31 -9q3 0 27 3.5t27 3.5q17 0 30 -11.5t13 -26.5q0 -24 -20 -27t-39 -4q-23 -2 -48 -15q-1 -49 3 -63q7 -25 7 -20q0 -14 -12 -18
q-23 -8 -25 -9q6 -67 6 -80q8 -5 27 -8t24 -8q11 -8 12 -17q4 -18 3 -23q-5 -18 -5 -28q0 -9 4 -15.5t4 -11.5q0 -12 -11 -22t-17 -10q-3 0 -19 2.5t-20 2.5q-14 0 -33.5 -13.5t-24.5 -13.5q-18 0 -26 9.5t-9 43.5q0 11 -1.5 33.5t-1.5 24.5q0 8 18 14q12 4 25 9
q2 2 7.5 29.5t5.5 38.5q0 18 -12 36q-9 0 -22.5 9t-16.5 17q7 29 6 47q-1 9 -19 31h-8q-3 0 -17.5 -2.5t-18.5 -2.5q-15 0 -30 8q-18 9 -18 24q0 1 4 10q2 6 -1 17q5 7 13 27q4 11 19 11q2 0 13 -2.5t14 -2.5t6.5 2.5t6.5 2.5q4 0 6 -1t6 -1q12 0 9 36q-4 41 0 46
q6 10 23.5 12.5t21.5 8.5q0 3 4 39q6 6 14 18q10 24 41 55q34 36 64 46q27 1 87 6q3 1 11.5 4t11.5 3q2 0 7.5 -2.5t8.5 -2.5t6 1t6 1q-2 7 3 22q6 20 22 20q4 0 13 -7t10 -11q-4 -18 -7 -54q1 -7 5.5 -23.5t4.5 -18.5zM156 494q-4 -2 -10 0l-3 -40q3 0 7 1t5 1q2 18 1 38z
M226 88q0 20 -3 29q-1 0 -39 -8q-31 -7 -31 -13v-30q24 5 73 22z" />
    <glyph glyph-name="g" unicode="g" horiz-adv-x="463" 
d="M445 273q0 -23 -6 -70.5t-6 -71.5q0 -7 2.5 -19.5t2.5 -18.5q0 -17 -21 -27q-17 -8 -36 -8t-52 13.5t-56 13.5q-3 0 -16.5 4.5t-15.5 2.5q2 -11 -3 -25q-9 -4 -14 0q0 9 -3 27q0 2 -5 2t-7 -1q0 -13 -7 -28q-12 -4 -14 1q-7 13 -4 26l-19 -1l-31 15q1 27 30 30l15 1
l15 37h11l4 -24q5 -1 11 1q1 6 2.5 12.5t7.5 6.5q15 0 16 -4q1 -2 0 -17q0 -11 6.5 -15t25.5 -4q21 0 82 9q9 55 9 78q0 41 -6 69q-11 5 -18 4q-18 -2 -16 -2q-14 0 -22 14t-14 27q-23 -3 -52 -3q-120 0 -153 7q-16 4 -10 50q-10 8 -22 30q-2 34 -9 101q-14 12 -16 21
q-1 4 -1 26q0 15 -10 37q0 65 56 65q33 0 86 -5q43 -5 86 -9q3 -1 15 1.5t15 2.5q12 0 33 -5q6 -8 28 -19q19 -9 24 -21q10 -23 11 -86q-2 74 -2 -91q0 -20 15.5 -28.5t20.5 -60.5q13 0 26 -30q11 -26 11 -41zM339 469l-6 111q-12 16 -20 16q-2 0 -41 -5.5t-61 -5.5
q-85 0 -85 -81q0 -13 2.5 -44.5t2.5 -48.5v-6l-17 -14q2 -21 24 -21q5 0 15 1t14 1l73 -8q9 0 26 3t25 3q9 23 16 30q14 8 28 17q3 28 1 47zM369 349q0 17 -9 20q-2 2 -24 2l-2 -21q-2 -25 15 -25h13zM103 454q-3 26 -14 75l-4 -57q10 -25 11 -37z" />
    <glyph glyph-name="h" unicode="h" horiz-adv-x="435" 
d="M419 92q-10 -31 -24 -31q-2 0 -5 2q-8 -3 -24.5 -16t-29.5 -13q-12 0 -30 19t-18 32q18 46 18 146q0 11 -9 17l-18 12q-19 12 -58 11q-12 -2 -39 -5q-22 -2 -28 -2q-4 -24 -2 -63q3 -60 3 -63q0 -23 -17 -33q-9 -7 -35.5 -12t-36.5 -12q-12 0 -22 19t-10 39q-1 30 -1 67
q1 50 1 63q0 45 8 84q9 20 21 66l-3 56q-5 83 -5 104l-1 13q-10 2 -24 0q-4 4 -4 12v13l22 12v14q-29 0 -29 11q0 30 89 30q12 0 12 -23q0 -5 -12 -7.5t-15 -6.5v-13q7 2 14 2l15 -5q3 -10 3 -18q0 -11 -10 -13q-15 -3 -18 -5q-2 -24 -2 -39q0 -172 13 -179
q17 -10 33.5 -38.5t24.5 -30.5q10 3 34 8q24 3 80 -3q9 -1 20.5 2.5t15.5 3.5q14 0 32 -18q10 -8 18.5 -16t10.5 -27q3 -22 3 -77q0 -35 39 -89zM357 97q-7 9 -23 21q4 -13 7 -29q9 2 16 8zM115 272l-10 18q5 10 5 19q0 12 -11 12q-10 0 -19 -32q-7 -26 -7 -41q0 -77 3 -110
q4 0 12 -2.5t11 -2.5q12 0 13.5 20.5t3.5 39.5t1 47q-2 35 -2 32z" />
    <glyph glyph-name="i" unicode="i" horiz-adv-x="221" 
d="M168 651q0 -16 -75 -52q-11 0 -40 21q-16 71 -16 110q0 19 21 32q17 10 33 10q14 0 29 -11q8 -7 31 -79q2 -4 9.5 -16t7.5 -15zM195 82q0 -24 -6 -45q-8 -30 -25 -30h-18q-10 0 -69 18q-9 3 -29 25q-2 42 -13 138q-3 50 -11 148q-1 13 -6.5 43t-5.5 31q0 16 14 28
q1 21 6 34l-12 9q0 11 6 31q8 26 17 26q26 0 27.5 -8.5t3.5 -18.5t8 -10h33q11 -15 -2 -24q-13 0 -35 -2q1 -4 0 -9q14 2 34 -4q7 -9 0 -15q-14 1 -34 1q-1 -15 -1 -20q0 -22 14 -29q19 -10 29 -35q0 -12 2 -32q0 -11 18 -102q1 -6 1 -37q0 -20 13 -41l22 -26q19 -25 19 -44
zM106 654q5 -3 5 6q0 8 -4.5 19t-8.5 11q-8 0 -7 -17q1 -13 15 -19z" />
    <glyph glyph-name="j" unicode="j" horiz-adv-x="416" 
d="M339 410q0 -32 -17 -64q-4 -7 -15 -8l-12 -2q-20 -12 -22 -12q-34 0 -34 81q0 64 23 64q17 0 46 -19q31 -22 31 -40zM374 151q0 -26 -17.5 -37.5t-36.5 -21.5q0 -6 -2 -82q-1 -48 -15 -87q-18 -17 -41 -51q-10 -44 -46 -44q-3 0 -9 4t-10 4q-3 0 -39.5 -8t-39.5 -8
q-23 0 -23 19v8v8q0 19 -22 19q-27 0 -27 -16q0 -4 1.5 -11.5t1.5 -10.5q0 -11 -16 -11q-12 0 -20 37q-6 27 -6 49t26 22q4 0 20.5 -8t22.5 -8q-3 0 32.5 18.5t55.5 18.5q-15 0 92 -14q11 6 12 16q12 145 12 170q0 17 -5 61h-24q-15 1 -25 13v21q19 8 21 8t7.5 -1.5
t14.5 -1.5v14q-8 0 -19 -1.5t-14 -1.5q-9 0 -16.5 8.5t-7.5 13.5q0 11 15 15q10 3 37 4q6 7 12.5 13t15.5 6q27 0 46 -4q15 -3 27 -21q7 -12 6 -23q-4 -33 -4 -52q0 -16 3.5 -26.5t3.5 -19.5zM298 401q0 9 -15 17q-6 -10 -6 -24q0 -9 9 -22q12 18 12 29zM333 171q0 3 -5 30
t-6 36h-7v-54q0 -4 3 -20q4 -19 4 -25q11 16 11 33z" />
    <glyph glyph-name="k" unicode="k" horiz-adv-x="391" 
d="M371 62q0 -51 -40 -51q-113 0 -113 53q0 72 32 99q1 6 3 20.5t2 21.5q0 24 -34 115.5t-48 92.5q-11 -10 -18 -17l2 -12q0 -22 -14 -28q-6 -3 -32 -4v-24q0 -28 15 -51q17 -26 17 -27q12 -59 12 -163q0 -18 -10 -33q-3 -4 -24 -26q-29 3 -59 5q-19 2 -23.5 14.5t-4.5 57.5
q0 20 -6 58.5t-6 58.5q0 39 17 52q2 2 21 7q14 4 14 11q0 11 -2 33t-2 34q-29 0 -29 41q0 37 3 54q8 3 24 10q-5 64 -12 190q-2 1 -24 11q-17 8 -17 17q0 14 2.5 41.5t2.5 40.5v4q35 12 51 12t28 -38q10 -31 10 -54l-3 -17q-15 -17 -15 -25q0 -7 7 -57q10 -3 27 -12
q8 -6 8 -114h14q41 0 89 55t48 102q0 9 -2 17l14 5h7q20 0 20 -108q0 -17 -3 -27q-106 -52 -106 -66q81 -199 81 -223l-9 -48l11 -8l51 4l16 -12q0 -14 3.5 -45t3.5 -47zM74 718q-3 11 -14 29q-10 -12 -10 -26v-8q0 -22 14 -22l6 1zM293 84l-1 29l-19 3q-15 0 -15 -27l2 -19
q12 0 32 -2zM98 95q0 28 -4 74q-6 59 -7 73h-19q-1 -6 -3 -19.5t-2 -20.5q0 -50 20 -128h13q0 4 1 11t1 10z" />
    <glyph glyph-name="l" unicode="l" horiz-adv-x="348" 
d="M331 93q-13 -7 -23 -7h-146q-12 0 -38.5 10.5t-31.5 14.5q2 29 -2 75q7 19 7 38q0 18 -7 26q-45 1 -45 76q0 12 1 23q-4 14 -6 44q3 17 3 34q0 33 -11.5 83t-11.5 69q0 15 2 19q5 8 24 13h13q10 1 12 7q0 18 6 52q2 4 10.5 10t12.5 6q6 0 27 -6q26 -7 28 -12
q-1 -7 2 -18.5t15 -37.5q11 -22 11 -25q0 5 -22 -44q-1 -3 -8 -31t-7 -35q0 -16 12.5 -99.5t12.5 -85.5q0 -7 -7 -15q-11 -4 -22 -9t-11 -18q0 -38 15 -38q4 0 10 3q0 5 5 10.5t8 5.5q10 0 28 -9q23 -14 22 -31q-3 -9 -7 -22v-34q21 -7 24 -7q64 0 95 -10v-25zM175 133v41
q-4 0 -9 1.5t-8 1.5q-2 0 -12 -2.5t-12 -2.5q2 -16 4 -30t19 -14q13 0 18 5z" />
    <glyph glyph-name="m" unicode="m" horiz-adv-x="740" 
d="M714 66q0 -14 -9 -25t-20 -11q-3 0 -22.5 3t-24.5 3q-4 0 -61 -12q-14 0 -27 22l-2 142q-5 131 -41 131q-64 0 -92 -14q-39 -19 -39 -72v-27q8 2 14 2q27 0 32 -32q2 -26 4 -53q2 -6 8 -23.5t6 -21.5q0 -5 -6.5 -17.5t-13.5 -14.5q-20 -8 -61 -16q-35 -6 -44 -6
q-3 0 -23 -1.5t-24 -1.5q-5 0 -15.5 8.5t-10.5 17.5q-2 41 0 116q5 40 68 44q8 6 8 18q0 2 -2.5 16.5t-2.5 21.5q0 74 -8 105q-46 15 -180 15q-11 0 -11 -18q0 -1 5.5 -33t5.5 -45q0 1 -3 -19q-2 -14 2 -23q12 -9 34 -28q4 -4 10 -35q24 3 28 -5q7 -17 0 -28q-9 -1 -23 -6
q1 -10 0 -23q30 0 31 -2q10 -17 1 -30q-12 -1 -27 -10q2 -25 -4 -55q-6 -4 -30 -2q-5 1 -8.5 26.5t-6.5 29.5q-6 5 -18 4q-12 -2 -13 0q-3 4 -3 16q0 10 1.5 12t20.5 5q6 1 9 4q3 17 0 18q-12 -1 -29 5q-1 2 -1 23q0 3 10 5.5t10 6.5q0 2 -18 18t-23 28q2 14 1 40
q-2 15 -6 66q-2 39 -10 57q-10 -3 -24 5.5t-14 21.5q0 12 16 27q-12 13 -12 16t9 12.5t11 15.5q3 7 -2.5 21.5t-5.5 19.5q0 10 10.5 16t18.5 6q24 0 30.5 -54t33.5 -54q2 0 47 -2q50 -3 74 -4q6 0 20 1t21 1q35 0 51 -21q7 -10 11 -31q4 -24 8 -33q46 6 127 19q3 1 16 9.5
t28 8.5q5 0 39.5 -11.5t42.5 -11.5q15 0 30.5 -1.5t35.5 -15.5q7 -5 7 -28q0 23 -2 -43q-1 -76 0 -88q5 -31 15 -95q1 -3 6.5 -12.5t5.5 -13.5zM381 94q0 17 -1.5 27t-1.5 9q-12 0 -38 3t-28 3q-15 0 -15 -39q0 -4 1.5 -9t1.5 -6q30 6 81 12z" />
    <glyph glyph-name="n" unicode="n" horiz-adv-x="484" 
d="M462 451q-3 -2 0 -146q-19 -9 -45 -17q1 -34 8 -70t7 -35q0 -2 -14 -13t-20 -18q-14 -17 -19.5 -56.5t-9.5 -41.5q-20 -13 -27 -13q-10 0 -25 10q-10 112 -10 110q4 5 22 17q11 2 21 4q16 3 16 18q0 35 -16 89q-15 10 -31 32q-1 17 -7 57q-5 33 -5 59q0 48 17 62
q-2 20 -11 59q-4 11 -28 17q-57 14 -116 25q-5 1 -38 1q-9 -15 -9 -35v-17q1 -10 1 -15q0 -10 -3 -16q-5 -12 -22 -14q-21 -3 -24 -5q8 -71 8 -195v-29q36 0 46.5 -6t14.5 -35.5t13 -29.5q3 0 8 1t8 1q28 0 28 -22l-2 -17.5t-1 -25.5q-3 -6 -28.5 -16t-29.5 -10
q-2 0 -17.5 5.5t-33.5 7.5q-16 13 -40 42q-20 39 -20 65q0 11 17 22v153q-3 27 -8 94q-9 133 -9 122q0 47 40 47q103 0 232 -16q20 -2 41 -8q8 -10 7.5 -36.5t11.5 -35.5q-3 -6 -3 -12q0 -12 17 -41q-1 -6 -1 -11q0 -20 39 -28q43 -8 50 -34zM88 554q11 -2 11 19
q0 29 -13 23q-12 -6 -12 -20q0 -19 14 -22zM129 194q-5 3 -14 11q-3 4 -5 17q-2 10 -8 11q-15 1 -16 -28q-1 -13 7 -26.5t18 -13.5q9 0 15.5 10t2.5 19z" />
    <glyph glyph-name="o" unicode="o" horiz-adv-x="512" 
d="M469 155q0 -56 -18 -75t-63 -19q-14 0 -37 1q-29 -13 -75 -18l-78 -6l-14 7q-10 0 -32 -3.5t-33 -3.5q-27 0 -44.5 20.5t-17.5 48.5q0 9 4.5 28.5t5.5 28.5l-8 18q-2 24 -14 137q-10 87 -10 133q0 23 12 68q14 52 28 60q27 15 97 26q60 9 102 9q11 0 22.5 -7t17.5 -7
q26 0 54 6q22 -8 41 -20q6 -3 16.5 -57.5t10.5 -68.5q0 -6 3.5 -17t4.5 -15q25 -173 25 -274zM346 130q0 58 -20 201q-24 165 -48 200q-9 13 -30 13q-18 0 -56.5 -3t-57.5 -3q-33 0 -43 -49q-4 -21 -4 -77q0 -17 5.5 -100.5t7.5 -90.5t12 -10q9 -2 15 2q107 0 107 -103
q0 -13 -1 -28h55q58 0 58 48zM178 136q0 35 -23 35q-58 0 -58 -46q0 -43 50 -43q8 0 20 6q11 44 11 48z" />
    <glyph glyph-name="p" unicode="p" horiz-adv-x="394" 
d="M357 167q0 -18 -15.5 -30.5t-33.5 -12.5q-3 0 -16.5 4t-16.5 4q-30 0 -109 -7q-16 -1 -31 -8q10 -7 21 -26q6 -33 6 -96q0 -66 -6 -145q1 -2 -12 -12q-16 -11 -19 -15l-6 -28q-6 -23 -25 -23t-19 18q0 4 1 12t1 11q0 12 -12 12q-2 0 -5 -1t-7 -1q-12 0 -22 32
q-7 79 -7 160q0 25 5 71q1 11 2 17q4 13 12 19q7 2 20 9q1 11 2 41q2 25 2 28q0 12 -3.5 29.5t-4.5 27.5q1 21 0 63q0 3 -3 59q-3 48 -3 55q0 29 15 45q12 14 41 14q12 0 27 -2.5t16.5 -2.5t42.5 -8t45 -8q3 0 9 1.5t9 1.5t9.5 -3.5t9.5 -3.5q15 2 45 -5q25 -14 28 -50
q-1 -42 1 -127v-79q0 -7 3 -22t3 -18zM293 417q-29 1 -87 11q-65 18 -72 18q-3 0 -15 -3t-15 -3q-6 -34 -6 -35q0 -15 7 -29q9 -5 30 -6q7 0 10 -5q4 -8 2 -21q-2 -12 -7 -13q-16 -1 -36 -5v-14q17 -1 39 -10q4 -6 3 -17q0 -11 -4.5 -13.5t-18.5 -0.5q-16 2 -19 1
q0 -14 1 -31.5t1 -23.5q0 -56 25 -56q3 0 37 6q38 6 53 8q7 13 16 34q1 5 2 30q1 31 1 36q2 24 9 34q13 15 31 52q1 1 4 20q0 1 5 15t4 21zM117 -41q0 23 -5.5 69t-5.5 56h-31q-8 -10 -8 -42q0 -36 6 -128q1 -25 13 -41h30q-5 12 -5 28q0 10 3 29.5t3 28.5z" />
    <glyph glyph-name="q" unicode="q" horiz-adv-x="412" 
d="M401 -154q-10 -29 -67 -29h-25q-16 1 -22 1q-27 0 -36 68q-4 62 -9 125q-3 26 -3 64q-1 26 0 58q1 31 1 30q-5 13 -23 13q-9 0 -23.5 -4l-14.5 -4l-45 -1q-48 -9 -90 -9q-10 0 -19.5 9t-9.5 19q0 22 1 66t1 67q0 13 22 46t22 62q0 21 28 25q6 1 46 1q14 0 43 -7
q20 12 35 14h37q0 6 -3 16t-3 15q0 21 34 25q25 1 51 3q14 -3 22 -8v-19q-10 -9 -35 -11q-20 -1 -30 -22q7 -7 7 -20v-24q2 -20 -2.5 -52t-4.5 -36q0 -41 8 -184q7 -129 5 -185h30q4 0 19 6.5t19 6.5q28 0 34 -125zM232 305q0 67 -5 79q-12 28 -66 28h-20v-15l28 -59l-4 -13
q-19 -13 -39 -27q-15 -15 -15 -46q0 -17 6 -45l87 -1q3 0 22 9q6 51 6 90zM357 -110q-19 11 -39 10q-4 1 -13 -1q-9 -5 0 -24q3 -7 12 -7q26 0 40 22z" />
    <glyph glyph-name="r" unicode="r" horiz-adv-x="564" 
d="M536 367q2 -3 -5 -19q-8 -22 -20 -26q-57 -20 -74 -20q-38 0 -40 24q1 -12 1 83q0 3 -4.5 12t-4.5 14q0 28 27.5 37t27.5 32q0 4 -1.5 17t-1.5 21h-46q-10 -1 -51 -12q-47 -13 -62 -23q-28 -19 -31 -57v-68l-3 -99q-2 -47 -1 -57q3 -5 14 -5h16q7 -1 10 -7q0 -5 3 -20
q2 -10 -2 -15t-20 -7q-21 -4 -22 -4q-5 -2 -3 -14q3 -19 3 -15q0 -3 20.5 -1.5t20.5 -7.5q0 7 2 -12q1 -11 -2 -15t-19.5 -4.5t-18.5 -3.5q-1 -13 -7 -34q-2 -4 -17 -4q-5 0 -11 13q-10 20 -12 22.5t-17 0t-19.5 1.5t-4.5 15v18q5 4 20 3t20 4q-3 10 -4 24q-1 1 -5 1
t-13 -2.5t-13 -2.5q-10 0 -12 22q-3 21 3 26q18 15 44 13q0 37 -1 74q-1 56 -8 67q16 77 16 142v22q-2 10 -16 10q-4 0 -43.5 -4t-43.5 -4q-16 0 -43 17q-19 78 -19 105q0 14 42 32q37 15 49 15q21 0 46 -22.5t26 -22.5q4 0 1.5 4t1.5 4q30 0 30 -23v-8v-8q0 -15 5 -25
q59 18 229 63q23 0 32 -16q7 -19 15 -37q2 -5 2 -38q0 -17 -4.5 -46.5t-4.5 -38.5q0 -11 4 -15q19 -21 19 -49v-46zM475 405q-4 8 -20 16q0 -3 -6 -18.5t-6 -23.5q0 -10 8 -13q11 -4 20 0q13 7 4 39zM149 579v28q-6 6 -43 12q0 -8 1.5 -21.5t1.5 -18.5h40z" />
    <glyph glyph-name="s" unicode="s" horiz-adv-x="394" 
d="M362 287q0 -32 -10 -91q-11 -69 -13 -93t-4 -31q-6 -18 -23 -15q-29 4 -25 4l-230 -29q-24 -3 -24 22v47q0 23 2 26l30 -3q6 -2 6 -17q1 -19 6 -28l14 2q-3 19 -3 40q3 2 16 3.5t16 0.5q1 -14 16 -42q49 5 98 11q32 4 38.5 25t6.5 103q0 18 -13 22q-6 2 -30 2
q-30 0 -77 -3q-18 -1 -58 -15t-57 -14q-24 0 -24 34q0 7 3 22.5t3 24.5t-2 22t-2 21q0 9 1 25q17 26 22 105q3 56 5 113l33 18q20 -11 60 -14q48 -4 62 -8l26 2q15 0 50 -20t35 -34q0 -11 -2 -32t-2 -31q-13 -16 -80 -16q-20 0 -36 18t-16 38q0 1 4.5 17.5t5.5 19.5
q-13 1 -41 4q-14 3 -59 8q-7 -31 -7 -82q0 -57 2 -81h3q14 1 51 -15q-5 -23 -10 -73q5 -9 17 -9q25 0 76.5 11t77.5 11q12 0 35 -8q27 -9 27 -18zM255 500q4 7 0 16q-7 16 -20 16q-10 0 -13 -10q-3 -9 1.5 -18.5t13.5 -11.5q13 -1 18 8z" />
    <glyph glyph-name="t" unicode="t" 
d="M370 358q0 -13 -29 -20l-39 5q-51 7 -51 -53q0 -10 1.5 -27.5t1.5 -24.5q0 -39 -2 -52q-12 -11 -31 -19v-13q-1 -10 -1 -13q0 -14 6 -19q7 -1 23.5 -3.5t24.5 -2.5q7 0 20.5 5t19.5 5q10 0 23 -27q-7 -16 -7 -34q0 -28 -27 -28h-57q-48 0 -65 18q-14 14 -14 48q1 34 1 68
q-4 5 -23.5 6.5t-19.5 14.5q0 132 1 73q-1 72 -12 86q-7 -1 -30 -6q-19 -4 -29 -4q-7 0 -18 9.5t-11 16.5q0 24 83 29q6 4 8 14t4 13q6 10 20.5 13.5t19.5 7.5q9 60 9 78q0 -4 -4 39l-22 14q-7 6 -7 28q0 16 2 52t2 55q10 11 24 11q66 0 66 -38q0 -7 -2.5 -21t-2.5 -22
q0 -10 4 -30.5t4 -30.5q0 -20 -26 -22q-5 -3 -4 -14q3 -22 3 -16q0 -14 -2.5 -42t-2.5 -43q91 -17 117 -17q33 0 43 -19q8 -13 8 -48zM192 657q0 19 -4 27q-16 -3 -16 -14q0 10 3 -56l12 -9q5 28 5 52zM290 72q-22 11 -38 11q-13 0 -28 -3l-1 -6z" />
    <glyph glyph-name="u" unicode="u" horiz-adv-x="494" 
d="M456 109q0 -8 -14 -15t-27 -7q-4 0 -13 5t-14 5q-26 0 -32 -16t-19 -16q-4 0 -24 5t-26 5q-4 0 -96.5 -5t-96.5 -5q-21 0 -25 20q-5 29 -12 36q3 14 3 27q0 12 -3.5 32.5t-3.5 31.5t-3 57q-2 51 -3 70q0 6 1 17v15q0 -5 -5 76q-6 76 -6 73q0 43 30 43q20 0 117 -39
q5 -26 4 -75q-1 -65 0 -83q1 -13 4.5 -48.5t3.5 -40.5q0 -53 -5 -62q-8 -15 -37 -17q-34 -2 -59 -29q2 -4 4.5 -8t7.5 -4q4 0 19.5 3t19.5 3q2 0 27.5 -3t37.5 -3t55 3q34 2 55 0q6 12 11 62q5 44 5 67q0 4 -1.5 17t-1.5 19q-4 0 -17 1.5t-20 1.5l-4 20q-3 16 0 20
q6 10 39 4v23q-1 1 -46 3q-4 5 -4 15q0 17 9 21.5t22 5.5q10 0 23 -1.5t14 -1.5q37 0 37 -23q0 -4 -1 -19q-2 -18 -2 -22q-9 -160 -9 -159q3 -6 8 -6h6q4 1 8 1q21 0 51 -27q8 -46 8 -73zM149 313q0 110 -11 171q-4 18 -28 18q-21 0 -21 -42q0 -21 7 -105.5t7 -110.5h17
q29 0 29 69z" />
    <glyph glyph-name="v" unicode="v" horiz-adv-x="514" 
d="M494 571q0 -3 -24 -55q-27 -56 -34 -82q-12 -49 -57 -183q-38 -114 -49 -181q-2 -7 -13.5 -18t-18.5 -11q-5 0 -10 4t-10 4t-14 -7.5t-14 -7.5q-4 0 -39 22q-21 14 -21 33q0 4 12 21t12 23q0 85 -49 209q-6 -2 -22 -9t-22 -7q-8 0 -20 7q-15 8 -19 17q-1 19 -4 52
q-3 24 -30 94q0 2 -10 16q-8 11 -8 16q0 41 38 51q14 4 75 4q5 0 13.5 -5.5t10.5 -11.5q12 -66 38 -173q19 -82 59 -237q9 13 38 92q29 76 29 82q0 5 -24.5 15t-24.5 15q0 37 21 42q6 1 20.5 -8t21.5 -7q3 0 17 26q-17 9 -34 19q-20 12 -21 20q-1 6 6.5 19.5t14.5 16.5
q6 2 23 -5.5t22 -7.5q11 0 22 51.5t27 59.5q9 5 19 12q5 4 10 4q12 0 27.5 -9.5t15.5 -21.5zM143 420q-2 9 -2 19t2 28t2 26q0 28 -16 38q-5 4 -13 2q-9 -1 -10 -8q-3 -25 37 -105z" />
    <glyph glyph-name="w" unicode="w" horiz-adv-x="691" 
d="M674 481q0 -13 -6 -37q-7 -29 -9 -37q-1 -12 1 -32q2 -25 2 -32q0 -21 -13 -62t-13 -62q0 -5 5 -15.5t5 -16.5q0 -21 -26.5 -51t-47.5 -39q-37 18 -43 18h-35q-15 -1 -34 -1q-21 0 -90 14q-3 -3 -4 -21q-1 -34 -52 -34l-25.5 -1t-47.5 -1q-177 0 -177 49q0 2 5 14t5 17
q11 95 3 138q-2 10 -18 12q-23 2 -28.5 5t-4.5 12q3 20 3 17q0 17 17.5 20t33.5 5v36q-7 3 -29 1t-29 2q-12 7 -12 21q0 11 6 18t16 9q8 1 22 0q19 -1 24 -1q7 0 19.5 2t18.5 2q50 0 62 -12q3 -4 2 -16q-2 -20 -2 -18q0 -7 -8 -7q-3 0 -10.5 1t-11.5 1q-10 0 -13 -6
q1 2 1 -30q0 -5 21.5 -11t23.5 -11q-1 -2 1 -15q1 -11 -7 -17q-21 -4 -44 -12q-7 -91 -7 -110q0 -44 24 -52q7 -3 59 -3q39 0 47 44q2 11 2 77q0 16 -7 44q-11 41 -12 44q14 34 17 47q1 8 1 50.5t6 77.5q12 10 43 24q15 2 37 -11t33 -13q5 0 15 4t15 4q9 0 23.5 -7t14.5 -15
q0 -3 -10.5 -33t-12.5 -39q-13 -85 -10 -133q-7 -9 -36 -30q-19 -14 -18 -43l1 -23q12 -13 50 -13q50 0 70 9q33 15 33 60q0 5 2 14.5t2 15.5q0 7 -1 17.5t-2 15.5v29q15 24 34 30q12 5 45 6q1 2 9 75q5 57 32 57q17 0 30.5 -10t13.5 -26zM364 385q0 76 -30 78
q-21 2 -28 -34q-5 -27 -1 -51q-8 -49 11 -60q5 -3 9 -3q15 0 28 28q11 24 11 42z" />
    <glyph glyph-name="x" unicode="x" horiz-adv-x="495" 
d="M482 512q0 9 -5 -91q-2 -28 -32 -28q-20 0 -28 12q-6 -2 -9 -46q-2 -55 -8 -76q-3 -12 -35 -31q-51 -30 -53 -31l22 -80q14 -44 46 -46q9 4 22.5 -7t13.5 -19t-10.5 -19t-16.5 -11q-1 0 -22.5 7.5t-30.5 6.5q-14 2 -19 4q-12 3 -14 11q-11 42 -38 130l-60 -16
q-35 -11 -55 -30q0 -1 3 -6.5t3 -8.5q0 -4 -2 -22q-1 -14 0 -23q0 -4 4 -13t4 -13q0 -19 -22 -35q-19 -12 -32 -12q-4 0 -37 3t-36 3q-8 0 -15 12.5t-4 19.5q13 8 26 15.5t12 31.5l-22 14t-11 19q0 13 15 18q12 4 25 8q19 10 33 21q143 113 143 117q0 5 -19 54
q-21 57 -36 83q-21 36 -32 36q-4 0 -26 2.5t-26 2.5q-15 0 -15 35q0 10 18 10q9 0 27 -3q15 -2 16 -2q2 22 -12 24q7 -1 -42 -1q-24 0 -24 18q0 9 16 16q12 5 18 5q71 0 82 -10q6 -5 20 -60q6 -8 16 -27q4 -19 29 -86q27 -71 33 -71q14 0 28 29q3 7 10 60q5 35 38 57
q0 87 39 87q31 0 57 -12q30 -14 30 -36zM437 489q-9 1 -29 5q0 -6 -1.5 -18.5t-1.5 -16.5q15 -10 26 -9q6 12 6 39z" />
    <glyph glyph-name="y" unicode="y" horiz-adv-x="504" 
d="M461 455q0 -2 -11 -93q-12 -104 -17 -150q-1 -11 -10 -14t-16 -6q-22 -16 -28 -53q-3 -29 -7 -59q-11 -41 -14 -50q-9 -25 -27 -44q-7 -7 -37 -28q-12 -9 -34 -21q-9 -6 -44 -14q-24 -5 -48 -32q2 -15 -5 -41q-12 -19 -45 -19q-49 0 -60.5 4t-16.5 44q-2 15 -10 48
q-7 29 -7 33q0 18 38 30q29 9 50 9q37 0 55 -46q18 6 38.5 12.5t33.5 20.5q24 27 25 86v83q-38 2 -64.5 12.5t-35.5 15.5q-16 8 -28 23q-19 21 -27 51q-25 71 -69 212q-1 1 5 2.5t8 5.5q5 12 -3 16q-2 2 -13 -2.5t-15 -4.5q-2 0 -3 1q-8 7 -8 36q0 3 9.5 5.5t11.5 7.5
q1 2 -1.5 13.5t-2.5 18.5q0 23 21 23q15 0 25 -23q6 -14 11 -28q15 -1 39 9q4 1 7.5 -11t1.5 -17q-3 -7 -19 -11q-20 -5 -27 -11q0 -7 5 -15q9 4 27 4q27 -12 43 -69q11 -39 50 -146q5 -11 -4 -42q9 -12 41.5 -22.5t59.5 -6.5q8 46 10 106q6 134 5 165q4 7 14.5 16t16.5 9
q3 0 7.5 -3t8.5 -3q5 0 15 5q-2 6 -22 15t-20 24q0 22 27 22q21 0 52.5 -17.5t31.5 -33.5q0 -11 -12 -22q18 -16 18 -30zM413 416q0 10 -10.5 19t-22.5 9h-17q5 -4 5 -23q0 -12 -3 -36.5t-3 -28.5v-109h30q21 136 21 169zM120 -118q-11 43 -10 65q-5 7 -10 7q-25 0 -25 -23
q0 -10 25 -49h20z" />
    <glyph glyph-name="z" unicode="z" horiz-adv-x="605" 
d="M588 74q0 -15 -44 -30q-35 -12 -52 -14q-8 1 -31.5 -6.5t-26.5 -7.5q-7 0 -22 13.5t-19 28.5q-1 5 -13.5 1.5t-15.5 1.5q-7 -2 -7 -9q0 -4 2.5 -12t2.5 -11q0 -8 -9 -8q-3 0 -19 -3q-10 -2 -12 3q-5 11 -6 40q-7 -3 -43 -3q-45 0 -134 4.5t-84 4.5q-9 0 -11 6q-2 3 -1 11
q2 11 2 12q0 33 10 33q4 0 16.5 -3.5t16.5 -3.5q7 0 9 5q4 9 8 13q40 42 75 70q48 39 63 52q76 76 202 196q-4 0 -17 3t-16 3t-57 5q-63 6 -97 9l-26 4q-14 2 -20 -1.5t-7 -16.5q-1 -17 -2 -19.5t-7 -2.5q-5 -1 -12 0q-9 1 -12 1t0 16t-2 21q-8 -1 -16 1q-3 -2 -2 -16.5
t-2 -17.5h-24q-4 0 -4 18q0 10 -1 13q-2 7 -10 7t-20 4v35q0 3 14.5 4.5t14.5 7.5q-1 18 4 51q2 5 22 5q4 0 5 -26.5t6 -29.5q6 -3 14 1q2 8 6 36q2 23 5 23q26 0 28 -13q-1 -19 2 -45q2 -3 25 -3q4 0 34 1.5t34 1.5q3 0 30.5 -5.5t40.5 -6.5q8 -1 25.5 1t25.5 2q18 0 29 -7
q5 10 5 42q1 11 5 16.5t19 5.5q35 0 35 -9q0 -50 0 -47q-4 -50 -3 -74q3 -46 -8 -53q-13 -3 -39 -15q-26 -22 -77 -62q-16 -12 -71 -71q-57 -62 -83 -82q44 -12 147 -12q18 0 26 12q3 13 -1 35q9 11 20 13q26 5 89 5q45 0 53 -15q3 -58 6 -103q0 -5 4.5 -18t4.5 -16zM523 94
q12 31 12 52t-12 27q-13 7 -41 0q-1 -5 -7.5 -22t-6.5 -21q0 -5 10 -46h24q1 0 21 10z" />
    <glyph glyph-name="braceleft" unicode="{" horiz-adv-x="316" 
d="M289 66q0 -7 -7.5 -16t-13.5 -8l-40 7q-16 -9 -25 -9q-13 10 -32 15q-22 6 -31 11q-19 12 -40.5 45t-21.5 53q0 25 16.5 70t16.5 70q-9 3 -47 10q-29 5 -43 18v21q37 26 90 53l9 11q-28 27 -64 62q0 62 56 128q8 7 16 15q12 11 12 19q0 4 -3 8l12 9l-10 22q7 20 21 20
q35 0 93 -16l5 -17q-11 -34 -11 -65q0 -13 -9 -21q-36 7 -76 19q-61 -94 -61 -106q0 -8 22 -29t31 -22l11 5q34 0 34 -49q0 -11 -6 -11t-6 -41q0 -22 -15.5 -61t-15.5 -60q0 -46 30 -77q26 16 54 16q47 0 47 -28q0 -3 -2 -25q-2 -17 0 -28q0 -3 2 -9t2 -9zM249 100
q0 30 -12 30q-10 0 -15 -18q4 -31 20 -31q7 11 7 19zM161 119l-41 49l6 -40l29 -23z" />
    <glyph glyph-name="bar" unicode="|" horiz-adv-x="216" 
d="M176 739q-1 -8 -18 -77q-15 -59 -12 -90q3 -38 -6 -47q-2 -2 -18 -2.5t-18 -2t-3.5 -36.5t-4.5 -187q0 -26 16.5 -30.5t19.5 -21.5q-2 -5 -12 -20q0 -8 7 -13.5t8 -13.5q-4 -9 -7 -30q10 -11 21 -23q18 -22 18 -39q0 -13 -9 -22l-65 -65q-6 -6 -25 -5t-25 7
q-11 32 -36 91q-5 12 -2 25q8 8 21 29q-1 14 8 42q0 2 -4 2t-7 3q-11 11 -11 30q0 11 6 17q9 10 36 14l3 180q1 26 3 64q1 16 -9 26q-3 3 -19.5 6t-19.5 5q-13 14 -7 27q7 17 14.5 35.5t8.5 35.5q3 39 -1 109q-1 24 30 24q25 0 66 -9q38 -9 43 -14q11 -11 10 -24zM107 96
q2 8 3 17q1 7 -7 15q-15 16 -47 3q9 -23 22 -58q3 2 7 4q8 5 22 19z" />
    <glyph glyph-name="braceright" unicode="}" horiz-adv-x="299" 
d="M283 415q0 -8 -9 -18q-20 -4 -57 -17q-46 -17 -46 -27q0 -5 25.5 -22.5t28.5 -22.5q18 -29 18 -64t-49 -66t-49 -47q0 3 14 -40q-2 -4 -13 -8t-20 -2v-19q-2 0 -7 -1.5t-8 -1.5q-16 0 -22 12q-34 75 -34 84q0 23 17 23q3 0 4.5 -1.5t4.5 -1.5q1 0 7 8.5t16 8.5q8 0 13 -6
t10 -13q27 18 53 36q20 14 20 42q0 26 -27 48.5t-60 30.5q-11 7 -10 30q1 34 1 35q-1 5 -7 21t-6 19q0 9 8 38q27 12 54 23q52 27 52 53q0 15 -9 29q-10 18 -26 18h-30q0 -21 -1 -26q-4 -12 -19 -12q-4 0 -83 17q-3 0 -8 14t-5 17q0 30 25 93q3 8 26 8q3 0 14.5 -7t14.5 -7
q2 0 10 2.5t12 2.5q24 0 24 -19q0 -3 -6 -20.5t-6 -20.5q0 -6 38 -10.5t42 -11.5q22 -34 22 -68q0 -42 -8 -47q-27 -16 -77 -44q11 -6 31 -7q26 -5 51 -10q46 -11 46 -25zM105 601v41q0 9 -9 15.5t-16 6.5q-5 0 -10 -21t-5 -33q6 -12 29 -12q8 0 11 3zM205 412q-25 4 -71 10
q5 -39 5 -42q47 21 66 32z" />
    <glyph glyph-name="asciitilde" unicode="~" horiz-adv-x="691" 
d="M672 359q0 -9 -8 -19.5t-18 -10.5q-3 0 -26.5 2.5t-26.5 2.5q-2 0 -7.5 -2.5t-7.5 -2.5q-3 0 -13 5t-15 6q-80 12 -173 12q-20 0 -20.5 -16t-16.5 -16t-19 24q0 2 -1 36q0 43 -23 43q-2 0 -7.5 -1.5t-7.5 -1.5q-3 0 -12 4t-14 5q-110 16 -103 16q-18 0 -22.5 -7t-4.5 -26
q0 -2 5.5 -17t5.5 -17q0 -9 -9 -22t-16 -13q-3 0 -9 2t-8 2q-42 3 -48 3q-27 4 -28 14q-3 22 -3 21q0 70 26 70q3 0 19 -3.5t19 -3.5q10 0 16 18t22 18q5 0 88 -13.5t101 -13.5h15v19q2 2 10 9q3 4 10 4q12 0 22 -15q-6 -28 -6 -56q0 -34 12 -34q3 0 11.5 3.5t11.5 3.5
l30 -5.5t47 -5.5q8 0 28 -1.5t21 -1.5q34 0 38 8q-1 6 -1 13q0 41 39 42q6 0 22 5t17 5q13 0 22.5 -9.5t9.5 -31.5q-1 -29 0 -33q0 -1 3 -7.5t3 -9.5zM628 366q0 29 -2 41h-15q-13 -27 -14 -39q-2 0 6.5 -1t24.5 -1zM93 396q0 22 -10 22q-7 0 -17 -14l4 -14q14 1 23 6z" />
    <glyph glyph-name="exclamdown" unicode="&#xa1;" horiz-adv-x="247" 
d="M19 160q0 3 7.5 15t9.5 12q17 5 47 20q14 12 21 43q5 25 2 45q-15 -1 -38 11q-7 10 -1 25q11 6 45 6q0 3 2 16t2 16q-5 2 -22 0q-16 -1 -18.5 3t-1.5 15t5.5 13t18.5 1t17 1q-3 24 -7.5 32t-4.5 15q0 27 24 27q26 0 61 -18q41 -20 41 -45q0 -2 -5.5 -16.5t-5.5 -27.5
q-1 -35 3 -105q5 -75 5 -68q0 -13 -4 -52t-4 -61q0 -21 3 -37q-10 -28 -27 -28q-3 0 -10 3t-11 3q-3 0 -10.5 -4.5t-10.5 -4.5t-29.5 7.5t-30.5 7.5q-3 0 -5.5 -1.5t-6.5 -1.5q-20 0 -33 13q-16 15 -18 48q-1 26 -2 51q0 2 -4 9.5t-4 11.5zM121 705q0 11 30 22q25 9 33 9
q7 0 44 -21q0 -5 -4.5 -17t-5.5 -18q-2 -10 -2 -21q0 -13 3.5 -34t3.5 -28q0 -35 -75 -35q-8 0 -27 13v130z" />
    <glyph glyph-name="currency" unicode="&#xa4;" horiz-adv-x="538" 
d="M522 185q0 -22 -26 -22q-3 0 -60 1t-60 1q-6 0 -15 -8q1 -9 7.5 -21.5t6.5 -13.5q0 -21 -25 -21q-2 0 -31 3.5t-31 3.5q-3 0 -8.5 -2.5t-8.5 -2.5q-7 0 -15.5 10t-19.5 10q-3 0 -4.5 -1t-4.5 -1q-8 0 -30.5 5.5t-25.5 7.5q-4 13 -3 58q1 61 1 62q-2 45 -10 45
q-3 0 -8.5 -2t-8.5 -2h-66q-60 0 -60 17q0 20 18 20q3 0 27.5 -2t26.5 -2h45q33 4 33 22q0 1 -3 16q-49 12 -54 12q-2 0 -5 -1t-6 -1q-13 0 -22 9q-1 6 -5 16q-10 4 -21 8q-14 7 -14 19q0 10 36 16q40 6 43 9q8 20 9 98q0 51 11 73q15 33 58 33q4 1 11.5 3.5t10.5 2.5
t22.5 -3.5t22.5 -3.5q2 0 80 9q70 9 119 9q1 0 16 -10q1 -8 -3 -21q-3 -9 0 -12q4 -4 4 -3l-5 -2q0 -6 2.5 -15t2.5 -14q0 -9 -8 -18l-3 -1t-7 -1h-55q-33 0 -39 7q-3 4 -11 48q-11 -1 -38 -4t-29 -3q-3 0 -26 1t-26 1q-44 0 -44 -35q0 -2 3 -52q4 -56 5 -83q25 -3 56 0
q-3 25 15 25q11 0 21 -23q10 2 14.5 14.5t14.5 12.5q13 0 14 -17l-2 -18q6 -10 6 -14q0 -8 -6 -17t-12 -9q-2 0 -8.5 3.5t-9.5 3.5t-15.5 -7.5t-15.5 -7.5q-2 0 -8 6.5t-10 7.5l-48 3q-3 -3 -5 -6q0 -6 -1.5 -22.5t-1.5 -18.5q0 -15 6 -32q7 2 21 2q1 11 2.5 22t18.5 11
l17 -15q8 9 16 9q23 0 21 -25q17 -17 17 -22q0 -8 -14.5 -21.5t-17.5 -13.5q-13 0 -18 11q-4 -2 -10.5 -9.5t-9.5 -7.5q-18 0 -22 12t-19 12q-5 0 -5 -37q0 -27 4 -66t7 -41q14 -8 25 -8q3 0 5.5 1t4.5 1q1 3 -1 12q4 4 9 12q12 22 20 22q3 0 102.5 -2t102.5 -2q-8 0 30 9
q1 -3 7.5 -11.5t6.5 -10.5zM443 627q0 13 -13 13q-8 0 -19 -3q-16 -5 -16 -13v-16q5 0 14 -1.5t11 -1.5q23 0 23 22z" />
    <glyph glyph-name="yen" unicode="&#xa5;" horiz-adv-x="739" 
d="M706 298q0 -26 -11 -49q-13 -29 -35 -29q-38 0 -139 23q-104 24 -146 25l1 -30q0 -12 -4.5 -33.5t-4.5 -32.5q0 -10 3 -21q9 0 22 3q9 8 21 8q11 0 31 -4.5t29 -4.5q-11 0 109 0q24 0 24 -24q0 -25 -11 -49q-13 -29 -35 -29q-27 0 -77.5 15.5t-77.5 15.5h-15
q-9 -1 -14 -1q0 -8 2 -23.5t2 -23.5q0 -17 -24 -28l-66 12q-21 -6 -29 -6q-13 0 -13 40q0 26 4 49q-15 -1 -45 -2h-29q-2 4 -18.5 8.5t-19.5 8.5t-7 8q-7 8 -7 19q1 12 8.5 34t6.5 23q9 0 36.5 -30.5t37.5 -30.5q8 0 24 1.5t24 1.5q6 16 16 34l-2 94l-229 2q-7 9 -15 26
q0 7 5.5 14.5t4.5 8.5h40l55 -15l138 6l-1 19q-5 5 -46 17q-30 9 -28 31q-12 10 -36.5 15.5t-31.5 11.5q-14 12 -14 42q0 12 4 36t4 36q0 30 -7 121q-3 4 -34 20q-1 10 1.5 29t2.5 27q0 7 -5.5 18t-5.5 17q0 23 23 26q-5 0 40 0q17 0 27 5q11 0 22 -12.5t11 -23.5
q0 -2 -7 -10.5t-7 -25.5q0 -23 8 -44l-24 -38q-6 -10 -6 -47q0 -132 20 -132q11 0 13 6q1 1 1 15t22.5 25t34.5 8l101 -29q3 -7 1 -20q-1 -10 -2 -19q8 -12 35 -11h10q9 10 9 55q0 13 28.5 32.5t28.5 49.5q0 15 -4 48q-4 38 -8 43q-21 -2 -37 -2l-14 2l2 29q7 7 25 7t25 4
v13q2 -1 -25 -1q-29 0 -28 29v9q4 5 18 5q16 0 57 -1h56l12 -5l1 -29q-14 -1 -37 -8v-13q9 -4 32 -3l1 -23l-2 -15q-16 2 -17 2l-12 -2l-2 -15q0 -42 5 -125t5 -125q0 -11 -9 -22t-20 -11q-15 16 -103 21q-15 -14 -15 -63q7 0 29 -2q19 -1 30 -1t30 6q23 7 29 8q9 9 22 9
q10 0 30 -4.5t29 -5.5q-11 1 109 1q24 0 24 -24zM475 449q0 19 -2 35q-22 -16 -22 -32q0 -38 19 -37h3q2 17 2 34zM149 735q-13 -2 -22 -2v-21q5 -8 19 -18q3 14 3 33v8zM303 389v47q-7 0 -18.5 4.5t-17.5 4.5q-7 0 -20 -3q0 -5 -1.5 -14.5t-1.5 -14.5q0 -27 32 -27
q5 0 13.5 1.5t13.5 1.5z" />
    <glyph glyph-name="brokenbar" unicode="&#xa6;" horiz-adv-x="216" 
d="M176 739q-1 -8 -18 -77q-15 -59 -12 -90q3 -38 -6 -47q-2 -2 -18 -2.5t-18 -2t-3.5 -36.5t-4.5 -187q0 -26 16.5 -30.5t19.5 -21.5q-2 -5 -12 -20q0 -8 7 -13.5t8 -13.5q-4 -9 -7 -30q10 -11 21 -23q18 -22 18 -39q0 -13 -9 -22l-65 -65q-6 -6 -25 -5t-25 7
q-11 32 -36 91q-5 12 -2 25q8 8 21 29q-1 14 8 42q0 2 -4 2t-7 3q-11 11 -11 30q0 11 6 17q9 10 36 14l3 180q1 26 3 64q1 16 -9 26q-3 3 -19.5 6t-19.5 5q-13 14 -7 27q7 17 14.5 35.5t8.5 35.5q3 39 -1 109q-1 24 30 24q25 0 66 -9q38 -9 43 -14q11 -11 10 -24zM107 96
q2 8 3 17q1 7 -7 15q-15 16 -47 3q9 -23 22 -58q3 2 7 4q8 5 22 19z" />
    <glyph glyph-name="section" unicode="&#xa7;" horiz-adv-x="1319" 
d="M1268 658q0 -8 -6.5 -13.5t-10.5 -5.5q-16 0 -16 19q0 2 5.5 8t11.5 6q16 0 16 -14zM1179 681q0 -9 -19 -16q-12 0 -12 16q0 2 1.5 6.5t1.5 8.5l3.5 1t6.5 1q5 0 11.5 -6.5t6.5 -10.5zM1257 546q0 -7 -6.5 -12.5t-10.5 -5.5q-11 0 -18 26q12 11 18 11q17 0 17 -19z
M1074 694q-13 -11 -19 -11q-15 0 -16 26q9 9 20 9q15 0 15 -24zM1266 426q0 -5 -7 -13.5t-14 -8.5q-6 0 -12 6.5t-6 12.5q0 8 6.5 14t12.5 6q20 0 20 -17zM941 717q0 -8 -8.5 -14.5t-13.5 -6.5t-11.5 7t-6.5 11q0 7 9 14t14 7q6 0 11.5 -7t5.5 -11zM1264 275q0 -4 -5.5 -11
t-9.5 -7t-14.5 8t-10.5 12q0 17 25 17q4 0 9.5 -7.5t5.5 -11.5zM814 723q0 -18 -21 -18q-5 0 -10.5 8.5t-5.5 14.5q0 4 6.5 9t9.5 5q21 0 21 -19zM1185 309q0 -21 -15 -21q-3 0 -19 2t-18 2q-44 0 -191 -15q-7 6 -14 18q3 11 4 33q-1 7 -5 21.5t-4 16.5q0 28 33 83
q38 62 42 75q-1 2 -10 2q-16 0 -66 -20q-19 0 -20 19q1 20 1 61q0 3 -6 15.5t-6 14.5q0 4 6 12.5t10 8.5q3 0 11.5 -2t11.5 -2t39 4t38 4q5 0 46 -7.5t76 -7.5q3 0 10.5 1t10.5 1q20 0 27.5 -4t7.5 -19l-68 -131q-15 -23 -48 -75q18 1 55 5q34 4 36 4q4 0 12 -4.5t8 -9.5
q-2 -21 -3 -66q0 -3 4 -10t4 -9zM1277 164q-12 -11 -19 -11t-12.5 9t-5.5 16q9 10 20 10q14 0 17 -24zM686 731q0 -18 -19 -18t-19 13q0 22 21 22q17 0 17 -17zM581 726q0 -7 -5.5 -13t-9.5 -6q-8 0 -14 13q-4 10 -4 17q10 9 16 9q8 0 12.5 -8t4.5 -12zM1266 21
q0 -14 -17 -14q-8 0 -14 8.5t-6 15.5q0 10 17 10q8 0 14 -8t6 -12zM1161 168q0 -8 -12 -15l-16 -8q1 -3 9 -13.5t8 -13.5q0 -20 -18 -20q-9 0 -15 10.5t-16 15.5q-19 -19 -20 -19q-24 0 -24 20q0 8 6 18l-16 6t-8 12q0 14 10 17t19 6q3 8 13 25q20 1 27 -13.5t15 -14.5
q2 0 8 2t9 2q6 0 13.5 -5.5t7.5 -11.5zM875 360q0 -87 -156 -87q-2 0 -33 5.5t-33 5.5t-25.5 -1.5t-25.5 -1.5q-13 0 -20 7t-15 23.5t-8 21.5q0 -7 6.5 24.5t6.5 83.5q0 55 -9 97l-13 52q0 12 7 19q-11 4 -11 17q0 11 5 14q9 6 25 6q29 0 28 0q12 1 44 5q28 3 31 3
q47 0 108 -23q86 -32 86 -89q0 -32 -126 -102q25 -14 65 -20q36 -6 46 -13q17 -12 17 -47zM1155 17q0 -14 -20 -15q-18 0 -18 21q0 14 17 14q21 0 21 -20zM919 251q0 -11 -6.5 -24t-18.5 -13q-4 0 -11.5 5.5t-7.5 8.5q0 10 12 23t21 13q11 0 11 -13zM443 721q0 -53 -16 -53
q-6 0 -61 61q0 -11 -2 -27.5t-16 -16.5q-18 0 -18 24q0 7 2 12l4 44q3 1 7.5 7.5t7.5 6.5q8 0 34 -26q22 -22 25 -27v25q0 17 17 17q4 0 13 -8q3 -5 3 -6q0 -7 -4 -22q0 -1 2 -4.5t2 -6.5zM958 155q0 -10 -9 -19q1 0 -34 -5.5t-38.5 -8t-1.5 -4.5q3 -3 11 -1q10 1 43 5
q27 4 27 3q0 -9 -6 -15q-62 -12 -89 -12q-7 0 -12.5 8.5t-5.5 13.5q0 1 5 13t6 21q1 8 -1 35q8 16 19 16q3 0 8 -1t7 -1q3 0 18.5 4.5t17.5 4.5t18 -7v-19q-19 -9 -40 -12q-8 -1 -13 -15h36q2 0 7.5 5.5t11.5 5.5q15 0 15 -15zM1008 22l-25 -15q-16 0 -16 21q0 5 5 11.5
t10 6.5q6 0 16.5 -8t9.5 -16zM331 767q-25 -89 -59 -89q-32 0 -32 50q0 46 19 46q4 0 12.5 -4t8.5 -10q0 -2 -4 -6.5t-4 -6.5q-3 -18 -3 -22q0 -16 7 -16q26 0 26 37q0 7 -2 21q7 7 17 7q9 0 14 -7zM221 708q0 -19 -15 -19q-8 0 -14 7t-6 13q0 4 6 10.5t10 6.5q7 0 13 -6.5
t6 -11.5zM810 215q0 -6 -8.5 -12t-18.5 -6q0 -15 1.5 -40t1.5 -37q0 -9 -7.5 -15.5t-15.5 -6.5q-14 0 -14 26q0 8 1.5 18.5t1.5 11.5q0 47 -1 40q-9 0 -17 -1t-9 -1q-3 0 -8.5 2t-7.5 2q-1 -1 -8 -39q-5 -26 -18 -26q-6 0 -33 23q-15 13 -31 27q-5 -10 -5 -21
q0 -5 1.5 -13.5t1.5 -10.5q0 -9 -15 -9q-19 0 -19 30q0 74 23 74q4 0 34.5 -27t32.5 -27q4 11 4 23v11q-1 7 -1 9q0 11 16 11q3 0 8.5 -3t7.5 -3q3 0 6 2t6 2t8 -1t8 -1q2 0 24 4.5t25 4.5q25 0 25 -21zM849 36q0 -25 -23 -25q-16 0 -16 16q0 11 10.5 17t19.5 6t9 -14z
M136 694q0 -13 -21 -18q-16 0 -16 18q0 17 18 17q7 0 13 -6.5t6 -10.5zM520 447q0 -7 -11 -30q-31 -66 -108 -103q-25 -12 -133 -46q-74 -24 -84 -24q-6 0 -23 8t-18 10q-3 7 -4 31q-3 112 2 158q6 56 0 104q-1 5 -4 17.5t-3 15.5q0 32 11 35q32 10 93 10q64 0 161 -48
q121 -60 121 -138zM712 24q0 -6 -7 -11.5t-12 -5.5q-7 0 -12.5 6.5t-5.5 10.5q0 3 6 12.5t12 9.5q4 0 11.5 -9t7.5 -13zM579 191q0 -18 -19 -49q-22 -35 -42 -35q-35 0 -35 40q0 28 18 49.5t45 21.5q33 0 33 -27zM103 601q0 -19 -21 -19q-16 0 -16 20q0 15 14 15
q9 0 16 -5.5t7 -10.5zM498 232q-2 -3 -4.5 -6t-5.5 -3t-11 1t-11 1q-38 0 -38 -18l22 -4q16 -4 24 -14v-16q-6 -2 -16 0l-12 2q-16 0 -19.5 -19t-15.5 -19q-13 0 -15 10q-3 24 -8 70q0 1 -3 5.5t-3 7.5q0 18 12 20q25 5 85 5q7 0 19 -11v-12zM579 26q0 -17 -16 -17
q-7 0 -17 9v17q9 9 15 9q7 0 12.5 -7t5.5 -11zM109 480q-8 -9 -16 -9q-7 0 -15 7t-8 13q0 17 22 17q20 0 17 -28zM441 22q0 -15 -14 -15q-7 0 -13 8t-6 12q0 17 16 17q17 0 17 -22zM114 351q0 -3 -7 -10t-12 -7q-11 0 -20 9v23l15 7q5 0 14.5 -9t9.5 -13zM269 196
q0 -11 -11 -14t-11 -13q0 -2 6.5 -12t6.5 -12q0 -21 -18 -21q-3 0 -13.5 5.5t-13.5 5.5q1 0 -10 -17.5t-23 -17.5q-6 0 -11 7t-5 12q0 2 4.5 12.5t4.5 15.5q-1 1 -16 6q-10 3 -10 14q0 10 8 15.5t15 10.5q-8 34 17 34q9 0 20 -11t16 -11q3 0 15 4.5t15 4.5q14 0 14 -18z
M129 229q0 -15 -15 -15q-5 0 -20 9v17q15 9 20 9q15 0 15 -20zM295 29q0 -3 -7 -8.5t-10 -5.5q-18 0 -18 20q0 15 19 15q16 0 16 -21zM112 143q0 -4 -5.5 -14.5t-11.5 -10.5q-16 0 -16 17q7 24 19 24q14 0 14 -16zM179 37q0 -2 -1 -6.5t-1 -8.5q-4 0 -11 -2.5t-10 -2.5
q-12 0 -12 18q0 15 19 15q16 0 16 -13zM1148 325v30q0 25 -16 25q-11 0 -83 -22q-7 0 -18 7q-14 9 -14 19q0 11 9 20q40 38 58 75t55 118q-24 3 -81 10q-50 6 -52 6q-18 0 -53 -10q8 3 17.5 -2t9.5 -13q0 -10 -16.5 -13.5t-31.5 -5.5q0 -14 7 -12q16 -5 25 -5q2 0 14 1t15 1
q38 0 48 -10q0 -1 -2 -15q-19 -32 -39 -64q-40 -67 -40 -90q1 -4 7 -12q8 2 15.5 -3.5t8.5 -11.5q-10 -6 -28 -19q2 -17 31 -17q64 0 101 3q17 4 53 10zM692 504q0 3 -4 9t-7 6q-4 0 -6 -8q10 0 8 -8q-1 -3 -6 -10q15 0 15 11zM847 360q0 4 -4.5 16t-7.5 12q-16 3 -44 7
q-101 17 -101 36q0 11 46 37q27 14 54 29q48 28 48 51q0 45 -86 64q-50 12 -102 12q-2 0 -32 -5t-44 -7q9 -17 9 -31q37 4 45 4q12 0 12 -14q0 -5 -4 -10q7 4 11 4q19 0 44 -17q29 -20 29 -44q0 -15 -13 -31.5t-28 -16.5q-7 0 -18.5 7t-13.5 14q-3 11 -10 29q-13 -7 -36 -18
q1 -11 4 -30l26 7q15 0 15 -11t-43 -33q0 -21 -3.5 -43t-3.5 -21q0 -13 12.5 -27t26.5 -14h10q1 0 -2 16q-3 20 -3 33q0 36 26 36q16 0 36 -11q25 -14 25 -33q0 -18 -13.5 -29.5t-25.5 -21.5q26 -5 49 -5q37 0 68 12q42 17 42 47zM635 560q-17 -3 -43 -13q5 -20 4 -25
q29 3 32.5 15t6.5 23zM699 357q0 10 -24 14v-33q24 0 24 19zM489 446q0 56 -97 109q-87 47 -150 47q-55 0 -69 -13v-19q6 -3 12 -3q3 0 15 2.5t14 2.5q20 0 20 -18q0 -8 -2 -9q-21 -3 -57 -13q0 -11 3 -30h36q26 -2 27 -23q-18 -12 -49 -12h-8.5h-8.5q0 -4 -1 -11t-1 -9
q0 -11 16 -11q3 0 13 2.5t12 2.5q4 0 10 -6.5t6 -12.5q0 -4 -8 -12.5t-13 -8.5q-3 0 -6.5 2.5t-6.5 2.5q-4 0 -12.5 -1.5t-9.5 -2.5t-2 -4.5t-1 -5.5q0 -7 2 -18q1 -2 5 -6.5t4 -7.5t-7 -32.5t-7 -31.5q0 -19 35 -19q2 0 30.5 11t46.5 14q1 0 22 3q72 11 127 50q60 42 60 91
zM550 173v14q-39 -15 -39 -43q0 -3 1.5 -5.5l1.5 -2.5q11 1 22 16q7 11 14 21zM365 450q0 -37 -64 -60q-3 -1 -9.5 -5.5t-9.5 -4.5q-16 0 -19 13q-1 3 -3 59q0 24 -6 36q14 9 19 9q3 0 14.5 -2t14.5 -2q2 0 8.5 1t9.5 1q19 0 32 -13.5t13 -31.5zM339 454q0 11 -18 11
q-10 0 -30 -6q5 -5 4 -16q-2 -19 -2 -20h23q23 23 23 31z" />
    <glyph glyph-name="dieresis" unicode="&#xa8;" 
d="M136 747q0 -2 -4.5 -11.5t-4.5 -14.5q0 -2 2 -12t1 -14q-15 -12 -19 -12q-3 0 -12 2.5t-12 2.5q-2 0 -18.5 -2.5t-19.5 -2.5q-30 0 -30 26q0 2 3.5 13.5t4.5 15.5q1 14 -4 38q21 15 42 15q3 0 10.5 -2t10.5 -2q2 0 8.5 2t8.5 2q13 0 19 -11q14 -26 14 -33zM99 720v21
q0 9 -24 9q-22 0 -22 -15q4 -22 12 -22q-1 0 34 7zM231 721q0 2 4 11.5t4 14.5q0 2 -2 12t-1 14q15 12 20 12q2 0 11.5 -2.5t11.5 -2.5q3 0 19.5 2.5t18.5 2.5q30 0 30 -26q0 -2 -3.5 -13.5t-3.5 -15.5q-2 -14 3 -38q-21 -15 -42 -15q-3 0 -10.5 2t-10.5 2q-2 0 -8 -2t-9 -2
q-12 0 -18 11q-14 26 -14 33zM268 748v-21q0 -9 23 -9q22 0 22 15q-4 21 -12 21q1 0 -33 -6z" />
    <glyph glyph-name="copyright" unicode="&#xa9;" horiz-adv-x="814" 
d="M496 563l1 -7q0 -5 -7 -14h-9q-3 0 -1 8q3 10 2 15q-4 0 -9 2q-2 -9 -8 -24q-1 -2 -7 0q-6 3 -7 3q3 12 0 21q-4 2 -36 2q-68 0 -68 -44q0 1 9 -35q3 -27 11 -79q0 -18 -4 -53q-9 -9 -9 -24q0 -4 1.5 -13t1.5 -13q0 -6 -1.5 -16.5t-1.5 -15.5q0 -16 12 -26q28 -2 33 -8
q7 -13 14 -25q19 2 54 4q10 0 25.5 -1.5t23.5 -1.5q5 -19 1 -21q-9 -6 -100 -5q-7 -15 -19.5 -16.5t-25.5 -2.5q-4 -2 -14 -8q-3 -3 -30 -3q-41 0 -41 41q0 35 18 49.5t18 42.5q0 36 -7 47q-4 7 -17 8.5t-21 8.5q-6 78 -6 88q0 101 54 147q55 9 90 9q16 0 20 -1h16
q4 13 2.5 18.5t4.5 5.5q17 -2 12 -2l4 -28q4 -3 5 -1q1 4 1.5 15t1.5 11q14 0 15 -1v-16q0 -11 12 -12q-9 1 21 1q3 0 4 -12t-3 -16.5t-36 -1.5zM397 200l-3 19l-13 7l-1 -32zM345 224q0 4 -2 8q-2 1 -10 1q-17 0 -17 -8v-16q0 -15 2 -20q8 0 24 -1q3 32 3 36zM244 150
q0 -2 -7 -12t-7 -16q0 -5 3 -14t3 -14q0 -1 -2.5 -5.5t-2.5 -6.5q-24 -11 -35 -11q-2 0 -46 -2q-15 0 -22 5.5t-6 25.5v34q-14 7 -37 31q-16 34 -33 87q-22 70 -22 108v92q0 36 26 94q25 54 54 87q0 1 -6 21q13 23 22 23q3 0 19.5 -6t19.5 -6t11.5 5t12.5 5q23 0 26 -34
q0 -19 1 -38q9 -15 9 -21q0 -13 -29 -21q-34 2 -84 11q-13 -15 -29 -46q-15 -60 -15 -154q0 -38 17 -102q23 -89 60 -89q2 0 15 4.5t16 4.5q20 0 42 -10q26 -12 26 -30zM199 128q0 24 -21 24q-17 0 -24 -10v-25q2 -10 19 -10q26 0 26 21zM791 314q0 -38 -51 -120t-51 -80
q0 -6 4 -16.5t4 -15.5q0 -8 -22 -25l-29 9l-34 -9q-32 0 -32 23q0 11 6 34t6 35t-4 22q0 11 28 19l38 -12l16 4l9 -9q18 8 29 27q8 18 17 37q5 10 12 28q19 45 19 109q0 55 -6 82q-3 14 -23.5 55t-28.5 42q-13 -11 -23 -11q-3 0 -12.5 2t-17.5 2l-52 -7q-9 -2 -16 7t-7 18
q0 71 14.5 84.5t85.5 13.5q23 0 26 -18t6 -35q1 -3 26 -30q30 -33 44 -71q11 -28 19 -84q3 -19 3 -44q0 -17 -1.5 -40t-1.5 -26zM651 119q0 7 -4.5 16t-8.5 9h-12q-5 -30 -5 -42q11 -5 14 -5q16 0 16 22z" />
    <glyph glyph-name="logicalnot" unicode="&#xac;" horiz-adv-x="749" 
d="M712 389q0 -5 -4.5 -8.5t-7.5 -5.5q3 -10 3 -21q0 -26 -21 -26q-4 0 -37 2t-37 2q-3 0 -11 -3.5t-11 -3.5q-5 0 -11 6t-8 7q-23 -21 -42 -55t-29 -43q-3 -2 -28 -5q-9 -8 -18.5 -16.5t-15.5 -8.5q-29 0 -44 67q-8 36 -10 74q-22 -10 -20 -10q-19 0 -43.5 41.5t-39.5 41.5
t-92 -127q-13 -16 -35 -51q-1 -8 -5.5 -20.5t-25.5 -12.5q-12 0 -15 20q-4 17 1 27q-5 5 -13 5q-4 0 -8.5 -2t-8.5 -2q-50 0 -50 44q0 10 19 53.5t31 43.5q9 0 52 -13l43 -13q19 0 78 108q0 12 12 30q17 9 32 9q11 0 58 -28.5t51 -35.5q5 -20 18 -61q7 -24 52 -73
q27 20 71 89q1 13 11 37q16 19 65 56q1 2 -2.5 12.5t-3.5 16.5q0 16 22 16q14 0 42.5 -23.5t28.5 -37.5q0 -19 -25 -19q-5 0 -11 3.5t-10 3.5q-11 0 -11 -12t10 -24q7 -9 37 -17q6 -1 11.5 -15t5.5 -22zM651 374q-9 18 -22 18q-14 0 -26 -18h48zM137 323q-1 11 -11 21
t-18 10q-10 0 -18 -9.5t-5 -23.5q47 -5 39 -5q7 0 13 7z" />
    <glyph glyph-name="registered" unicode="&#xae;" horiz-adv-x="777" 
d="M561 207q0 -14 -18 -14q-8 0 -17 10.5t-12 10.5t-15 -7.5t-14 -7.5t-12.5 11t-16.5 13t-16 6q-11 9 -11 17q0 3 9.5 14.5t9.5 13.5q0 11 -38 49t-42 38q-8 0 -22 -22q-4 -1 -14 -5q0 -2 -1 -5.5t-1 -6.5q0 -2 1.5 -21.5t1.5 -31.5q1 0 10 1q7 1 10 0q5 -1 5 -6
q0 -10 -3 -12q-7 -2 -15 -4t-8 -10q0 -10 6 -12h13q9 -1 9 -11t-4 -12q-9 -6 -21 -4v-12q6 -3 12.5 -6t6.5 -9q0 -5 -6.5 -7.5t-12.5 -5.5l-5 -7.5t-8 -4.5q-3 0 -7.5 5.5t-6.5 6.5l-15 3q-6 2 -6 12q0 8 6 9q12 4 15 6q0 4 -2 11q-7 1 -18 6q-1 2 -1 8q0 7 2 8q7 0 16 4
q2 2 2 20q0 2 -9.5 2.5t-9.5 2.5q0 16 2.5 18t9.5 1q6 -1 6 0t-3.5 39t-3.5 53q-1 34 -8 99q0 7 -4 23.5t-5 32.5q-1 23 -1.5 26.5t-4.5 14t-4 12.5q0 9 11 16q-2 4 -2 7q0 13 24 20q17 6 33 6q3 0 40.5 -5.5t40.5 -5.5q2 0 14.5 3.5t14.5 3.5q14 0 27 -6q4 -6 14 -17v-77
q0 -24 -36.5 -73t-55.5 -56q7 -18 73 -77q2 0 14.5 5.5t15.5 5.5q9 0 23 -13q20 -17 24 -20q1 -3 3 -11t2 -11q0 -2 -6.5 -11t-6.5 -11q0 3 2 -5q20 -22 20 -31zM401 554q0 3 -4 13.5t-4 14.5q-4 3 -13 3q-30 0 -35 -38q-1 -24 -1 -49q-10 -120 -10 -108q0 -7 2 -12
q17 17 44 51q14 25 14.5 38t3.5 46t3 41zM515 269q0 12 -14 12q-7 0 -18 -12t-9 -19l15 -8q3 0 14.5 11t11.5 16zM249 150q0 -2 -7 -11.5t-7 -15.5q0 -5 3 -14.5t3 -13.5q0 -2 -2.5 -6.5t-2.5 -6.5q-24 -10 -35 -10q-2 0 -46 -3q-15 0 -22 5.5t-6 25.5v34q-14 7 -37 31
q-16 34 -33 88q-22 69 -22 108v92q0 36 25.5 92t54.5 89l-6 21q13 22 22 22q3 0 19.5 -5.5t19.5 -5.5t11.5 4.5t12.5 4.5q23 0 26 -34q0 -19 1 -38q9 -14 9 -21q0 -13 -29 -21q-34 2 -84 12q-13 -16 -29 -47q-15 -59 -15 -154q0 -38 17 -102q23 -89 60 -89q2 0 15 5t16 5
q20 0 42 -11q26 -12 26 -30zM204 129q0 24 -21 24q-17 0 -24 -11v-25q2 -10 19 -10q26 0 26 22zM771 314q0 -38 -51.5 -120t-51.5 -80q0 -6 4 -16.5t4 -15.5q0 -8 -22 -25l-28 9l-34 -9q-33 0 -33 23q0 11 6 34t6 35t-4 22q1 11 28 19l38 -12l17 4l8 -9q19 8 28.5 26.5
t18.5 37.5q5 10 12 28q18 45 18 109q0 55 -5 82q-3 14 -24 55t-29 42q-12 -11 -22 -11q-4 0 -13.5 2t-16.5 2l-52 -7q-9 -2 -16 7t-7 18q0 71 14.5 84.5t85.5 13.5q22 0 25.5 -18t5.5 -35q1 -3 27 -30q30 -33 44 -71q10 -28 19 -84q3 -19 3 -44q0 -17 -1.5 -40t-1.5 -26z
M631 119q0 7 -5 16t-9 9h-12q-5 -30 -5 -42q11 -5 14 -5q17 0 17 22z" />
    <glyph glyph-name="overscore" unicode="&#xaf;" horiz-adv-x="565" 
d="M537 701l-4 -4q3 -5 3 -13l-3 -15q-24 -6 -66 -6q-14 0 -44 1h-47q-43 0 -76 -4q-14 -2 -46 -6q-48 -5 -88 -5q-8 0 -27.5 3.5t-32.5 1.5l-25 12l-44 -10q-11 -2 -25 26q0 33 14 40q6 3 39 3q27 0 27 12q0 7 13 7h18q8 1 8 7q9 9 24 9q8 0 25 -3.5t25 -3.5q5 0 9 1
q5 1 33 -16.5t33 -16.5q27 5 68 6q28 0 76 -1q53 -2 69 -2q31 0 34 -1q10 -3 10 -22zM199 730q-3 0 -28 2q-21 1 -31 0q-15 -1 -15 -8q0 -15 12 -26.5t27 -11.5l20 5q-1 9 10.5 22t11.5 14q0 3 -7 3z" />
    <glyph glyph-name="overscore" unicode="&#x2c9;" horiz-adv-x="565" 
d="M537 701l-4 -4q3 -5 3 -13l-3 -15q-24 -6 -66 -6q-14 0 -44 1h-47q-43 0 -76 -4q-14 -2 -46 -6q-48 -5 -88 -5q-8 0 -27.5 3.5t-32.5 1.5l-25 12l-44 -10q-11 -2 -25 26q0 33 14 40q6 3 39 3q27 0 27 12q0 7 13 7h18q8 1 8 7q9 9 24 9q8 0 25 -3.5t25 -3.5q5 0 9 1
q5 1 33 -16.5t33 -16.5q27 5 68 6q28 0 76 -1q53 -2 69 -2q31 0 34 -1q10 -3 10 -22zM199 730q-3 0 -28 2q-21 1 -31 0q-15 -1 -15 -8q0 -15 12 -26.5t27 -11.5l20 5q-1 9 10.5 22t11.5 14q0 3 -7 3z" />
    <glyph glyph-name="overscore" unicode="&#x2c9;" horiz-adv-x="565" 
d="M537 701l-4 -4q3 -5 3 -13l-3 -15q-24 -6 -66 -6q-14 0 -44 1h-47q-43 0 -76 -4q-14 -2 -46 -6q-48 -5 -88 -5q-8 0 -27.5 3.5t-32.5 1.5l-25 12l-44 -10q-11 -2 -25 26q0 33 14 40q6 3 39 3q27 0 27 12q0 7 13 7h18q8 1 8 7q9 9 24 9q8 0 25 -3.5t25 -3.5q5 0 9 1
q5 1 33 -16.5t33 -16.5q27 5 68 6q28 0 76 -1q53 -2 69 -2q31 0 34 -1q10 -3 10 -22zM199 730q-3 0 -28 2q-21 1 -31 0q-15 -1 -15 -8q0 -15 12 -26.5t27 -11.5l20 5q-1 9 10.5 22t11.5 14q0 3 -7 3z" />
    <glyph glyph-name="plusminus" unicode="&#xb1;" horiz-adv-x="565" 
d="M537 73l-4 -4q3 -5 3 -13l-3 -15q-24 -6 -66 -6q-14 0 -44 1h-47q-43 0 -76 -4q-14 -2 -46 -6q-48 -5 -88 -5q-8 0 -27.5 3.5t-32.5 1.5l-25 12l-44 -10q-11 -2 -25 26q0 33 14 40q6 3 39 3q27 0 27 12q0 7 13 7h18q8 1 8 7q9 9 24 9q8 0 25 -3.5t25 -3.5q5 0 9 1
q5 1 33 -16.5t33 -16.5q27 5 68 6q28 0 76 -1q53 -2 69 -2q31 0 34 -1q10 -3 10 -22zM199 102q-3 0 -28 2q-21 1 -31 0q-15 -1 -15 -8q0 -15 12 -26.5t27 -11.5l20 5q-1 9 10.5 22t11.5 14q0 3 -7 3zM503 462l-3 -4l2 -11l-2 -13q-23 -6 -78 -4q-78 3 -82 3l-24 -1l-1 -71
q0 -23 14.5 -27t16.5 -18q-4 -10 -10 -18q-1 -6 6 -12.5t7 -13.5q0 -3 -3.5 -10.5t-3.5 -12.5q35 -38 35 -55q0 -16 -32.5 -47.5t-50.5 -31.5q-10 0 -25 6q-10 25 -20 49q-14 34 -14 49q0 6 9 15t10 13q-1 12 7 36q-9 -1 -15 12q-5 10 -5 19q0 21 37 27l2 91l-8 -2
q0 -2 -9 -3q-13 -1 -30 -1h-24q0 -18 -22 -18q-9 0 -28 2.5t-29 2.5q-26 0 -77 -11q-8 -2 -21 22q0 28 11 34q6 4 35 4q8 0 31 15t23 18q4 4 9 4q9 0 25 -15.5t27 -15.5q6 0 13 6.5t11 7.5q16 3 63 3q0 16 1.5 34.5t1.5 33.5q0 24 -24 28t-24 23q0 4 10 29t11 38
q-1 -9 -1 94q0 21 26 21q33 0 62 -7q41 -11 41 -34q0 -22 -13 -72.5t-13 -79.5t-5 -34q-10 -1 -26 -2q-5 -1 -6.5 -3t-4.5 -75q87 -2 176 -2q11 0 11 -15zM182 432q-3 14 -19.5 16.5t-30.5 4.5q7 -26 32 -26zM327 200q0 22 -25 22q-9 0 -22 -5q7 -17 19 -51q5 0 25 20
q3 15 3 14z" />
    <glyph glyph-name="acute" unicode="&#xb4;" horiz-adv-x="161" 
d="M142 718q0 -1 -4 -10.5t-4 -15.5q1 -7 3.5 -18t2.5 -17q0 -10 -6 -20q-2 -4 -17 -9l-16 -66q-17 -57 -27 -57q-2 0 -8 -2t-9 -2q-7 0 -9 10q-4 25 12 73q9 24 18 49q-6 4 -22.5 6.5t-24.5 11.5q0 2 -1.5 30.5t-1.5 32.5q0 3 2 6t2 4q-6 10 -3 21q1 6 9 11q5 3 12 3
q2 0 9.5 -3.5t11.5 -4.5q12 -3 38 -3q3 0 7.5 2.5t7.5 2.5q18 0 18 -35zM91 701q-6 24 -17 24q-2 0 -4 -2t-3 -16t-2 -26q-1 -13 9 -14t15 10.5t2 23.5z" />
    <glyph glyph-name="paragraph" unicode="&#xb6;" horiz-adv-x="452" 
d="M409 595q0 -12 -21 -17q-13 -4 -26 -7q1 -24 -1 -70q-2 -53 -2 -46q0 -104 5 -138q5 -25 21 -179q-15 -5 -23 -5q-12 0 -18.5 9.5t-11.5 9.5q-10 0 -12 -19t-19 -19q-21 0 -27 19q-2 0 -6 -2.5t-8 -2.5q-8 0 -20 8v23q12 7 29 8q9 1 12 14q-3 2 -9 0q-9 -3 -10 -3
q-4 0 -11.5 9t-7.5 13q0 5 18 15t19 12q3 12 3 32q0 -1 -3.5 41.5t-3.5 65.5q-20 -5 -35 -5q-3 0 -33 3.5t-33 3.5q-2 0 -13 -6t-14 -6t-15.5 7.5t-19.5 8.5q-45 6 -62 14q-27 13 -27 45q0 53 3 83q3 26 19 58q11 20 29 23q44 8 55 8t83 -12q6 6 6 10q0 2 -2.5 6.5t-2.5 7.5
t10 11t13 8q9 0 16 -14q4 -9 9 -17q4 -3 25 -5q14 -14 11 -51q-1 -9 3 -31t4 -30q0 -5 -2 -32q-1 -23 0 -37q0 -2 6.5 -14.5t5.5 -16.5q-4 -42 -2 -84l4 -68q2 -3 12 -9q6 -4 6 -12q0 -11 -14 -22q5 -3 15 -10q6 25 6 30t-5.5 51.5t-5.5 73.5q-3 183 -2 190q0 25 -4 43
q-1 1 -6 6.5t-5 8.5q0 26 26 26q3 0 6.5 -1t6.5 -1t15.5 3.5t15.5 3.5q25 0 25 -20zM271 455q0 16 -10 97q-2 11 -10 11q-4 0 -7 -1.5l-3 -1.5q0 -11 -3 -30t-3 -20q0 -4 2 -9.5t2 -7.5q-1 -29 2 -74q1 -5 25 -10q5 31 5 46zM212 544q0 14 -4 24q-3 -3 -10 -6
q-6 -9 -26.5 -16t-20.5 -8q-10 -16 -18 -49q-7 -27 -7 -34q27 -49 39 -49h25q22 0 22 138z" />
    <glyph glyph-name="middot" unicode="&#xb7;" horiz-adv-x="187" 
d="M150 433q0 -2 -4.5 -11.5t-4.5 -14.5q0 -2 2.5 -12t1.5 -14q-15 -12 -20 -12q-3 0 -12 2.5t-12 2.5q-2 0 -18.5 -2.5t-18.5 -2.5q-31 0 -31 26q0 2 4 13.5t4 15.5q2 14 -3 38q21 15 42 15q3 0 10.5 -2t9.5 -2q3 0 9 2t9 2q12 0 18 -11q14 -26 14 -33zM113 406v21
q0 9 -23 9q-22 0 -22 -15q4 -21 12 -21q-1 0 33 6z" />
    <glyph glyph-name="middot" unicode="&#x2219;" horiz-adv-x="187" 
d="M150 433q0 -2 -4.5 -11.5t-4.5 -14.5q0 -2 2.5 -12t1.5 -14q-15 -12 -20 -12q-3 0 -12 2.5t-12 2.5q-2 0 -18.5 -2.5t-18.5 -2.5q-31 0 -31 26q0 2 4 13.5t4 15.5q2 14 -3 38q21 15 42 15q3 0 10.5 -2t9.5 -2q3 0 9 2t9 2q12 0 18 -11q14 -26 14 -33zM113 406v21
q0 9 -23 9q-22 0 -22 -15q4 -21 12 -21q-1 0 33 6z" />
    <glyph glyph-name="middot" unicode="&#x2219;" horiz-adv-x="187" 
d="M150 433q0 -2 -4.5 -11.5t-4.5 -14.5q0 -2 2.5 -12t1.5 -14q-15 -12 -20 -12q-3 0 -12 2.5t-12 2.5q-2 0 -18.5 -2.5t-18.5 -2.5q-31 0 -31 26q0 2 4 13.5t4 15.5q2 14 -3 38q21 15 42 15q3 0 10.5 -2t9.5 -2q3 0 9 2t9 2q12 0 18 -11q14 -26 14 -33zM113 406v21
q0 9 -23 9q-22 0 -22 -15q4 -21 12 -21q-1 0 33 6z" />
    <glyph glyph-name="cedilla" unicode="&#xb8;" horiz-adv-x="311" 
d="M283 -118q0 -7 -12 -26q-14 -24 -27 -24q-4 0 -9 4t-8 4q-56 0 -83 -4q-4 -1 -11.5 -7.5t-10.5 -6.5q-2 0 -23.5 9t-26.5 9q-3 0 -14.5 -3t-14.5 -3q-28 0 -28 39q0 51 51 51q3 0 7 -2.5t7 -2.5t17.5 5t18.5 5q7 0 19.5 -8t12.5 -19q0 -3 -5.5 -6.5t-5.5 -6.5
q0 -5 10 -14l50 4q38 6 38 33q0 32 -15 42q-4 3 -27 8q-15 3 -15 18q0 3 4 17t5 18v74q18 9 25 9q10 0 14 -10q6 -16 16 -24q-4 -38 -2 -59q12 -7 24.5 -14.5t15.5 -16.5q4 -13 1 -38q-3 -27 -2 -36q0 -2 2 -8.5t2 -9.5zM101 -123q1 3 0 4q-2 7 -11 7t-11 -7v-4q1 -6 11 -6
t11 6z" />
    <glyph glyph-name="onequarter" unicode="&#xbc;" horiz-adv-x="1854" 
d="M1828 608q-101 -52 -207.5 -133t-169.5 -153q4 0 20 -2t24 -2q24 0 54 35.5t64 35.5q7 0 35 -9t36 -9q7 0 35 26.5t36 26.5q10 0 26 -17t16 -27q-1 -13 -7.5 -48.5t-6.5 -55.5t5 -36q1 -2 10 -21q7 -13 7 -22q0 -18 -17.5 -31t-32.5 -13q-8 0 -47.5 12t-47.5 12
q4 0 -117.5 -4t-176.5 -4q-75 0 -112 -6q-19 -3 -60 -19q-37 -15 -44 -15q-53 0 -53 42q0 43 46 80q18 14 95 60q59 35 77 63q-11 15 -23 15q-7 0 -34 -23.5t-34 -23.5q-16 0 -31 11q-19 14 -23 38q-1 5 6.5 48.5t7.5 62.5q0 6 -2 14.5t-2 12.5q1 13 -2 39q-3 9 -16 41
q-12 25 -12 33q0 14 19.5 34t30.5 20q8 0 31.5 -15t30.5 -15q6 0 14 3t16 3q7 0 25 -9t25 -9t41 28q44 35 71 51q47 27 86 27q13 0 107 -29q107 -33 160 -59q8 -5 14.5 -26.5t6.5 -37.5zM1080 566q0 -68 -29 -110.5t-113 -93.5q15 -17 46 -40q28 -21 38 -33q16 -21 16 -50
q0 -43 -60 -77q-43 -24 -114 -43q-35 -7 -69 -15q-8 -3 -47 -20q-32 -14 -37 -14h-41q-7 0 -13 9.5t-12 12.5l-40 10q-31 10 -31 30q0 12 6.5 39t7.5 38q2 39 1 110q-2 83 -1 114q1 46 -16 100.5t-17 47.5q0 61 160 102q117 30 182 30q71 0 125 -41q58 -43 58 -106zM549 407
q0 -74 -86 -160q-68 -68 -174 -131q-87 -53 -131 -65q-9 -3 -34 -19q-21 -15 -35 -15q-18 0 -34.5 10t-17.5 23q-10 168 -5 254q4 38 9 76q9 71 9 115q0 31 -4 50q-2 9 -16 33q-12 21 -12 29q0 20 19 33.5t37 13.5q52 0 150 -21q132 -28 215 -75q110 -64 110 -151zM1698 615
q-18 26 -40 26l7 -33q6 0 18.5 3.5t14.5 3.5zM1530 609q-78 -6 -94 -10q-42 -8 -91 -34q7 -45 13 -89q9 -49 20 -52q45 47 90 93q63 68 62 92zM1710 281q-5 2 -32 15q-21 10 -29 10q-27 0 -27 -26q0 -9 3.5 -16.5t3.5 -9.5h36q16 -1 21 -1q11 0 24 28zM1264 543v34h-10v-34
h10zM1003 560q0 34 -50 58q-39 19 -71 19q-21 0 -133 -32q30 -27 45 -27q7 0 55.5 8.5t56.5 8.5q19 0 37.5 -22t18.5 -40q0 -29 -21 -52q-24 -25 -26 -32q25 6 56.5 45t31.5 66zM854 512q-17 -6 -45 -18v-34q45 33 45 52zM944 244q0 17 -37 29q-29 10 -49 10q-25 0 -38 -22
q12 -6 35 -35q20 -26 27 -26q62 22 62 44zM749 290q-24 30 -24 79q0 9 1 25v23q0 17 -2 29q-19 48 -41 131q-22 -11 -22 -29q0 3 7 -120.5t7 -182.5q52 47 74 45zM687 183v34h-11v-34h11zM466 412q0 52 -79 89q-59 27 -151 43q-75 12 -93 9l-24 -142q-12 -84 -12 -143
q0 -26 10.5 -68t22.5 -65q0 8 13 91t13 98q0 8 -10 46q-11 45 -14 63q36 27 62 27q51 0 99 -19q69 -26 69 -79q0 -30 -24 -75q-31 -60 -34 -69q84 67 100 84q52 55 52 110zM282 353q-34 -23 -34 -38q0 -8 4 -13.5t4 -6.5q10 17 26 58z" />
    <glyph glyph-name="onehalf" unicode="&#xbd;" horiz-adv-x="1332" 
d="M1317 217q0 -9 -18 -33q-21 -27 -26 -45t-11 -36q-8 -27 -8 -45q0 -13 4 -22q1 -16 -31 -25l-50 -10q-10 23 -28 27q-81 14 -156 32q-94 23 -111 27q-21 8 -98 32q-5 2 -11 11.5t-9 12.5q-189 -45 -210 -45q-36 0 -49 25q-5 9 -4 30q2 30 1 36l-6 116q-4 72 -15 107
q-63 -54 -191 -150q-158 -119 -181 -119q-25 0 -37 21l-4 33q-12 90 -15 158q-7 95 -20 287q1 17 -4 48q-2 5 -12 20q-7 10 -7 17q0 13 10 24t20 11q5 0 18 -4t19 -4q5 0 13 4t13 4q19 0 94 -11q94 -15 135 -31q71 -29 133 -76q3 5 1 42q-2 30 23 38q51 0 150 10q4 1 17 16
t23 18q37 14 108 14q4 0 29 -8t30 -8q4 0 16 6t18 6q5 0 16.5 -7t18.5 -8q26 -4 205 -19q60 0 60 -71q0 -26 -46 -197q-24 -89 -48 -177q66 -11 131 -22q100 -22 100 -60zM1095 632q0 19 -49 31q-37 9 -67 10q-3 0 -10 -2t-12 -2t-12.5 3.5t-11.5 3.5v-108q36 4 75 4
q36 0 65 -12q22 60 22 72zM1204 190q-88 28 -137 28q-9 0 -23.5 -1.5t-21.5 -1.5q-8 0 -20.5 20t-12.5 33q71 172 68 215q-32 -79 -118 -198q-79 -109 -79 -108q0 -18 54 -26q117 -19 190 -38q57 -15 51 -15q19 0 29 33q18 55 20 59zM973 494h-44q-23 1 -24 1q-5 0 -25.5 10
t-25.5 10q-6 0 -27 -31q-25 -36 -35 -46q-14 -13 -74 -51q87 -53 132 -107q43 73 123 214zM803 588q0 49 -64 74q-47 19 -106 19q-47 0 -65 -22q-14 -17 -14 -54q0 -9 1 -30t1 -32q0 -76 1 -90.5t10.5 -45t9.5 -34.5t-7 -32q-7 -32 -9 -43q-1 1 -1 -18t8 -56q8 -44 9 -57
q20 6 48 5q-3 7 -26 27q-18 15 -18 37q0 18 16 54q14 33 27 49l-11 43q0 22 23 39q13 8 42.5 19.5t38.5 19.5q86 66 86 128zM787 244q0 10 -13 21q-23 20 -26 23q0 -20 -19 -88q58 18 58 44zM447 525q0 55 -99 86q-68 21 -113 21q-35 0 -47 -6q-16 -9 -16 -38q0 -8 6 -40
q7 -35 8 -47q4 -75 19 -204q46 21 130 87q112 88 112 141zM714 539q0 -36 -32 -56q-26 -17 -57 -17q-48 0 -48 55q0 17 34 44t53 27q21 0 37 -21q13 -18 13 -32zM358 491q0 -27 -28.5 -48t-52.5 -21q-18 0 -33.5 20t-15.5 32q0 47 19 61q15 12 60 12q18 0 36 -24
q15 -21 15 -32z" />
    <glyph glyph-name="questiondown" unicode="&#xbf;" horiz-adv-x="596" 
d="M5 131q0 20 6 76q7 8 21 22q11 7 69 38q100 52 100 149q0 5 -10.5 6t-10.5 5q0 -5 -4 14q-2 12 3 20q3 5 15 5.5t12 1.5q0 27 1 26q-3 3 -13 4.5t-13 5.5v28q0 2 28 3q8 0 10 2q1 11 2 21q3 16 11 22h18q-1 -15 11 -38q2 -2 21 -3.5t19 -4.5q0 -30 -5 -30h-13
q-10 1 -14 1t-9 -5l2 -31q17 2 47 -3q4 -3 -1 -31q-16 -1 -44 -9q-1 -14 10 -38t11 -26q0 -7 -47 -55q-10 -5 -26 -16q-52 -45 -61 -54q-48 -46 -57 -68v-34q0 -29 3 -40q46 -8 138 -25q6 -4 16 -9q53 -12 95 -12q94 0 130 8v21q0 18 -14 24t-28 11q-4 14 -11 45
q-3 34 -3 95q0 27 13 55q17 35 42 35q1 0 51 3q29 0 38 -26q1 -2 -1.5 -9.5t-2.5 -9.5q-1 -16 1 -44q4 -33 4 -45q0 -18 9 -105q0 -2 5 -8t5 -10q0 -9 -15.5 -19t-22.5 -10t-17 5q-5 -8 -13 -40q-3 -16 -28 -16q-3 0 -18 2.5t-18 2.5t-76 -4t-76 -4q-2 0 -33.5 5.5
t-47.5 5.5q-5 -1 -5 -11q-1 -13 -3 -16q-12 -19 -50 -19q-3 0 -7.5 3.5t-7.5 3.5q-26 1 -73 10q-30 12 -59 43q-5 5 -2 52q1 8 -3 27.5t-4 20.5zM164 755q0 9 11 19.5t16 10.5q18 0 67 -11q59 -13 59 -26q0 -9 -3 -27.5t-3 -28.5q3 -18 0 -52q-2 -6 -16 -17t-20 -11
q-12 0 -51.5 16t-42.5 21q-7 12 -6 38q0 34 -0.5 37.5t-5.5 15t-5 15.5zM474 191q0 -49 48 -55q0 2 1.5 6.5t1.5 7.5t-8 53q-9 58 -12 80h-17q-9 -8 -9 -31q0 -31 -1 -34q-4 -21 -4 -27zM236 695q0 -4 3 -12t3 -11h15q3 2 7.5 14.5t4.5 18.5q0 23 -21 23q-4 0 -8 -13t-4 -20
z" />
    <glyph glyph-name="Agrave" unicode="&#xc0;" horiz-adv-x="518" 
d="M495 106q0 -8 -11 -19t-20 -12q-50 -7 -78 -5q-24 6 -70 15l-25 -32l-28 5l-41 -12q-4 -1 -20 10q-10 7 -19.5 13t-47.5 8q-33 3 -37 12q-8 18 -8 33q0 8 3.5 24.5t3.5 25.5q-16 3 -26 8q0 5 -1.5 18.5t-1.5 20.5q0 29 5 98q6 79 13 91.5t35 12.5q8 0 45 -5l34 13
q16 -20 98 -20q33 0 41 8q-3 49 -12 145l-9 2l-128 -32l-15 5q-4 0 -10.5 -11t-13.5 -11q-12 0 -36 -2.5t-36 -2.5q-40 0 -45 17l-6 54q14 9 69 21q52 11 73 12l17 -22q3 3 7 23q3 16 13 16q13 0 15.5 -18.5t15.5 -18.5l33 2l40 20l10 -2l17 7q14 0 25 -8q15 -10 22 -13
q9 -9 12 -33q1 -16 0 -50q-2 -41 -2 -55q1 -36 -2 -99q0 -14 10 -46q9 -28 6 -45q10 -12 37 -16t33 -16q2 -5 9 -64t7 -70zM143 567l-1 2h-13q-11 1 -29 -3q-23 -4 -30 -5v-16l16 -3q16 0 34 5q23 7 23 20zM359 134q0 36 -6.5 108t-6.5 109q0 15 -8 26l-122 -8q5 -6 5 -13
q0 -12 -18 -22t-31 -9q-5 -17 -5 -98q0 -39 -8 -50q-10 -1 -20 -2.5t-10 -13.5q0 -29 4 -38q7 -13 30 -13q17 0 19 15q0 -1 0 28q0 26 24 26q55 0 74 -8q3 -3 18 -34q9 -20 26 -20q35 0 35 17zM265 106l-19 34l-20 -3q-3 -9 -3 -18q0 -4 3 -19q2 -12 0 -19q35 10 36 10z
M290 689q0 -14 -16.5 -29t-30.5 -15q-9 0 -27 29t-48 29q-3 0 -14 -3.5t-13 -3.5q-20 0 -16 38q0 1 -2 2t-2 4l2 3q-5 15 -1 20q7 11 30 21q2 1 13 1q3 0 8 -1t8 -1q2 0 8 3t9 3q4 0 10.5 -5.5t6.5 -10.5q0 2 -5 -38q19 -12 31.5 -16t26.5 -8q22 -8 22 -22z" />
    <glyph glyph-name="Aacute" unicode="&#xc1;" horiz-adv-x="518" 
d="M495 106q0 -8 -11 -19t-20 -12q-50 -7 -78 -5q-24 6 -70 15l-25 -32l-28 5l-41 -12q-4 -1 -20 10q-10 7 -19.5 13t-47.5 8q-33 3 -37 12q-8 18 -8 33q0 8 3.5 24.5t3.5 25.5q-16 3 -26 8q0 5 -1.5 18.5t-1.5 20.5q0 29 5 98q6 79 13 91.5t35 12.5q8 0 45 -5l34 13
q16 -20 98 -20q33 0 41 8q-3 49 -12 145l-9 2l-128 -32l-15 5q-4 0 -10.5 -11t-13.5 -11q-12 0 -36 -2.5t-36 -2.5q-40 0 -45 17l-6 54q14 9 69 21q52 11 73 12l17 -22q3 3 7 23q3 16 13 16q13 0 15.5 -18.5t15.5 -18.5l33 2l40 20l10 -2l17 7q14 0 25 -8q15 -10 22 -13
q9 -9 12 -33q1 -16 0 -50q-2 -41 -2 -55q1 -36 -2 -99q0 -14 10 -46q9 -28 6 -45q10 -12 37 -16t33 -16q2 -5 9 -64t7 -70zM143 567l-1 2h-13q-11 1 -29 -3q-23 -4 -30 -5v-16l16 -3q16 0 34 5q23 7 23 20zM359 134q0 36 -6.5 108t-6.5 109q0 15 -8 26l-122 -8q5 -6 5 -13
q0 -12 -18 -22t-31 -9q-5 -17 -5 -98q0 -39 -8 -50q-10 -1 -20 -2.5t-10 -13.5q0 -29 4 -38q7 -13 30 -13q17 0 19 15q0 -1 0 28q0 26 24 26q55 0 74 -8q3 -3 18 -34q9 -20 26 -20q35 0 35 17zM265 106l-19 34l-20 -3q-3 -9 -3 -18q0 -4 3 -19q2 -12 0 -19q35 10 36 10z
M323 700q-3 0 -10.5 4.5t-11.5 4.5q-2 -1 -8 -5q-1 0 -16 -16t-23 -22q-14 7 -36 7q0 -9 -8 -24q-3 -2 -7 -2q-10 0 -20 14.5t-20 51.5l17 12q6 -2 14 -8l5 -13q2 -7 12 -7q26 0 43 12q8 8 18.5 17.5t17.5 7.5l-9 13q-7 3 -15.5 11t-8.5 17q0 15 38 41q9 7 33 2
q18 -22 44 -54q4 -5 4 -12q0 -24 -18.5 -37t-34.5 -15z" />
    <glyph glyph-name="Acircumflex" unicode="&#xc2;" horiz-adv-x="481" 
d="M447 65q0 -8 -10 -17.5t-18 -9.5q-43 -7 -68 -5q-21 5 -62 13l-22 -28l-25 4l-36 -10q-4 -1 -18 8q-9 6 -18 13q-8 4 -41 6q-29 2 -33 10q-7 17 -7 30q0 7 3.5 21.5t3.5 22.5q-15 2 -24 7q0 4 -1 16t-1 18q0 26 4 87q6 70 12 81t31 11q7 0 40 -5l29 11q15 -17 87 -17
q29 0 36 8q-2 42 -10 127l-8 2l-114 -28l-13 4q-3 0 -9 -9.5t-11 -9.5q-11 0 -32.5 -2.5t-32.5 -2.5q-35 0 -39 15q-3 24 -5 48q12 8 61 18q46 11 64 11l15 -19q2 2 6 20q2 14 12 14q11 0 13 -16.5t14 -16.5l29 3l35 17l9 -2l15 6q13 0 24.5 -8t17.5 -10q8 -8 10 -29
q2 -15 0 -44q-1 -38 -1 -49q0 -32 -2 -87q0 -13 8.5 -39.5t5.5 -41.5q9 -10 34 -14q22 -3 28 -14q2 -5 8 -56.5t6 -61.5zM136 471v2l-12 1q-10 0 -26 -3q-20 -4 -26 -4v-15l14 -2q14 0 30 4q20 6 20 17zM327 89q0 32 -6 95.5t-6 96.5q0 13 -6 22l-109 -7q5 -5 5 -10
q0 -12 -15.5 -20.5t-27.5 -7.5q-4 -15 -4 -87q0 -34 -7 -44q-9 0 -18 -1.5t-9 -12.5q0 -26 4 -33q5 -12 26 -12q14 0 17 14q-1 -2 -1 24q0 23 22 23q48 0 65 -7q3 -3 16 -30q8 -17 23 -17q31 0 31 14zM244 65l-16 29l-19 -2q-2 -8 -2 -16q0 -3 2 -17q2 -10 0 -17q31 9 32 9z
M372 679q0 -2 -5 -24q-5 -25 -6 -34q-2 -15 1 -39q-17 -20 -26 -20q-3 0 -5 1.5t-5 1.5t-18.5 -7.5t-18.5 -7.5q-12 0 -22 11t-10 20q0 3 4.5 14t4.5 16q-1 22 -1 65q1 4 6.5 11t5.5 10q0 6 -10.5 15.5t-15.5 9.5q-15 0 -22 -25q-5 -16 -5 -27q0 -25 3 -39q1 -4 5 -14.5
t4 -13.5q0 -14 -15 -23q-4 -1 -13 -5q2 -12 -4 -23t-16 -11q-3 0 -11.5 4t-11.5 5q-15 2 -30 5q-21 4 -25 11q-2 14 2 26q-1 3 -6.5 10.5t-5.5 11.5q0 -1 4.5 25t3.5 46q11 21 36 21q3 0 16 -3.5t16 -3.5q9 0 37.5 38t41.5 38q2 0 24 -30q26 -35 40 -49q8 0 29 -1
q8 1 16 -4.5t8 -11.5zM171 594q16 -4 16 28q0 38 -18 33q-10 -2 -16 -10t-6 -18q0 -28 24 -33z" />
    <glyph glyph-name="Atilde" unicode="&#xc3;" horiz-adv-x="617" 
d="M566 106q0 -8 -11 -19t-20 -12q-50 -7 -78 -5q-24 6 -70 15l-25 -32l-28 5l-41 -12q-4 -1 -20 10q-10 7 -19.5 13t-47.5 8q-33 3 -37 12q-8 18 -8 33q0 8 3.5 24.5t3.5 25.5q-16 3 -26 8q0 5 -1.5 18.5t-1.5 20.5q0 29 5 98q6 79 13 91.5t35 12.5q8 0 45 -5l34 13
q16 -20 98 -20q33 0 41 8q-3 49 -12 145l-9 2l-128 -32l-15 5q-4 0 -10.5 -11t-13.5 -11q-12 0 -36 -2.5t-36 -2.5q-40 0 -45 17l-6 54q14 9 69 21q52 11 73 12l17 -22q3 3 7 23q3 16 13 16q13 0 15.5 -18.5t15.5 -18.5l33 2l40 20l10 -2l17 7q14 0 25 -8q15 -10 22 -13
q9 -9 12 -33q1 -16 0 -50q-2 -41 -2 -55q1 -36 -2 -99q0 -14 10 -46q9 -28 6 -45q10 -12 37 -16t33 -16q2 -5 9 -64t7 -70zM214 567l-1 2h-13q-11 1 -29 -3q-23 -4 -30 -5v-16l16 -3q16 0 34 5q23 7 23 20zM430 134q0 36 -6.5 108t-6.5 109q0 15 -8 26l-122 -8q5 -6 5 -13
q0 -12 -18 -22t-31 -9q-5 -17 -5 -98q0 -39 -8 -50q-10 -1 -20 -2.5t-10 -13.5q0 -29 4 -38q7 -13 31 -13q16 0 18 15q0 -1 0 28q0 26 24 26q55 0 74 -8q3 -3 18 -34q9 -20 26 -20q35 0 35 17zM336 106l-18 34l-21 -3q-3 -9 -3 -18q0 -4 3 -19q2 -12 0 -19q35 10 36 10z
M602 658q0 -7 -6.5 -16t-15.5 -9q-3 0 -22.5 2t-22.5 2q-2 0 -6.5 -2t-6.5 -2t-11 4t-13 5q-68 11 -147 11q-18 0 -18 -14t-14 -14q-13 0 -16 20q0 2 -1 31q0 37 -19 37q-2 0 -7 -1t-7 -1t-10 3t-11 4q-94 14 -88 14q-24 0 -24 -28q0 -2 5 -14.5t5 -14.5q0 -8 -8 -19
t-13 -11q-3 0 -8 1.5t-7 1.5q-36 2 -41 3q-22 3 -24 12q-2 19 -2 18q0 59 22 59q3 0 16.5 -3t15.5 -3q9 0 14 15.5t18 15.5q5 0 75.5 -11.5t86.5 -11.5h13q-1 5 0 16q2 1 8 8q3 3 9 3q10 0 18 -12q-4 -25 -4 -48q0 -29 10 -29q2 0 9.5 3t9.5 3q1 0 26.5 -5t39.5 -5
q7 0 24 -1t18 -1q29 0 32 7q-1 5 -1 11q0 35 34 35q5 1 18.5 5t14.5 4q11 0 19 -8t8 -27q-1 -24 0 -28q5 -22 5 -15zM565 664q0 25 -2 35h-13q-11 -22 -12 -33q-1 0 6 -1t21 -1zM109 690q0 19 -9 19q-6 0 -14 -13l3 -11q12 1 20 5z" />
    <glyph glyph-name="Adieresis" unicode="&#xc4;" horiz-adv-x="518" 
d="M495 106q0 -8 -11 -19t-20 -12q-50 -7 -78 -5q-24 6 -70 15l-25 -32l-28 5l-41 -12q-4 -1 -20 10q-10 7 -19.5 13t-47.5 8q-33 3 -37 12q-8 18 -8 33q0 8 3.5 24.5t3.5 25.5q-16 3 -26 8q0 5 -1.5 18.5t-1.5 20.5q0 29 5 98q6 79 13 91.5t35 12.5q8 0 45 -5l34 13
q16 -20 98 -20q33 0 41 8q-3 49 -12 145l-9 2l-128 -32l-15 5q-4 0 -10.5 -11t-13.5 -11q-12 0 -36 -2.5t-36 -2.5q-40 0 -45 17l-6 54q14 9 69 21q52 11 73 12l17 -22q3 3 7 23q3 16 13 16q13 0 15.5 -18.5t15.5 -18.5l33 2l40 20l10 -2l17 7q14 0 25 -8q15 -10 22 -13
q9 -9 12 -33q1 -16 0 -50q-2 -41 -2 -55q1 -36 -2 -99q0 -14 10 -46q9 -28 6 -45q10 -12 37 -16t33 -16q2 -5 9 -64t7 -70zM143 567l-1 2h-13q-11 1 -29 -3q-23 -4 -30 -5v-16l16 -3q16 0 34 5q23 7 23 20zM359 134q0 36 -6.5 108t-6.5 109q0 15 -8 26l-122 -8q5 -6 5 -13
q0 -12 -18 -22t-31 -9q-5 -17 -5 -98q0 -39 -8 -50q-10 -1 -20 -2.5t-10 -13.5q0 -29 4 -38q7 -13 30 -13q17 0 19 15q0 -1 0 28q0 26 24 26q55 0 74 -8q3 -3 18 -34q9 -20 26 -20q35 0 35 17zM265 106l-19 34l-20 -3q-3 -9 -3 -18q0 -4 3 -19q2 -12 0 -19q35 10 36 10z
M182 724q0 -2 -4 -11.5t-4 -14.5q0 -2 2 -12t1 -14q-15 -11 -20 -11q-2 0 -11.5 2t-11.5 2q-3 0 -19.5 -2t-18.5 -2q-30 0 -30 26q0 2 3.5 13t3.5 16q2 14 -3 37q21 16 42 16q3 0 10.5 -2.5t10.5 -2.5q2 0 8 2.5t9 2.5q12 0 18 -12q14 -26 14 -33zM145 698v20q0 10 -23 10
q-22 0 -22 -16q4 -21 12 -21q-1 0 33 7zM277 698q0 2 4.5 11.5t4.5 14.5q0 2 -2 12.5t-1 14.5q15 11 19 11q3 0 12 -2t12 -2q2 0 18.5 2t19.5 2q30 0 30 -26q0 -2 -3.5 -13.5t-4.5 -15.5q-1 -14 4 -37q-21 -16 -42 -16q-3 0 -10.5 2t-10.5 2q-2 0 -8.5 -2t-8.5 -2
q-13 0 -19 11q-14 27 -14 33zM314 725v-20q0 -10 24 -10q21 0 21 15q-3 22 -11 22q1 0 -34 -7z" />
    <glyph glyph-name="Ccedilla" unicode="&#xc7;" horiz-adv-x="426" 
d="M351 629l1 -10q0 -8 -10 -21q-1 -1 -14 -1q-3 0 -3 3q0 1 3 15q3 11 1 17q-1 3 -7 3q-6 -1 -7 0q-3 -13 -12 -36q-2 -3 -10 0q-9 4 -10 4q4 19 0 33q-7 2 -55 2q-39 0 -68 -15q-35 -18 -35 -52q0 2 13 -52q6 -22 10 -60q4 -49 6 -61q-3 -12 -2.5 -39t-3.5 -40
q-14 -15 -14 -38q0 -6 2.5 -19t2.5 -20q0 -9 -2 -25t-2 -24q0 -24 19 -39q42 -2 50 -12q10 -19 21 -37q16 0 51 3q9 0 30 2q16 0 39 -2.5t36 -2.5q7 -28 2 -31q-16 -10 -145 -7q2 -2 4 -3q-4 -38 -2 -59q12 -7 24.5 -14.5t15.5 -16.5q4 -13 1 -38q-3 -27 -2 -36q0 -2 2 -8.5
t2 -9.5q0 -7 -12 -26q-14 -24 -27 -24q-4 0 -9 4t-8 4q-56 0 -83 -4q-4 -1 -11.5 -7.5t-10.5 -6.5q-2 0 -23.5 9t-26.5 9q-3 0 -14.5 -3t-14.5 -3q-28 0 -28 39q0 51 51 51q3 0 7 -2.5t7 -2.5t17.5 5t18.5 5q7 0 19.5 -8t12.5 -19q0 -3 -5.5 -6.5t-5.5 -6.5q0 -5 10 -14
l50 4q38 6 38 33q0 32 -15 42q-4 3 -27 8q-15 3 -15 18q0 3 4 17t5 18q2 11 1 25q-8 0 -25 -3q-7 -2 -21 -12q-5 -4 -46 -4q-34 0 -48.5 13.5t-14.5 47.5q0 54 27 76t27 65q0 54 -9 70q-6 11 -25 13q-22 3 -34 14q-8 118 -8 134q0 76 15 123q18 58 66 100q84 13 137 13
q24 0 30 -2h25q6 21 2 30q0 5 4 6q3 1 11 -0.5t11 -1.5l6 -43q7 -4 8 -1q2 6 3 24q0 15 2 15q21 0 22 -1v-24q0 -16 19 -18q-14 1 31 1q6 0 7 -18t-5 -24.5t-54 -3.5zM198 94l-2 13l-20 11l-2 -48l13 5v14q6 2 11 5zM121 114q0 7 -2 13q-4 2 -16 2q-26 0 -26 -12v-25
q0 -22 4 -31q12 0 36 -1q4 49 4 54zM101 -123q1 3 0 4q-2 7 -11 7t-11 -7v-4q1 -6 11 -6t11 6z" />
    <glyph glyph-name="Egrave" unicode="&#xc8;" 
d="M384 128l-1 -30l-24 -6l1 -14l-2 -13l-20 -8q-6 0 -10 10q-3 7 -6 15q-6 0 -10 -12q-5 -17 -6 -18q-12 -15 -62 -15q-26 0 -33.5 16.5t-10.5 15.5q-95 -12 -96 -12q-17 0 -17 69q0 90 0 85q-3 13 -8 43q0 10 -1 34q-1 30 -5 70q-17 1 -33 2q-22 2 -22 18q0 6 3.5 18.5
t3.5 19.5q0 32 -1 89q-1 63 -1 89q0 12 4 31q6 26 7 31q14 7 56 18q56 -17 95 -17q6 0 28 7q78 -16 87 -16t16 1q9 -5 25 -18l-1 -24q-1 -25 3 -35q6 -13 7 -18q1 -16 4 -53q2 -21 5 -68q0 -3 -2 -24q-2 -13 4 -25q-3 -9 -5 -46l-1 -14q-16 -20 -25 -20q-131 0 -192 -3v-17
q-9 -14 -9 -21v-92l4 -40q3 -32 12 -32q12 0 51 16v5q-1 50 54 50q28 0 38 -3q18 -7 19 -30l11 -6q10 -1 10 24q0 16 15 15q8 -3 25 -13l-4 -11l-2 -12zM304 566v33q-6 10 -15 7l-44 11l-12 -6l32 -28q23 -18 34 -18zM265 378q0 31 -17 151l-48 66q-28 30 -73 30
q-5 0 -14 -1.5t-13 -1.5v-72q0 -15 22.5 -31t22.5 -32q0 -10 -3 -30.5t-3 -30.5q0 -12 15 -40l-25 -32l3 -15q-3 -1 75 -1q14 0 57 11q1 11 1 29zM272 105q0 26 -23 26q-14 0 -14 -21q0 -9 7.5 -23.5t15.5 -14.5q14 0 14 33zM252 718q0 -14 -16.5 -29t-30.5 -15q-9 0 -27 29
t-48 29q-3 0 -14 -3.5t-13 -3.5q-20 0 -16 38q0 1 -2 2t-2 4l2 3q-5 15 -1 20q7 11 30 21q2 1 13 1q3 0 8 -1t8 -1q2 0 8 3t9 3q4 0 10.5 -5.5t6.5 -10.5q0 2 -5 -38q19 -12 31.5 -16t26.5 -8q22 -8 22 -22z" />
    <glyph glyph-name="Eacute" unicode="&#xc9;" 
d="M384 128l-1 -30l-24 -6l1 -14l-2 -13l-20 -8q-6 0 -10 10q-3 7 -6 15q-6 0 -10 -12q-5 -17 -6 -18q-12 -15 -62 -15q-26 0 -33.5 16.5t-10.5 15.5q-95 -12 -96 -12q-17 0 -17 69q0 90 0 85q-3 13 -8 43q0 10 -1 34q-1 30 -5 70q-17 1 -33 2q-22 2 -22 18q0 6 3.5 18.5
t3.5 19.5q0 32 -1 89q-1 63 -1 89q0 12 4 31q6 26 7 31q14 7 56 18q56 -17 95 -17q6 0 28 7q78 -16 87 -16t16 1q9 -5 25 -18l-1 -24q-1 -25 3 -35q6 -13 7 -18q1 -16 4 -53q2 -21 5 -68q0 -3 -2 -24q-2 -13 4 -25q-3 -9 -5 -46l-1 -14q-16 -20 -25 -20q-131 0 -192 -3v-17
q-9 -14 -9 -21v-92l4 -40q3 -32 12 -32q12 0 51 16v5q-1 50 54 50q28 0 38 -3q18 -7 19 -30l11 -6q10 -1 10 24q0 16 15 15q8 -3 25 -13l-4 -11l-2 -12zM304 566v33q-6 10 -15 7l-44 11l-12 -6l32 -28q23 -18 34 -18zM265 378q0 31 -17 151l-48 66q-28 30 -73 30
q-5 0 -14 -1.5t-13 -1.5v-72q0 -15 22.5 -31t22.5 -32q0 -10 -3 -30.5t-3 -30.5q0 -12 15 -40l-25 -32l3 -15q-3 -1 75 -1q14 0 57 11q1 11 1 29zM272 105q0 26 -23 26q-14 0 -14 -21q0 -9 7.5 -23.5t15.5 -14.5q14 0 14 33zM265 726q-3 -1 -10.5 3.5t-11.5 4.5l-8 -4
q-1 -1 -16 -16.5t-24 -21.5q-13 6 -35 7q0 -10 -8 -25q-3 -2 -7 -2q-10 0 -20 14.5t-20 51.5l17 13q5 -2 14 -9l5 -13q2 -7 11 -7q27 0 44 12q8 8 18.5 17.5t17.5 8.5l-9 13q-7 2 -15.5 10.5t-8.5 16.5q0 15 38 42q9 6 33 1q18 -21 44 -54q4 -5 4 -12q0 -24 -18.5 -36.5
t-34.5 -14.5z" />
    <glyph glyph-name="Ecircumflex" unicode="&#xca;" horiz-adv-x="355" 
d="M317 111l-1 -24l-20 -5l1 -12l-2 -10l-16 -7q-5 0 -8 7t-5 13q-5 1 -8 -9q-5 -14 -5 -15q-10 -12 -51 -12q-21 0 -27 13.5t-9 12.5q-77 -10 -78 -10q-14 0 -14 56q0 73 1 70q-3 11 -7 35q0 8 -1 27q-2 30 -4 58q-14 1 -27 1q-18 2 -18 15q0 5 2.5 15.5t2.5 15.5
q1 26 0 72q-1 52 -1 73q0 -9 9 51q11 5 45 14q47 -14 78 -14q5 0 23 6q64 -13 71 -13t13 1q7 -4 20 -15l-1 -19q0 -21 3 -29q5 -11 6 -14q1 -14 3 -44q1 -17 4 -55q-3 -12 2 -40q-3 -7 -4 -38l-1 -11q-14 -17 -20 -17q-107 0 -157 -1v-14q-7 -12 -7 -18v-74q1 -17 3 -34
q3 -26 10 -26q9 0 42 14l-1 4q0 41 44 41q45 0 47 -27l9 -5q7 -1 7 19q0 13 13 13q7 -3 20 -11l-3 -9l-2 -10zM252 468v27q-5 8 -13 6l-36 9l-10 -5l26 -22q19 -16 28 -16zM219 315q0 26 -13 123q-20 27 -39 54q-23 24 -60 24q-4 0 -11.5 -1t-10.5 -1v-59q0 -12 18 -25
t18 -26q0 -9 -2 -25.5t-2 -24.5q0 -10 12 -32l-20 -26l2 -13q-2 0 61 0q12 0 47 8v24zM225 92q0 22 -19 22q-11 0 -11 -18q0 -7 6 -19t12 -12q12 0 12 27zM318 711q0 -2 -5 -26t-7 -33q-2 -15 1 -38q-16 -20 -25 -20q-3 0 -5.5 1t-5.5 1t-18.5 -7t-18.5 -7q-12 0 -21.5 11
t-9.5 20q0 2 4 13.5t5 16.5q-2 22 -1 65q0 3 5.5 10.5t5.5 10.5q0 5 -10.5 15t-14.5 10q-15 0 -23 -26q-4 -15 -4 -27q0 -24 3 -39q0 -4 4 -14t4 -13q0 -14 -14 -24q-5 0 -14 -4q3 -12 -3 -23.5t-16 -11.5q-3 0 -11.5 4t-11.5 5q-16 3 -31 5q-20 4 -25 11q-1 15 3 27
q-1 3 -7 10.5t-6 10.5q0 -1 4.5 25.5t3.5 46.5q12 20 36 20q3 0 16.5 -3.5t16.5 -3.5q8 0 37 38.5t42 38.5q2 0 24 -30q25 -35 40 -49q8 0 29 -1q8 0 16 -5t8 -11zM116 625q17 -3 17 29q0 37 -19 33q-9 -2 -15.5 -10t-6.5 -18q0 -28 24 -34z" />
    <glyph glyph-name="Edieresis" unicode="&#xcb;" 
d="M384 128l-1 -30l-24 -6l1 -14l-2 -13l-20 -8q-6 0 -10 10q-3 7 -6 15q-6 0 -10 -12q-5 -17 -6 -18q-12 -15 -62 -15q-26 0 -33.5 16.5t-10.5 15.5q-95 -12 -96 -12q-17 0 -17 69q0 90 0 85q-3 13 -8 43q0 10 -1 34q-1 30 -5 70q-17 1 -33 2q-22 2 -22 18q0 6 3.5 18.5
t3.5 19.5q0 32 -1 89q-1 63 -1 89q0 12 4 31q6 26 7 31q14 7 56 18q56 -17 95 -17q6 0 28 7q78 -16 87 -16t16 1q9 -5 25 -18l-1 -24q-1 -25 3 -35q6 -13 7 -18q1 -16 4 -53q2 -21 5 -68q0 -3 -2 -24q-2 -13 4 -25q-3 -9 -5 -46l-1 -14q-16 -20 -25 -20q-131 0 -192 -3v-17
q-9 -14 -9 -21v-92l4 -40q3 -32 12 -32q12 0 51 16v5q-1 50 54 50q28 0 38 -3q18 -7 19 -30l11 -6q10 -1 10 24q0 16 15 15q8 -3 25 -13l-4 -11l-2 -12zM304 566v33q-6 10 -15 7l-44 11l-12 -6l32 -28q23 -18 34 -18zM265 378q0 31 -17 151l-48 66q-28 30 -73 30
q-5 0 -14 -1.5t-13 -1.5v-72q0 -15 22.5 -31t22.5 -32q0 -10 -3 -30.5t-3 -30.5q0 -12 15 -40l-25 -32l3 -15q-3 -1 75 -1q14 0 57 11q1 11 1 29zM272 105q0 26 -23 26q-14 0 -14 -21q0 -9 7.5 -23.5t15.5 -14.5q14 0 14 33zM136 747q0 -2 -4.5 -11.5t-4.5 -14.5q0 -2 2 -12
t1 -14q-15 -12 -19 -12q-3 0 -12 2.5t-12 2.5q-2 0 -18.5 -2.5t-19.5 -2.5q-30 0 -30 26q0 2 3.5 13.5t4.5 15.5q1 14 -4 38q21 15 42 15q3 0 10.5 -2t10.5 -2q2 0 8.5 2t8.5 2q13 0 19 -11q14 -26 14 -33zM99 720v21q0 9 -24 9q-22 0 -22 -15q4 -22 12 -22q-1 0 34 7z
M231 721q0 2 4 11.5t4 14.5q0 2 -2 12t-1 14q15 12 20 12q2 0 11.5 -2.5t11.5 -2.5q3 0 19.5 2.5t18.5 2.5q30 0 30 -26q0 -2 -3.5 -13.5t-3.5 -15.5q-2 -14 3 -38q-21 -15 -42 -15q-3 0 -10.5 2t-10.5 2q-2 0 -8 -2t-9 -2q-12 0 -18 11q-14 26 -14 33zM268 748v-21
q0 -9 23 -9q22 0 22 15q-4 21 -12 21q1 0 -33 -6z" />
    <glyph glyph-name="Igrave" unicode="&#xcc;" horiz-adv-x="221" 
d="M170 636q0 -14 -16.5 -29t-29.5 -15q-9 0 -27 29t-49 29q-2 0 -13 -3t-14 -3q-19 0 -15 38l-2 1t-2 4l2 3q-5 15 -1 20q7 12 30 21q2 1 13 1q3 0 8 -1t7 -1q3 0 9 3.5t9 3.5q4 0 10.5 -6t6.5 -11q0 2 -5 -38q19 -12 31.5 -16t25.5 -7q22 -9 22 -23zM195 82q0 -24 -6 -45
q-8 -30 -25 -30h-18q-10 0 -69 18q-9 3 -29 25q-2 42 -13 138q-3 50 -11 148q-1 13 -6.5 43t-5.5 31q0 16 14 28q1 21 6 34l-12 9q0 11 6 31q8 26 17 26q26 0 27.5 -8.5t3.5 -18.5t8 -10h33q11 -15 -2 -24q-13 0 -35 -2q1 -4 0 -9q14 2 34 -4q7 -9 0 -15q-14 1 -34 1
q-1 -15 -1 -20q0 -22 14 -29q19 -10 29 -35q0 -12 2 -32q0 -11 18 -102q1 -6 1 -37q0 -20 13 -41l22 -26q19 -25 19 -44z" />
    <glyph glyph-name="Iacute" unicode="&#xcd;" horiz-adv-x="221" 
d="M200 667q-20 -14 -35 -16q-3 0 -11 4t-11 4q-2 0 -9 -4q-1 -1 -16 -16.5t-23 -21.5q-14 6 -35 7q0 -9 -9 -24q-3 -2 -6 -2q-10 0 -20.5 14t-20.5 52l18 12q5 -2 14 -8l4 -14q2 -6 12 -6q26 0 43 12q9 8 17 16q13 11 20 9l-9 13q-7 3 -18 9q-7 10 -7 19q0 15 38 41
q9 6 33 2q19 -22 45 -54q3 -5 3 -12q0 -24 -17 -36zM195 82q0 -24 -6 -45q-8 -30 -25 -30h-18q-10 0 -69 18q-9 3 -29 25q-2 42 -13 138q-3 50 -11 148q-1 13 -6.5 43t-5.5 31q0 16 14 28q1 21 6 34l-12 9q0 11 6 31q8 26 17 26q26 0 27.5 -8.5t3.5 -18.5t8 -10h33
q11 -15 -2 -24q-13 0 -35 -2q1 -4 0 -9q14 2 34 -4q7 -9 0 -15q-14 1 -34 1q-1 -15 -1 -20q0 -22 14 -29q19 -10 29 -35q0 -12 2 -32q0 -11 18 -102q1 -6 1 -37q0 -20 13 -41l22 -26q19 -25 19 -44z" />
    <glyph glyph-name="Icircumflex" unicode="&#xce;" horiz-adv-x="325" 
d="M293 703q0 -3 -4 -25q-6 -25 -7 -34q-2 -15 1 -39q-16 -20 -25 -20q-3 0 -5.5 1.5t-5.5 1.5t-18.5 -7.5t-18.5 -7.5q-12 0 -21.5 11t-9.5 21q0 2 4 13t4 16q-1 22 0 65q0 4 5.5 11.5t5.5 9.5q0 6 -10.5 16t-14.5 10q-16 0 -23 -26q-5 -16 -5 -27q0 -25 3 -39
q1 -4 5 -14.5t4 -13.5q0 -14 -15 -23q-4 -1 -13 -5q3 -12 -3.5 -23t-16.5 -11q-3 0 -10 4q-10 4 -13 5q-15 2 -30 5q-20 4 -25 11q-2 14 3 26q-2 3 -7.5 10.5t-5.5 11.5q0 -1 4.5 25t3.5 46q12 21 36 21q3 0 16 -3.5t16 -3.5q9 0 38 38t41 38q3 0 24 -30q26 -35 41 -48
q7 -1 29 -2q8 1 15.5 -4.5t7.5 -10.5zM92 617q16 -4 16 28q0 38 -18 33q-22 -5 -22 -28q0 -28 24 -33zM288 90q0 -24 -6 -45q-8 -30 -24 -30h-19q-10 0 -68 18q-9 2 -30 24q-2 43 -12 139q-4 50 -12 148q-1 13 -6 44q-5 28 -5 30q0 15 14 28q0 21 5 34l-12 9q0 11 6 31
q8 25 18 25q25 0 27 -8t3.5 -18t8.5 -10h32q12 -15 -2 -24q-13 0 -35 -2q1 -4 0 -9q14 2 34 -4q7 -9 0 -15q-14 0 -34 1q-1 -15 -1 -20q0 -22 14 -29q20 -10 29 -35q1 -12 2 -33q1 -10 18 -101q1 -6 1 -37q0 -20 13 -41l22 -26q19 -25 19 -44z" />
    <glyph glyph-name="Idieresis" unicode="&#xcf;" horiz-adv-x="221" 
d="M235 655q0 2 4.5 12t4.5 14q0 3 -2 13t-1 14q14 11 19 11q3 0 12 -2t12 -2q2 0 18.5 2t19.5 2q30 0 30 -26q0 -2 -3.5 -13t-4.5 -16q-1 -14 4 -37q-21 -16 -42 -16q-3 0 -10.5 2.5t-10.5 2.5q-2 0 -8.5 -2.5t-8.5 -2.5q-13 0 -19 12q-14 26 -14 32zM272 682v-20
q0 -10 24 -10q21 0 21 15q-3 22 -11 22q1 0 -34 -7zM140 681q0 -2 -4.5 -11.5t-4.5 -13.5q0 -3 2.5 -13t1.5 -14q-15 -11 -20 -11q-2 0 -11.5 2t-12.5 2q-2 0 -18.5 -2t-18.5 -2q-31 0 -31 26q0 2 4 13t4 16q2 14 -3 37q21 16 42 16q3 0 10.5 -2.5t9.5 -2.5q3 0 9 2.5t9 2.5
q12 0 18 -12q14 -26 14 -33zM103 655v20q0 10 -23 10q-22 0 -22 -15q4 -22 12 -22q-1 0 33 7zM321 95q0 -24 -6 -45q-8 -30 -25 -30h-18q-10 0 -68 17q-10 3 -30 25q-2 43 -13 139q-3 49 -11 148q-1 13 -6 44q-5 28 -5 30q0 15 14 28q0 21 5 34l-12 9q0 10 6 31q8 25 18 25
q25 0 27 -8t3.5 -18t7.5 -10h33q12 -15 -2 -24q-13 -1 -35 -2q1 -4 0 -9q14 2 34 -4q7 -10 0 -15q-14 0 -34 1q-1 -15 -1 -21q0 -21 14 -28q20 -10 29 -35q1 -12 2 -33q1 -10 18 -101q1 -6 1 -38q0 -19 13 -40l22 -26q19 -25 19 -44z" />
    <glyph glyph-name="Eth" unicode="&#xd0;" horiz-adv-x="563" 
d="M527 159q0 -12 -11 -37q-16 -8 -36 -29q-11 -33 -35 -33q-3 0 -16.5 3.5t-16.5 3.5t-24.5 -5t-23.5 -5q-16 0 -41 16q-9 4 -21 16q-16 3 -31.5 6t-36.5 13q-3 1 -29 5q-18 3 -28 20q-1 4 2.5 12.5t3.5 13.5q0 6 -5 12q-9 9 -25 10q-6 6 -13 20q-6 33 -6 127q0 -1 3 31
t3 47q-3 44 5 48l28 12q10 6 10 26q0 9 -1 34q-1 30 -2 58q0 2 -3 7t-3 7q0 5 3 16t2 16q-13 17 -13 28q0 21 8 41q11 27 28 27q34 0 43 -17.5t38 -17.5q3 0 29.5 1t28.5 1t30.5 -3.5t43.5 -4.5q29 -33 77 -88q1 -1 16 -12q10 -8 10 -16q5 -66 2 -100q-3 -49 -3 -38v-104
q0 -3 5 -27.5t5 -28.5v-112zM466 580q-14 17 -69 61h-13q6 -14 76 -66zM458 226q0 52 -5 84q-1 12 -1 25q0 11 1.5 36t1.5 40q0 34 -7 69q2 11 4 27q-2 14 -23 34l-28 24q-28 28 -78 75q-14 12 -44 12q-8 0 -27 -5.5t-21 -8.5q1 -11 -1 -27q-11 -18 -9 -94q-3 -12 -3 -10
q0 -28 1 -37l32 -30q26 -30 26 -48q0 1 -6 -8q-1 -74 -12 -155q-4 -31 -10 -44q-4 -9 -19 -10.5t-14 -18.5q38 -27 70 -27q17 0 30 12q19 16 20 17q12 5 59 17q30 7 59 16q0 6 2 19t2 16zM211 340q0 87 -20 87q-8 0 -14 -12.5t-6 -21.5v-149q0 -12 6 -29q21 6 28 6
q0 3 3 58.5t3 60.5zM376 352l-2 -3q2 -4 2 -9l-2 -10q-27 -7 -79 -5q-57 2 -80 -1q-16 -3 -31 -4q-33 -4 -60 -4q-6 0 -19 2.5t-22 1.5l-17 8l-30 -7q-7 -1 -17 18q0 22 10 27q4 2 26 2q18 0 18 9q0 4 9 4h13q5 1 5 5q6 6 16 6q5 0 21 -3q13 -3 19 -2q20 -11 45 -22
q19 4 47 4q19 0 51 -1q37 -1 47 -1h24q6 -3 6 -15zM146 371q-1 0 -19 2q-14 1 -21 0q-10 -1 -10 -6q0 -26 26 -26l14 4q-1 6 7 14.5t8 10.5q0 1 -5 1z" />
    <glyph glyph-name="Ntilde" unicode="&#xd1;" horiz-adv-x="639" 
d="M615 641q0 -8 -6.5 -16.5t-15.5 -8.5q-3 0 -22.5 1.5t-22.5 1.5q-2 0 -6.5 -1.5t-6.5 -1.5t-11 4t-13 5q-68 10 -147 10q-18 0 -18 -13.5t-14 -13.5q-13 0 -16 20q0 1 -1 31q0 36 -19 36q-2 0 -7 -1t-7 -1t-10 3.5t-11 3.5q-94 15 -88 15q-24 0 -24 -29q0 -2 5 -14.5
t5 -14.5q0 -7 -8 -18.5t-13 -11.5q-3 0 -8 1.5t-7 1.5q-36 3 -41 4q-22 3 -24 12q-2 18 -2 17q0 59 22 59q3 0 16.5 -2.5t15.5 -2.5q9 0 14 15.5t18 15.5q5 0 75.5 -12t86.5 -12h13q-1 6 0 17q2 1 8 7q3 3 9 3q10 0 18 -12q-4 -24 -4 -47q0 -30 10 -30q2 0 9.5 3t9.5 3
q1 0 26.5 -5t39.5 -4q7 0 24 -1.5t18 -1.5q29 0 32 7q-1 5 -1 11q0 35 34 36q5 0 18.5 4t14.5 4q11 0 19 -8t8 -26q-1 -25 0 -28q5 -23 5 -15zM578 647q0 24 -2 34h-13q-11 -22 -12 -32q-1 0 6 -1t21 -1zM122 672q0 19 -9 19q-6 0 -14 -12l3 -12q12 1 20 5zM557 366
q-3 -2 -1 -124q-18 -7 -44 -14q1 -29 8 -59.5l7 -30.5q0 -2 -13 -10q-16 -10 -21 -15q-14 -15 -20 -48.5t-9 -35.5q-21 -11 -27 -11q-10 0 -25 9q-11 95 -11 93q5 4 23 14q10 2 21 3q15 3 15 16q0 30 -15 75q-15 9 -31 27q-1 15 -7 49q-6 28 -6 50q0 40 17 52q-1 17 -10 50
q-5 10 -28 15q-58 12 -116 21q-6 1 -39 1q-9 -13 -9 -30q0 -5 1 -14t1 -12q0 -9 -3 -14q-6 -11 -23 -13q-20 -2 -23 -4q7 -60 7 -165v-24q36 0 47 -5t15 -30.5t13 -25.5q2 0 7 1t9 1q28 0 28 -19l-2 -15t-1 -21q-3 -5 -29 -13.5t-30 -8.5q-1 0 -17 4.5t-33 6.5
q-16 11 -40 35q-21 34 -21 55q0 10 17 20v129q-2 23 -8 79q-9 113 -9 104q0 40 41 40q103 0 231 -14q20 -1 41 -6q8 -9 8 -31t11 -30q-2 -6 -2 -11q0 -10 16 -35q-1 -4 -1 -8q0 -18 41.5 -24.5t48.5 -28.5zM183 453q9 -1 9 17q0 22 -11 19q-12 -4 -12 -17q0 -17 14 -19z
M224 148q-5 2 -14 9q-4 3 -6 13.5t-8 10.5q-14 1 -15 -24q-1 -11 7 -22.5t17 -11.5t15.5 8.5t3.5 16.5z" />
    <glyph glyph-name="Ograve" unicode="&#xd2;" horiz-adv-x="512" 
d="M469 155q0 -56 -18 -75t-63 -19q-14 0 -37 1q-29 -13 -75 -18l-78 -6l-14 7q-10 0 -32 -3.5t-33 -3.5q-27 0 -44.5 20.5t-17.5 48.5q0 9 4.5 28.5t5.5 28.5l-8 18q-2 24 -14 137q-10 87 -10 133q0 23 12 68q14 52 28 60q27 15 97 26q60 9 102 9q11 0 22.5 -7t17.5 -7
q26 0 54 6q22 -8 41 -20q6 -3 16.5 -57.5t10.5 -68.5q0 -6 3.5 -17t4.5 -15q25 -173 25 -274zM346 130q0 58 -20 201q-24 165 -48 200q-9 13 -30 13q-18 0 -56.5 -3t-57.5 -3q-33 0 -43 -49q-4 -21 -4 -77q0 -17 5.5 -100.5t7.5 -90.5t12 -10q9 -2 15 2q107 0 107 -103
q0 -13 -1 -28h55q58 0 58 48zM178 136q0 35 -23 35q-58 0 -58 -46q0 -43 50 -43q8 0 20 6q11 44 11 48zM336 682q0 -14 -16.5 -29t-30.5 -15q-9 0 -27 29t-48 29q-3 0 -14 -3.5t-13 -3.5q-20 0 -16 38q0 1 -2 2t-2 4l2 3q-5 15 -1 20q7 11 30 21q2 1 13 1q3 0 8 -1t8 -1
q2 0 8 3t9 3q4 0 10.5 -5.5t6.5 -10.5q0 2 -5 -38q19 -12 31.5 -16t26.5 -8q22 -8 22 -22z" />
    <glyph glyph-name="Oacute" unicode="&#xd3;" horiz-adv-x="512" 
d="M469 155q0 -56 -18 -75t-63 -19q-14 0 -37 1q-29 -13 -75 -18l-78 -6l-14 7q-10 0 -32 -3.5t-33 -3.5q-27 0 -44.5 20.5t-17.5 48.5q0 9 4.5 28.5t5.5 28.5l-8 18q-2 24 -14 137q-10 87 -10 133q0 23 12 68q14 52 28 60q27 15 97 26q60 9 102 9q11 0 22.5 -7t17.5 -7
q26 0 54 6q22 -8 41 -20q6 -3 16.5 -57.5t10.5 -68.5q0 -6 3.5 -17t4.5 -15q25 -173 25 -274zM346 130q0 58 -20 201q-24 165 -48 200q-9 13 -30 13q-18 0 -56.5 -3t-57.5 -3q-33 0 -43 -49q-4 -21 -4 -77q0 -17 5.5 -100.5t7.5 -90.5t12 -10q9 -2 15 2q107 0 107 -103
q0 -13 -1 -28h55q58 0 58 48zM178 136q0 35 -23 35q-58 0 -58 -46q0 -43 50 -43q8 0 20 6q11 44 11 48zM305 697q-3 -1 -10.5 3.5t-11.5 4.5q-2 -1 -8 -5q-1 0 -16 -15.5t-24 -21.5q-13 6 -35 6q0 -9 -8 -24q-3 -2 -7 -2q-10 0 -20 14.5t-20 51.5l17 13q5 -2 14 -9l5 -13
q2 -7 11 -7q27 0 44 12q8 8 18.5 17.5t17.5 8.5l-9 13q-7 2 -15.5 10.5t-8.5 16.5q0 15 37 41q10 7 34 2q18 -21 44 -54q4 -5 4 -12q0 -24 -18.5 -36.5t-34.5 -14.5z" />
    <glyph glyph-name="Ocircumflex" unicode="&#xd4;" horiz-adv-x="512" 
d="M436 143q0 -51 -16.5 -69t-57.5 -18q-13 0 -34 2q-29 -13 -140 -23l-13 7q-10 0 -29.5 -3.5t-30.5 -3.5q-24 0 -40 19.5t-16 44.5q0 8 4 26t5 26l-8 16q-2 22 -13 126q-9 80 -9 122q0 21 11 63q13 47 26 54q25 14 89 24q55 9 94 9q10 0 20 -7t16 -7q24 0 49 6
q21 -8 38 -18q6 -3 16 -55q9 -48 9 -61q0 -5 3 -15t4 -14q23 -159 23 -251zM323 120q0 53 -18 184q-22 152 -44 183q-8 12 -27 12q-17 0 -52 -2.5t-53 -2.5q-30 0 -39 -45q-4 -20 -4 -71q0 -16 5 -92.5t7 -82.5t10 -9q9 -2 15 2q98 0 98 -95q0 -11 -1 -25h50q53 0 53 44z
M169 126q0 31 -21 31q-53 0 -53 -41q0 -40 46 -40q7 0 18 5q10 41 10 45zM335 695q0 -2 -4.5 -23t-5.5 -29q-2 -13 1 -34q-15 -18 -23 -18q-3 0 -5 1t-4 1q-3 0 -17 -6t-16 -6q-11 0 -19.5 9.5t-8.5 17.5q0 2 4 12t4 15q-1 19 -1 57q1 3 5.5 9.5t4.5 9.5q0 4 -9 13t-13 9
q-20 0 -24 -47q0 -22 2 -34q1 -4 4.5 -13t3.5 -12q0 -12 -13 -20q-3 -1 -12 -5q3 -10 -2.5 -20t-14.5 -10q-3 0 -10.5 3.5t-9.5 4.5q-14 2 -27 5q-18 3 -22 9q-2 13 2 24q-1 2 -6 9t-5 10q0 -1 4 22t3 41q10 18 32 18q3 0 14.5 -3t14.5 -3q7 0 32.5 33.5t36.5 33.5
q2 0 22 -26q22 -31 35 -43q7 0 26 -1q7 0 14 -4.5t7 -9.5zM157 619q14 -2 14 26q0 34 -16 28q-10 -3 -14.5 -9.5t-4.5 -15.5q0 -26 21 -29z" />
    <glyph glyph-name="Otilde" unicode="&#xd5;" horiz-adv-x="625" 
d="M526 155q0 -56 -18 -75t-63 -19q-15 0 -37 1q-30 -13 -75 -18l-78 -6l-14 7q-11 0 -32.5 -3.5t-32.5 -3.5q-27 0 -44.5 20.5t-17.5 48.5q0 9 4.5 28.5t5.5 28.5l-9 18q-1 24 -14 137q-9 87 -9 133q0 23 12 68q14 52 28 60q27 15 97 26q60 9 102 9q11 0 22 -7t18 -7
q25 0 53 6q23 -8 42 -20q6 -3 16.5 -57.5t10.5 -68.5q0 -6 3.5 -17t3.5 -15q26 -173 26 -274zM403 130q0 58 -21 201q-23 165 -47 200q-9 13 -30 13q-19 0 -57 -3t-57 -3q-33 0 -43 -49q-5 -21 -5 -77q0 -17 6 -100.5t8 -90.5t11 -10q10 -2 16 2q107 0 107 -103
q0 -13 -2 -28h55q59 0 59 48zM235 136q0 35 -24 35q-58 0 -58 -46q0 -43 51 -43q7 0 20 6q11 44 11 48zM603 664q0 -7 -6.5 -16t-15.5 -9q-3 0 -22.5 2t-22.5 2q-2 0 -6.5 -2t-6.5 -2t-11 4t-13 5q-68 10 -147 10q-18 0 -18 -13.5t-14 -13.5q-13 0 -16 20q0 2 -1 31
q0 37 -19 37q-2 0 -7 -1t-7 -1t-10 3t-11 4q-94 14 -88 14q-24 0 -24 -28q0 -2 5 -15t5 -14q0 -8 -8 -19t-13 -11q-3 0 -8 1.5t-7 1.5q-36 2 -41 3q-22 3 -24 12q-2 19 -2 17q0 60 22 60q3 0 16.5 -3t15.5 -3q9 0 14 15.5t18 15.5q5 0 75.5 -11.5t86.5 -11.5h13q-1 5 0 16
q2 1 8 7q3 4 9 4q10 0 18 -13q-4 -24 -4 -47q0 -29 10 -29q2 0 9.5 2.5t9.5 2.5q1 0 26.5 -4.5t39.5 -4.5q7 0 24 -1t18 -1q29 0 32 7q-1 5 -1 10q0 35 34 36q5 1 18.5 5t14.5 4q11 0 19 -8.5t8 -26.5q-1 -24 0 -28q5 -22 5 -15zM566 670q0 25 -2 35h-13q-11 -23 -12 -33
q-1 0 6 -1t21 -1zM110 695q0 20 -9 20q-6 0 -14 -13l3 -11q12 1 20 4z" />
    <glyph glyph-name="Odieresis" unicode="&#xd6;" horiz-adv-x="512" 
d="M469 155q0 -56 -18 -75t-63 -19q-14 0 -37 1q-29 -13 -75 -18l-78 -6l-14 7q-10 0 -32 -3.5t-33 -3.5q-27 0 -44.5 20.5t-17.5 48.5q0 9 4.5 28.5t5.5 28.5l-8 18q-2 24 -14 137q-10 87 -10 133q0 23 12 68q14 52 28 60q27 15 97 26q60 9 102 9q11 0 22.5 -7t17.5 -7
q26 0 54 6q22 -8 41 -20q6 -3 16.5 -57.5t10.5 -68.5q0 -6 3.5 -17t4.5 -15q25 -173 25 -274zM346 130q0 58 -20 201q-24 165 -48 200q-9 13 -30 13q-18 0 -56.5 -3t-57.5 -3q-33 0 -43 -49q-4 -21 -4 -77q0 -17 5.5 -100.5t7.5 -90.5t12 -10q9 -2 15 2q107 0 107 -103
q0 -13 -1 -28h55q58 0 58 48zM178 136q0 35 -23 35q-58 0 -58 -46q0 -43 50 -43q8 0 20 6q11 44 11 48zM182 724q0 -2 -4 -11.5t-4 -14.5q0 -2 2 -12t1 -14q-15 -11 -20 -11q-2 0 -11.5 2t-11.5 2q-3 0 -19.5 -2t-18.5 -2q-30 0 -30 26q0 2 3.5 13t3.5 16q2 14 -3 37
q21 16 42 16q3 0 10.5 -2.5t10.5 -2.5q2 0 8 2.5t9 2.5q12 0 18 -12q14 -26 14 -33zM145 698v20q0 10 -23 10q-22 0 -22 -16q4 -21 12 -21q-1 0 33 7zM277 698q0 2 4.5 11.5t4.5 14.5q0 2 -2 12.5t-1 14.5q15 11 19 11q3 0 12 -2t12 -2q2 0 18.5 2t19.5 2q30 0 30 -26
q0 -2 -3.5 -13.5t-4.5 -15.5q-1 -14 4 -37q-21 -16 -42 -16q-3 0 -10.5 2t-10.5 2q-2 0 -8.5 -2t-8.5 -2q-13 0 -19 11q-14 27 -14 33zM314 725v-20q0 -10 24 -10q21 0 21 15q-3 22 -11 22q1 0 -34 -7z" />
    <glyph glyph-name="Ugrave" unicode="&#xd9;" horiz-adv-x="494" 
d="M456 109q0 -8 -14 -15t-27 -7q-4 0 -13 5t-14 5q-26 0 -32 -16t-19 -16q-4 0 -24 5t-26 5q-4 0 -96.5 -5t-96.5 -5q-21 0 -25 20q-5 29 -12 36q3 14 3 27q0 12 -3.5 32.5t-3.5 31.5t-3 57q-2 51 -3 70q0 6 1 17v15q0 -5 -5 76q-6 76 -6 73q0 43 30 43q20 0 117 -39
q5 -26 4 -75q-1 -65 0 -83q1 -13 4.5 -48.5t3.5 -40.5q0 -53 -5 -62q-8 -15 -37 -17q-34 -2 -59 -29q2 -4 4.5 -8t7.5 -4q4 0 19.5 3t19.5 3q2 0 27.5 -3t37.5 -3t55 3q34 2 55 0q6 12 11 62q5 44 5 67q0 4 -1.5 17t-1.5 19q-4 0 -17 1.5t-20 1.5l-4 20q-3 16 0 20
q6 10 39 4v23q-1 1 -46 3q-4 5 -4 15q0 17 9 21.5t22 5.5q10 0 23 -1.5t14 -1.5q37 0 37 -23q0 -4 -1 -19q-2 -18 -2 -22q-9 -160 -9 -159q3 -6 8 -6h6q4 1 8 1q21 0 51 -27q8 -46 8 -73zM149 313q0 110 -11 171q-4 18 -28 18q-21 0 -21 -42q0 -21 7 -105.5t7 -110.5h17
q29 0 29 69zM333 640q0 -14 -16.5 -29t-30.5 -15q-9 0 -27 29t-48 29q-3 0 -14 -3.5t-13 -3.5q-20 0 -16 38q0 1 -2 2t-2 4l2 3q-5 15 -1 20q7 11 30 21q2 1 13 1q3 0 8 -1t8 -1q2 0 8 3t9 3q4 0 10.5 -5.5t6.5 -10.5q0 2 -5 -38q19 -12 31.5 -16t26.5 -8q22 -8 22 -22z" />
    <glyph glyph-name="Uacute" unicode="&#xda;" horiz-adv-x="494" 
d="M456 109q0 -8 -14 -15t-27 -7q-4 0 -13 5t-14 5q-26 0 -32 -16t-19 -16q-4 0 -24 5t-26 5q-4 0 -96.5 -5t-96.5 -5q-21 0 -25 20q-5 29 -12 36q3 14 3 27q0 12 -3.5 32.5t-3.5 31.5t-3 57q-2 51 -3 70q0 6 1 17v15q0 -5 -5 76q-6 76 -6 73q0 43 30 43q20 0 117 -39
q5 -26 4 -75q-1 -65 0 -83q1 -13 4.5 -48.5t3.5 -40.5q0 -53 -5 -62q-8 -15 -37 -17q-34 -2 -59 -29q2 -4 4.5 -8t7.5 -4q4 0 19.5 3t19.5 3q2 0 27.5 -3t37.5 -3t55 3q34 2 55 0q6 12 11 62q5 44 5 67q0 4 -1.5 17t-1.5 19q-4 0 -17 1.5t-20 1.5l-4 20q-3 16 0 20
q6 10 39 4v23q-1 1 -46 3q-4 5 -4 15q0 17 9 21.5t22 5.5q10 0 23 -1.5t14 -1.5q37 0 37 -23q0 -4 -1 -19q-2 -18 -2 -22q-9 -160 -9 -159q3 -7 8 -7q1 0 5.5 1t8.5 1q21 0 51 -27q8 -46 8 -73zM149 313q0 110 -11 171q-4 18 -28 18q-21 0 -21 -42q0 -21 7 -105.5t7 -110.5
h17q29 0 29 69zM311 663q-3 -1 -10.5 3.5t-11.5 4.5q-2 -1 -9 -5q-1 0 -15.5 -15.5t-23.5 -21.5q-14 6 -35 6q0 -9 -8 -24q-3 -2 -7 -2q-10 0 -20 14.5t-21 51.5l18 13q5 -2 14 -9l4 -13q3 -7 12 -7q27 0 44 12q8 8 18.5 17.5t17.5 8.5l-9 13q-7 2 -15.5 10.5t-8.5 16.5
q0 15 37 42q9 6 33 1q19 -21 45 -54q3 -5 3 -12q0 -24 -18 -36.5t-34 -14.5z" />
    <glyph glyph-name="Ucircumflex" unicode="&#xdb;" horiz-adv-x="494" 
d="M456 109q0 -8 -14 -15t-27 -7q-4 0 -13 5t-14 5q-26 0 -32 -16t-19 -16q-4 0 -24 5t-26 5q-4 0 -96.5 -5t-96.5 -5q-21 0 -25 20q-5 29 -12 36q3 14 3 27q0 12 -3.5 32.5t-3.5 31.5t-3 57q-2 51 -3 70q0 6 1 17v15q0 -5 -5 76q-6 76 -6 73q0 43 30 43q20 0 117 -39
q5 -26 4 -75q-1 -65 0 -83q1 -13 4.5 -48.5t3.5 -40.5q0 -53 -5 -62q-8 -15 -37 -17q-34 -2 -59 -29q2 -4 4.5 -8t7.5 -4q4 0 19.5 3t19.5 3q2 0 27.5 -3t37.5 -3t55 3q34 2 55 0q6 12 11 62q5 44 5 67q0 4 -1.5 17t-1.5 19q-4 0 -17 1.5t-20 1.5l-4 20q-3 16 0 20
q6 10 39 4v23q-1 1 -46 3q-4 5 -4 15q0 17 9 21.5t22 5.5q10 0 23 -1.5t14 -1.5q37 0 37 -23q0 -4 -1 -19q-2 -18 -2 -22q-9 -160 -9 -159q3 -7 8 -7q1 0 5.5 1t8.5 1q21 0 51 -27q8 -46 8 -73zM149 313q0 110 -11 171q-4 18 -28 18q-21 0 -21 -42q0 -21 7 -105.5t7 -110.5
h17q29 0 29 69zM381 697q0 -2 -5 -26t-6 -33q-2 -15 1 -38q-16 -20 -25 -20q-3 0 -5.5 1t-5.5 1t-18.5 -7t-18.5 -7q-12 0 -21.5 11t-9.5 20q0 2 4 13.5t4 16.5q-1 22 -1 65q1 3 6.5 10.5t5.5 10.5q0 5 -10.5 15t-14.5 10q-16 0 -23 -26q-5 -15 -5 -26q0 -25 3 -40
q1 -4 5 -14t4 -13q0 -14 -15 -24q-4 0 -13 -4q2 -12 -4 -23.5t-16 -11.5q-3 0 -11.5 4t-11.5 5q-15 3 -30 5q-20 4 -25 11q-2 15 2 27q-1 3 -6.5 10.5t-5.5 10.5q0 -1 4.5 25.5t3.5 46.5q12 20 36 20q3 0 16 -3.5t16 -3.5q9 0 37.5 38.5t41.5 38.5q3 0 24 -30q26 -35 40 -49
q8 0 29 -1q8 1 16 -4.5t8 -11.5zM180 611q16 -4 16 29q0 37 -18 33q-22 -5 -22 -28q0 -28 24 -34z" />
    <glyph glyph-name="Udieresis" unicode="&#xdc;" horiz-adv-x="494" 
d="M456 109q0 -8 -14 -15t-27 -7q-4 0 -13 5t-14 5q-26 0 -32 -16t-19 -16q-4 0 -24 5t-26 5q-4 0 -96.5 -5t-96.5 -5q-21 0 -25 20q-5 29 -12 36q3 14 3 27q0 12 -3.5 32.5t-3.5 31.5t-3 57q-2 51 -3 70q0 6 1 17v15q0 -5 -5 76q-6 76 -6 73q0 43 30 43q20 0 117 -39
q5 -26 4 -75q-1 -65 0 -83q1 -13 4.5 -48.5t3.5 -40.5q0 -53 -5 -62q-8 -15 -37 -17q-34 -2 -59 -29q2 -4 4.5 -8t7.5 -4q4 0 19.5 3t19.5 3q2 0 27.5 -3t37.5 -3t55 3q34 2 55 0q6 12 11 62q5 44 5 67q0 4 -1.5 17t-1.5 19q-4 0 -17 1.5t-20 1.5l-4 20q-3 16 0 20
q6 10 39 4v23q-1 1 -46 3q-4 5 -4 15q0 17 9 21.5t22 5.5q10 0 23 -1.5t14 -1.5q37 0 37 -23q0 -4 -1 -19q-2 -18 -2 -22q-9 -160 -9 -159q3 -7 8 -7q1 0 5.5 1t8.5 1q21 0 51 -27q8 -46 8 -73zM149 313q0 110 -11 171q-4 18 -28 18q-21 0 -21 -42q0 -21 7 -105.5t7 -110.5
h17q29 0 29 69zM196 681q0 -2 -4 -11.5t-4 -14.5q0 -2 2 -12t1 -14q-15 -12 -19 -12q-3 0 -12.5 2.5t-11.5 2.5q-3 0 -19.5 -2.5t-18.5 -2.5q-30 0 -30 26q0 2 3.5 13.5t4.5 15.5q1 14 -4 38q21 15 42 15q3 0 10.5 -2t10.5 -2q2 0 8.5 2t8.5 2q12 0 18 -11q14 -26 14 -33z
M160 654v21q0 9 -24 9q-22 0 -22 -15q4 -22 12 -22q-1 0 34 7zM292 655q0 2 4 11.5t4 14.5q0 2 -2 12t-1 14q15 12 19 12q3 0 12.5 -2.5t11.5 -2.5q3 0 19.5 2.5t18.5 2.5q30 0 30 -26q0 -2 -3.5 -13.5t-4.5 -16.5q-1 -13 4 -37q-21 -15 -42 -15q-3 0 -10.5 2t-10.5 2
q-2 0 -8.5 -2t-8.5 -2q-12 0 -18 11q-14 26 -14 33zM328 682v-21q0 -9 24 -9q22 0 22 15q-4 21 -12 21q1 0 -34 -6z" />
    <glyph glyph-name="Yacute" unicode="&#xdd;" horiz-adv-x="504" 
d="M461 455q0 -2 -11 -93q-12 -104 -17 -150q-1 -11 -10 -14t-16 -6q-22 -16 -28 -53q-3 -29 -7 -59q-11 -41 -14 -50q-9 -25 -27 -44q-7 -7 -37 -28q-12 -9 -34 -21q-9 -6 -44 -14q-24 -5 -48 -32q2 -15 -5 -41q-12 -19 -45 -19q-49 0 -60.5 4t-16.5 44q-2 15 -10 48
q-7 29 -7 33q0 18 38 30q29 9 50 9q37 0 55 -46q18 6 38.5 12.5t33.5 20.5q24 27 25 86v83q-38 2 -64.5 12.5t-35.5 15.5q-16 8 -28 23q-19 21 -27 51q-25 71 -69 212q-1 1 5 2.5t8 5.5q5 12 -3 16q-2 2 -13 -2.5t-15 -4.5q-2 0 -3 1q-8 7 -8 36q0 3 9.5 5.5t11.5 7.5
q1 2 -1.5 13.5t-2.5 18.5q0 23 21 23q15 0 25 -23q6 -14 11 -28q15 -1 39 9q4 1 7.5 -11t1.5 -17q-3 -7 -19 -11q-20 -5 -27 -11q0 -7 5 -15q9 4 27 4q27 -12 43 -69q11 -39 50 -146q5 -11 -4 -42q9 -12 41.5 -22.5t59.5 -6.5q8 46 10 106q6 134 5 165q4 7 14.5 16t16.5 9
q3 0 7.5 -3t8.5 -3q5 0 15 5q-2 6 -22 15t-20 24q0 22 27 22q21 0 52.5 -17.5t31.5 -33.5q0 -11 -12 -22q18 -16 18 -30zM413 416q0 10 -10.5 19t-22.5 9h-17q5 -4 5 -23q0 -12 -3 -36.5t-3 -28.5v-109h30q21 136 21 169zM120 -118q-11 43 -10 65q-5 7 -10 7q-25 0 -25 -23
q0 -10 25 -49h20zM311 663q-3 -1 -10.5 3.5t-11.5 4.5q-2 -1 -9 -5q-1 0 -15.5 -15.5t-23.5 -21.5q-14 6 -35 6q0 -9 -8 -24q-3 -2 -7 -2q-10 0 -20 14.5t-21 51.5l18 13q5 -2 14 -9l4 -13q3 -7 12 -7q27 0 44 12q8 8 18.5 17.5t17.5 8.5l-9 13q-7 2 -15.5 10.5t-8.5 16.5
q0 15 37 42q9 6 33 1q19 -21 45 -54q3 -5 3 -12q0 -24 -18 -36.5t-34 -14.5z" />
    <glyph glyph-name="germandbls" unicode="&#xdf;" horiz-adv-x="394" 
d="M372 339q0 -7 -10 -25q1 -5 1 -13q0 -12 -4.5 -37t-5.5 -34q1 -13 -1 -41q-3 -15 -34 -15q-3 0 -12.5 1t-12.5 1q-66 0 -86 -6q-3 -1 -5.5 -9.5t-6.5 -10.5q-34 -15 -51 -15h-12q-5 3 -12 20q-2 22 -17 60q-3 -12 -3 -25q0 -25 16 -130q14 0 29.5 -0.5t23.5 -16.5
q8 -19 8 -86q0 -17 -11 -21q-54 -23 -77 -23q-5 0 -14.5 5t-10.5 11q-1 23 -4 62q0 5 -4.5 18.5t-4.5 15.5q0 12 15 21q11 5 22 11q-15 70 -19 106q-12 118 -34 291q-4 32 -12 89q-2 12 -8.5 21t-6.5 10q0 31 15.5 42.5t84.5 22.5q28 5 92 18q56 11 59 11q18 0 50 -83
q29 -73 29 -85q0 -14 -27 -31q-15 -9 -43 -31q27 -22 54 -43q50 -42 50 -56zM288 516q0 16 -14 57q-16 51 -33 51q-3 0 -9.5 -1.5t-8.5 -1.5q12 -6 16 -11q7 -8 6 -21q-1 -16 0 -19q9 -34 29 -78q14 10 14 24zM288 230q-1 2 -13 63q-5 21 -8 46q-3 17 -5 33q-7 26 -24 26
q-3 0 -12 -3.5t-12 -3.5q-6 0 -20 7q-2 -17 -4.5 -22t-13.5 -5q-8 0 -9 1q-29 48 -29 47q0 46 26 46q10 0 14 -9t7 -17q34 14 52 27q-5 9 -19 75q-8 40 -42 40q15 0 -115 -17q2 -27 5 -71q6 -16 12 -41q3 -80 20 -223q19 22 40 22q48 0 60 -17t46 -17q40 0 44 13zM162 209
q-2 0 -9 1.5t-8 1.5q-2 -24 17 -33q-9 18 -9 17q0 8 9 13zM143 -33q-12 29 0 49h-19q1 -13 2 -27q0 -23 -16 -23q-2 0 -5.5 1t-6.5 1q0 -2 1 -8t1 -8q28 14 43 15z" />
    <glyph glyph-name="agrave" unicode="&#xe0;" horiz-adv-x="518" 
d="M495 106q0 -8 -11 -19t-20 -12q-50 -7 -78 -5q-24 6 -70 15l-25 -32l-28 5l-41 -12q-4 -1 -20 10q-10 7 -19.5 13t-47.5 8q-33 3 -37 12q-8 18 -8 33q0 8 3.5 24.5t3.5 25.5q-16 3 -26 8q0 5 -1.5 18.5t-1.5 20.5q0 29 5 98q6 79 13 91.5t35 12.5q8 0 45 -5l34 13
q16 -20 98 -20q33 0 41 8q-3 49 -12 145l-9 2l-128 -32l-15 5q-4 0 -10.5 -11t-13.5 -11q-12 0 -36 -2.5t-36 -2.5q-40 0 -45 17l-6 54q14 9 69 21q52 11 73 12l17 -22q3 3 7 23q3 16 13 16q13 0 15.5 -18.5t15.5 -18.5l33 2l40 20l10 -2l17 7q14 0 25 -8q15 -10 22 -13
q9 -9 12 -33q1 -16 0 -50q-2 -41 -2 -55q1 -36 -2 -99q0 -14 10 -46q9 -28 6 -45q10 -12 37 -16t33 -16q2 -5 9 -64t7 -70zM143 567l-1 2h-13q-11 1 -29 -3q-23 -4 -30 -5v-16l16 -3q16 0 34 5q23 7 23 20zM359 134q0 36 -6.5 108t-6.5 109q0 15 -8 26l-122 -8q5 -6 5 -13
q0 -12 -18 -22t-31 -9q-5 -17 -5 -98q0 -39 -8 -50q-10 -1 -20 -2.5t-10 -13.5q0 -29 4 -38q7 -13 30 -13q17 0 19 15q0 -1 0 28q0 26 24 26q55 0 74 -8q3 -3 18 -34q9 -20 26 -20q35 0 35 17zM265 106l-19 34l-20 -3q-3 -9 -3 -18q0 -4 3 -19q2 -12 0 -19q35 10 36 10z
M290 689q0 -14 -16.5 -29t-30.5 -15q-9 0 -27 29t-48 29q-3 0 -14 -3.5t-13 -3.5q-20 0 -16 38q0 1 -2 2t-2 4l2 3q-5 15 -1 20q7 11 30 21q2 1 13 1q3 0 8 -1t8 -1q2 0 8 3t9 3q4 0 10.5 -5.5t6.5 -10.5q0 2 -5 -38q19 -12 31.5 -16t26.5 -8q22 -8 22 -22z" />
    <glyph glyph-name="aacute" unicode="&#xe1;" horiz-adv-x="518" 
d="M495 106q0 -8 -11 -19t-20 -12q-50 -7 -78 -5q-24 6 -70 15l-25 -32l-28 5l-41 -12q-4 -1 -20 10q-10 7 -19.5 13t-47.5 8q-33 3 -37 12q-8 18 -8 33q0 8 3.5 24.5t3.5 25.5q-16 3 -26 8q0 5 -1.5 18.5t-1.5 20.5q0 29 5 98q6 79 13 91.5t35 12.5q8 0 45 -5l34 13
q16 -20 98 -20q33 0 41 8q-3 49 -12 145l-9 2l-128 -32l-15 5q-4 0 -10.5 -11t-13.5 -11q-12 0 -36 -2.5t-36 -2.5q-40 0 -45 17l-6 54q14 9 69 21q52 11 73 12l17 -22q3 3 7 23q3 16 13 16q13 0 15.5 -18.5t15.5 -18.5l33 2l40 20l10 -2l17 7q14 0 25 -8q15 -10 22 -13
q9 -9 12 -33q1 -16 0 -50q-2 -41 -2 -55q1 -36 -2 -99q0 -14 10 -46q9 -28 6 -45q10 -12 37 -16t33 -16q2 -5 9 -64t7 -70zM143 567l-1 2h-13q-11 1 -29 -3q-23 -4 -30 -5v-16l16 -3q16 0 34 5q23 7 23 20zM359 134q0 36 -6.5 108t-6.5 109q0 15 -8 26l-122 -8q5 -6 5 -13
q0 -12 -18 -22t-31 -9q-5 -17 -5 -98q0 -39 -8 -50q-10 -1 -20 -2.5t-10 -13.5q0 -29 4 -38q7 -13 30 -13q17 0 19 15q0 -1 0 28q0 26 24 26q55 0 74 -8q3 -3 18 -34q9 -20 26 -20q35 0 35 17zM265 106l-19 34l-20 -3q-3 -9 -3 -18q0 -4 3 -19q2 -12 0 -19q35 10 36 10z
M323 700q-3 0 -10.5 4.5t-11.5 4.5q-2 -1 -8 -5q-1 0 -16 -16t-23 -22q-14 7 -36 7q0 -9 -8 -24q-3 -2 -7 -2q-10 0 -20 14.5t-20 51.5l17 12q6 -2 14 -8l5 -13q2 -7 12 -7q26 0 43 12q8 8 18.5 17.5t17.5 7.5l-9 13q-7 3 -15.5 11t-8.5 17q0 15 38 41q9 7 33 2
q18 -22 44 -54q4 -5 4 -12q0 -24 -18.5 -37t-34.5 -15z" />
    <glyph glyph-name="acircumflex" unicode="&#xe2;" horiz-adv-x="518" 
d="M447 65q0 -8 -10 -17.5t-18 -9.5q-43 -7 -68 -5q-21 5 -62 13l-22 -28l-25 4l-36 -10q-4 -1 -18 8q-9 6 -18 13q-8 4 -41 6q-29 2 -33 10q-7 17 -7 30q0 7 3.5 21.5t3.5 22.5q-15 2 -24 7q0 4 -1 16t-1 18q0 26 4 87q6 70 12 81t31 11q7 0 40 -5l29 11q15 -17 87 -17
q29 0 36 8q-2 42 -10 127l-8 2l-114 -28l-13 4q-3 0 -9 -9.5t-11 -9.5q-11 0 -32.5 -2.5t-32.5 -2.5q-35 0 -39 15q-3 24 -5 48q12 8 61 18q46 11 64 11l15 -19q2 2 6 20q2 14 12 14q11 0 13 -16.5t14 -16.5l29 3l35 17l9 -2l15 6q13 0 24.5 -8t17.5 -10q8 -8 10 -29
q2 -15 0 -44q-1 -38 -1 -49q0 -32 -2 -87q0 -13 8.5 -39.5t5.5 -41.5q9 -10 34 -14q22 -3 28 -14q2 -5 8 -56.5t6 -61.5zM136 471v2l-12 1q-10 0 -26 -3q-20 -4 -26 -4v-15l14 -2q14 0 30 4q20 6 20 17zM327 89q0 32 -6 95.5t-6 96.5q0 13 -6 22l-109 -7q5 -5 5 -10
q0 -12 -15.5 -20.5t-27.5 -7.5q-4 -15 -4 -87q0 -34 -7 -44q-9 0 -18 -1.5t-9 -12.5q0 -26 4 -33q5 -12 26 -12q14 0 17 14q-1 -2 -1 24q0 23 22 23q48 0 65 -7q3 -3 16 -30q8 -17 23 -17q31 0 31 14zM244 65l-16 29l-19 -2q-2 -8 -2 -16q0 -3 2 -17q2 -10 0 -17q31 9 32 9z
M372 679q0 -2 -5 -24q-5 -25 -6 -34q-2 -15 1 -39q-17 -20 -26 -20q-3 0 -5 1.5t-5 1.5t-18.5 -7.5t-18.5 -7.5q-12 0 -22 11t-10 20q0 3 4.5 14t4.5 16q-1 22 -1 65q1 4 6.5 11t5.5 10q0 6 -10.5 15.5t-15.5 9.5q-15 0 -22 -25q-5 -16 -5 -27q0 -25 3 -39q1 -4 5 -14.5
t4 -13.5q0 -14 -15 -23q-4 -1 -13 -5q2 -12 -4 -23t-16 -11q-3 0 -11.5 4t-11.5 5q-15 2 -30 5q-21 4 -25 11q-2 14 2 26q-1 3 -6.5 10.5t-5.5 11.5q0 -1 4.5 25t3.5 46q11 21 36 21q3 0 16 -3.5t16 -3.5q9 0 37.5 38t41.5 38q2 0 24 -30q26 -35 40 -49q8 0 29 -1
q8 1 16 -4.5t8 -11.5zM171 594q16 -4 16 28q0 38 -18 33q-10 -2 -16 -10t-6 -18q0 -28 24 -33z" />
    <glyph glyph-name="atilde" unicode="&#xe3;" horiz-adv-x="617" 
d="M566 106q0 -8 -11 -19t-20 -12q-50 -7 -78 -5q-24 6 -70 15l-25 -32l-28 5l-41 -12q-4 -1 -20 10q-10 7 -19.5 13t-47.5 8q-33 3 -37 12q-8 18 -8 33q0 8 3.5 24.5t3.5 25.5q-16 3 -26 8q0 5 -1.5 18.5t-1.5 20.5q0 29 5 98q6 79 13 91.5t35 12.5q8 0 45 -5l34 13
q16 -20 98 -20q33 0 41 8q-3 49 -12 145l-9 2l-128 -32l-15 5q-4 0 -10.5 -11t-13.5 -11q-12 0 -36 -2.5t-36 -2.5q-40 0 -45 17l-6 54q14 9 69 21q52 11 73 12l17 -22q3 3 7 23q3 16 13 16q13 0 15.5 -18.5t15.5 -18.5l33 2l40 20l10 -2l17 7q14 0 25 -8q15 -10 22 -13
q9 -9 12 -33q1 -16 0 -50q-2 -41 -2 -55q1 -36 -2 -99q0 -14 10 -46q9 -28 6 -45q10 -12 37 -16t33 -16q2 -5 9 -64t7 -70zM214 567l-1 2h-13q-11 1 -29 -3q-23 -4 -30 -5v-16l16 -3q16 0 34 5q23 7 23 20zM430 134q0 36 -6.5 108t-6.5 109q0 15 -8 26l-122 -8q5 -6 5 -13
q0 -12 -18 -22t-31 -9q-5 -17 -5 -98q0 -39 -8 -50q-10 -1 -20 -2.5t-10 -13.5q0 -29 4 -38q7 -13 31 -13q16 0 18 15q0 -1 0 28q0 26 24 26q55 0 74 -8q3 -3 18 -34q9 -20 26 -20q35 0 35 17zM336 106l-18 34l-21 -3q-3 -9 -3 -18q0 -4 3 -19q2 -12 0 -19q35 10 36 10z
M602 658q0 -7 -6.5 -16t-15.5 -9q-3 0 -22.5 2t-22.5 2q-2 0 -6.5 -2t-6.5 -2t-11 4t-13 5q-68 11 -147 11q-18 0 -18 -14t-14 -14q-13 0 -16 20q0 2 -1 31q0 37 -19 37q-2 0 -7 -1t-7 -1t-10 3t-11 4q-94 14 -88 14q-24 0 -24 -28q0 -2 5 -14.5t5 -14.5q0 -8 -8 -19
t-13 -11q-3 0 -8 1.5t-7 1.5q-36 2 -41 3q-22 3 -24 12q-2 19 -2 18q0 59 22 59q3 0 16.5 -3t15.5 -3q9 0 14 15.5t18 15.5q5 0 75.5 -11.5t86.5 -11.5h13q-1 5 0 16q2 1 8 8q3 3 9 3q10 0 18 -12q-4 -25 -4 -48q0 -29 10 -29q2 0 9.5 3t9.5 3q1 0 26.5 -5t39.5 -5
q7 0 24 -1t18 -1q29 0 32 7q-1 5 -1 11q0 35 34 35q5 1 18.5 5t14.5 4q11 0 19 -8t8 -27q-1 -24 0 -28q5 -22 5 -15zM565 664q0 25 -2 35h-13q-11 -22 -12 -33q-1 0 6 -1t21 -1zM109 690q0 19 -9 19q-6 0 -14 -13l3 -11q12 1 20 5z" />
    <glyph glyph-name="adieresis" unicode="&#xe4;" horiz-adv-x="518" 
d="M495 106q0 -8 -11 -19t-20 -12q-50 -7 -78 -5q-24 6 -70 15l-25 -32l-28 5l-41 -12q-4 -1 -20 10q-10 7 -19.5 13t-47.5 8q-33 3 -37 12q-8 18 -8 33q0 8 3.5 24.5t3.5 25.5q-16 3 -26 8q0 5 -1.5 18.5t-1.5 20.5q0 29 5 98q6 79 13 91.5t35 12.5q8 0 45 -5l34 13
q16 -20 98 -20q33 0 41 8q-3 49 -12 145l-9 2l-128 -32l-15 5q-4 0 -10.5 -11t-13.5 -11q-12 0 -36 -2.5t-36 -2.5q-40 0 -45 17l-6 54q14 9 69 21q52 11 73 12l17 -22q3 3 7 23q3 16 13 16q13 0 15.5 -18.5t15.5 -18.5l33 2l40 20l10 -2l17 7q14 0 25 -8q15 -10 22 -13
q9 -9 12 -33q1 -16 0 -50q-2 -41 -2 -55q1 -36 -2 -99q0 -14 10 -46q9 -28 6 -45q10 -12 37 -16t33 -16q2 -5 9 -64t7 -70zM143 567l-1 2h-13q-11 1 -29 -3q-23 -4 -30 -5v-16l16 -3q16 0 34 5q23 7 23 20zM359 134q0 36 -6.5 108t-6.5 109q0 15 -8 26l-122 -8q5 -6 5 -13
q0 -12 -18 -22t-31 -9q-5 -17 -5 -98q0 -39 -8 -50q-10 -1 -20 -2.5t-10 -13.5q0 -29 4 -38q7 -13 30 -13q17 0 19 15q0 -1 0 28q0 26 24 26q55 0 74 -8q3 -3 18 -34q9 -20 26 -20q35 0 35 17zM265 106l-19 34l-20 -3q-3 -9 -3 -18q0 -4 3 -19q2 -12 0 -19q35 10 36 10z
M182 724q0 -2 -4 -11.5t-4 -14.5q0 -2 2 -12t1 -14q-15 -11 -20 -11q-2 0 -11.5 2t-11.5 2q-3 0 -19.5 -2t-18.5 -2q-30 0 -30 26q0 2 3.5 13t3.5 16q2 14 -3 37q21 16 42 16q3 0 10.5 -2.5t10.5 -2.5q2 0 8 2.5t9 2.5q12 0 18 -12q14 -26 14 -33zM145 698v20q0 10 -23 10
q-22 0 -22 -16q4 -21 12 -21q-1 0 33 7zM277 698q0 2 4.5 11.5t4.5 14.5q0 2 -2 12.5t-1 14.5q15 11 19 11q3 0 12 -2t12 -2q2 0 18.5 2t19.5 2q30 0 30 -26q0 -2 -3.5 -13.5t-4.5 -15.5q-1 -14 4 -37q-21 -16 -42 -16q-3 0 -10.5 2t-10.5 2q-2 0 -8.5 -2t-8.5 -2
q-13 0 -19 11q-14 27 -14 33zM314 725v-20q0 -10 24 -10q21 0 21 15q-3 22 -11 22q1 0 -34 -7z" />
    <glyph glyph-name="ccedilla" unicode="&#xe7;" horiz-adv-x="426" 
d="M351 629l1 -10q0 -8 -10 -21q-1 -1 -14 -1q-3 0 -3 3q0 1 3 15q3 11 1 17q-1 3 -7 3q-6 -1 -7 0q-3 -13 -12 -36q-2 -3 -10 0q-9 4 -10 4q4 19 0 33q-7 2 -55 2q-39 0 -68 -15q-35 -18 -35 -52q0 2 13 -52q6 -22 10 -60q4 -49 6 -61q-3 -12 -2.5 -39t-3.5 -40
q-14 -15 -14 -38q0 -6 2.5 -19t2.5 -20q0 -9 -2 -25t-2 -24q0 -24 19 -39q42 -2 50 -12q10 -19 21 -37q16 0 51 3q9 0 30 2q16 0 39 -2.5t36 -2.5q7 -28 2 -31q-16 -10 -145 -7q2 -2 4 -3q-4 -38 -2 -59q12 -7 24.5 -14.5t15.5 -16.5q4 -13 1 -38q-3 -27 -2 -36q0 -2 2 -8.5
t2 -9.5q0 -7 -12 -26q-14 -24 -27 -24q-4 0 -9 4t-8 4q-56 0 -83 -4q-4 -1 -11.5 -7.5t-10.5 -6.5q-2 0 -23.5 9t-26.5 9q-3 0 -14.5 -3t-14.5 -3q-28 0 -28 39q0 51 51 51q3 0 7 -2.5t7 -2.5t17.5 5t18.5 5q7 0 19.5 -8t12.5 -19q0 -3 -5.5 -6.5t-5.5 -6.5q0 -5 10 -14
l50 4q38 6 38 33q0 32 -15 42q-4 3 -27 8q-15 3 -15 18q0 3 4 17t5 18q2 11 1 25q-8 0 -25 -3q-7 -2 -21 -12q-5 -4 -46 -4q-34 0 -48.5 13.5t-14.5 47.5q0 54 27 76t27 65q0 54 -9 70q-6 11 -25 13q-22 3 -34 14q-8 118 -8 134q0 76 15 123q18 58 66 100q84 13 137 13
q24 0 30 -2h25q6 21 2 30q0 5 4 6q3 1 11 -0.5t11 -1.5l6 -43q7 -4 8 -1q2 6 3 24q0 15 2 15q21 0 22 -1v-24q0 -16 19 -18q-14 1 31 1q6 0 7 -18t-5 -24.5t-54 -3.5zM198 94l-2 13l-20 11l-2 -48l13 5v14q6 2 11 5zM121 114q0 7 -2 13q-4 2 -16 2q-26 0 -26 -12v-25
q0 -22 4 -31q12 0 36 -1q4 49 4 54zM101 -123q1 3 0 4q-2 7 -11 7t-11 -7v-4q1 -6 11 -6t11 6z" />
    <glyph glyph-name="egrave" unicode="&#xe8;" 
d="M384 128l-1 -30l-24 -6l1 -14l-2 -13l-20 -8q-6 0 -10 10q-3 7 -6 15q-6 0 -10 -12q-5 -17 -6 -18q-12 -15 -62 -15q-26 0 -33.5 16.5t-10.5 15.5q-95 -12 -96 -12q-17 0 -17 69q0 90 0 85q-3 13 -8 43q0 10 -1 34q-1 30 -5 70q-17 1 -33 2q-22 2 -22 18q0 6 3.5 18.5
t3.5 19.5q0 32 -1 89q-1 63 -1 89q0 12 4 31q6 26 7 31q14 7 56 18q56 -17 95 -17q6 0 28 7q78 -16 87 -16t16 1q9 -5 25 -18l-1 -24q-1 -25 3 -35q6 -13 7 -18q1 -16 4 -53q2 -21 5 -68q0 -3 -2 -24q-2 -13 4 -25q-3 -9 -5 -46l-1 -14q-16 -20 -25 -20q-131 0 -192 -3v-17
q-9 -14 -9 -21v-92l4 -40q3 -32 12 -32q12 0 51 16v5q-1 50 54 50q28 0 38 -3q18 -7 19 -30l11 -6q10 -1 10 24q0 16 15 15q8 -3 25 -13l-4 -11l-2 -12zM304 566v33q-6 10 -15 7l-44 11l-12 -6l32 -28q23 -18 34 -18zM265 378q0 31 -17 151l-48 66q-28 30 -73 30
q-5 0 -14 -1.5t-13 -1.5v-72q0 -15 22.5 -31t22.5 -32q0 -10 -3 -30.5t-3 -30.5q0 -12 15 -40l-25 -32l3 -15q-3 -1 75 -1q14 0 57 11q1 11 1 29zM272 105q0 26 -23 26q-14 0 -14 -21q0 -9 7.5 -23.5t15.5 -14.5q14 0 14 33zM252 718q0 -14 -16.5 -29t-30.5 -15q-9 0 -27 29
t-48 29q-3 0 -14 -3.5t-13 -3.5q-20 0 -16 38q0 1 -2 2t-2 4l2 3q-5 15 -1 20q7 11 30 21q2 1 13 1q3 0 8 -1t8 -1q2 0 8 3t9 3q4 0 10.5 -5.5t6.5 -10.5q0 2 -5 -38q19 -12 31.5 -16t26.5 -8q22 -8 22 -22z" />
    <glyph glyph-name="eacute" unicode="&#xe9;" 
d="M384 128l-1 -30l-24 -6l1 -14l-2 -13l-20 -8q-6 0 -10 10q-3 7 -6 15q-6 0 -10 -12q-5 -17 -6 -18q-12 -15 -62 -15q-26 0 -33.5 16.5t-10.5 15.5q-95 -12 -96 -12q-17 0 -17 69q0 90 0 85q-3 13 -8 43q0 10 -1 34q-1 30 -5 70q-17 1 -33 2q-22 2 -22 18q0 6 3.5 18.5
t3.5 19.5q0 32 -1 89q-1 63 -1 89q0 12 4 31q6 26 7 31q14 7 56 18q56 -17 95 -17q6 0 28 7q78 -16 87 -16t16 1q9 -5 25 -18l-1 -24q-1 -25 3 -35q6 -13 7 -18q1 -16 4 -53q2 -21 5 -68q0 -3 -2 -24q-2 -13 4 -25q-3 -9 -5 -46l-1 -14q-16 -20 -25 -20q-131 0 -192 -3v-17
q-9 -14 -9 -21v-92l4 -40q3 -32 12 -32q12 0 51 16v5q-1 50 54 50q28 0 38 -3q18 -7 19 -30l11 -6q10 -1 10 24q0 16 15 15q8 -3 25 -13l-4 -11l-2 -12zM304 566v33q-6 10 -15 7l-44 11l-12 -6l32 -28q23 -18 34 -18zM265 378q0 31 -17 151l-48 66q-28 30 -73 30
q-5 0 -14 -1.5t-13 -1.5v-72q0 -15 22.5 -31t22.5 -32q0 -10 -3 -30.5t-3 -30.5q0 -12 15 -40l-25 -32l3 -15q-3 -1 75 -1q14 0 57 11q1 11 1 29zM272 105q0 26 -23 26q-14 0 -14 -21q0 -9 7.5 -23.5t15.5 -14.5q14 0 14 33zM265 726q-3 -1 -10.5 3.5t-11.5 4.5l-8 -4
q-1 -1 -16 -16.5t-24 -21.5q-13 6 -35 7q0 -10 -8 -25q-3 -2 -7 -2q-10 0 -20 14.5t-20 51.5l17 13q5 -2 14 -9l5 -13q2 -7 11 -7q27 0 44 12q8 8 18.5 17.5t17.5 8.5l-9 13q-7 2 -15.5 10.5t-8.5 16.5q0 15 38 42q9 6 33 1q18 -21 44 -54q4 -5 4 -12q0 -24 -18.5 -36.5
t-34.5 -14.5z" />
    <glyph glyph-name="ecircumflex" unicode="&#xea;" horiz-adv-x="358" 
d="M317 111l-1 -24l-20 -5l1 -12l-2 -10l-16 -7q-5 0 -8 7t-5 13q-5 1 -8 -9q-5 -14 -5 -15q-10 -12 -51 -12q-21 0 -27 13.5t-9 12.5q-77 -10 -78 -10q-14 0 -14 56q0 73 1 70q-3 11 -7 35q0 8 -1 27q-2 30 -4 58q-14 1 -27 1q-18 2 -18 15q0 5 2.5 15.5t2.5 15.5
q1 26 0 72q-1 52 -1 73q0 -9 9 51q11 5 45 14q47 -14 78 -14q5 0 23 6q64 -13 71 -13t13 1q7 -4 20 -15l-1 -19q0 -21 3 -29q5 -11 6 -14q1 -14 3 -44q1 -17 4 -55q-3 -12 2 -40q-3 -7 -4 -38l-1 -11q-14 -17 -20 -17q-107 0 -157 -1v-14q-7 -12 -7 -18v-74q1 -17 3 -34
q3 -26 10 -26q9 0 42 14l-1 4q0 41 44 41q45 0 47 -27l9 -5q7 -1 7 19q0 13 13 13q7 -3 20 -11l-3 -9l-2 -10zM252 468v27q-5 8 -13 6l-36 9l-10 -5l26 -22q19 -16 28 -16zM219 315q0 26 -13 123q-20 27 -39 54q-23 24 -60 24q-4 0 -11.5 -1t-10.5 -1v-59q0 -12 18 -25
t18 -26q0 -9 -2 -25.5t-2 -24.5q0 -10 12 -32l-20 -26l2 -13q-2 0 61 0q12 0 47 8v24zM225 92q0 22 -19 22q-11 0 -11 -18q0 -7 6 -19t12 -12q12 0 12 27zM318 711q0 -2 -5 -26t-7 -33q-2 -15 1 -38q-16 -20 -25 -20q-3 0 -5.5 1t-5.5 1t-18.5 -7t-18.5 -7q-12 0 -21.5 11
t-9.5 20q0 2 4 13.5t5 16.5q-2 22 -1 65q0 3 5.5 10.5t5.5 10.5q0 5 -10.5 15t-14.5 10q-15 0 -23 -26q-4 -15 -4 -27q0 -24 3 -39q0 -4 4 -14t4 -13q0 -14 -14 -24q-5 0 -14 -4q3 -12 -3 -23.5t-16 -11.5q-3 0 -11.5 4t-11.5 5q-16 3 -31 5q-20 4 -25 11q-1 15 3 27
q-1 3 -7 10.5t-6 10.5q0 -1 4.5 25.5t3.5 46.5q12 20 36 20q3 0 16.5 -3.5t16.5 -3.5q8 0 37 38.5t42 38.5q2 0 24 -30q25 -35 40 -49q8 0 29 -1q8 0 16 -5t8 -11zM116 625q17 -3 17 29q0 37 -19 33q-9 -2 -15.5 -10t-6.5 -18q0 -28 24 -34z" />
    <glyph glyph-name="edieresis" unicode="&#xeb;" 
d="M384 128l-1 -30l-24 -6l1 -14l-2 -13l-20 -8q-6 0 -10 10q-3 7 -6 15q-6 0 -10 -12q-5 -17 -6 -18q-12 -15 -62 -15q-26 0 -33.5 16.5t-10.5 15.5q-95 -12 -96 -12q-17 0 -17 69q0 90 0 85q-3 13 -8 43q0 10 -1 34q-1 30 -5 70q-17 1 -33 2q-22 2 -22 18q0 6 3.5 18.5
t3.5 19.5q0 32 -1 89q-1 63 -1 89q0 12 4 31q6 26 7 31q14 7 56 18q56 -17 95 -17q6 0 28 7q78 -16 87 -16t16 1q9 -5 25 -18l-1 -24q-1 -25 3 -35q6 -13 7 -18q1 -16 4 -53q2 -21 5 -68q0 -3 -2 -24q-2 -13 4 -25q-3 -9 -5 -46l-1 -14q-16 -20 -25 -20q-131 0 -192 -3v-17
q-9 -14 -9 -21v-92l4 -40q3 -32 12 -32q12 0 51 16v5q-1 50 54 50q28 0 38 -3q18 -7 19 -30l11 -6q10 -1 10 24q0 16 15 15q8 -3 25 -13l-4 -11l-2 -12zM304 566v33q-6 10 -15 7l-44 11l-12 -6l32 -28q23 -18 34 -18zM265 378q0 31 -17 151l-48 66q-28 30 -73 30
q-5 0 -14 -1.5t-13 -1.5v-72q0 -15 22.5 -31t22.5 -32q0 -10 -3 -30.5t-3 -30.5q0 -12 15 -40l-25 -32l3 -15q-3 -1 75 -1q14 0 57 11q1 11 1 29zM272 105q0 26 -23 26q-14 0 -14 -21q0 -9 7.5 -23.5t15.5 -14.5q14 0 14 33zM136 747q0 -2 -4.5 -11.5t-4.5 -14.5q0 -2 2 -12
t1 -14q-15 -12 -19 -12q-3 0 -12 2.5t-12 2.5q-2 0 -18.5 -2.5t-19.5 -2.5q-30 0 -30 26q0 2 3.5 13.5t4.5 15.5q1 14 -4 38q21 15 42 15q3 0 10.5 -2t10.5 -2q2 0 8.5 2t8.5 2q13 0 19 -11q14 -26 14 -33zM99 720v21q0 9 -24 9q-22 0 -22 -15q4 -22 12 -22q-1 0 34 7z
M231 721q0 2 4 11.5t4 14.5q0 2 -2 12t-1 14q15 12 20 12q2 0 11.5 -2.5t11.5 -2.5q3 0 19.5 2.5t18.5 2.5q30 0 30 -26q0 -2 -3.5 -13.5t-3.5 -15.5q-2 -14 3 -38q-21 -15 -42 -15q-3 0 -10.5 2t-10.5 2q-2 0 -8 -2t-9 -2q-12 0 -18 11q-14 26 -14 33zM268 748v-21
q0 -9 23 -9q22 0 22 15q-4 21 -12 21q1 0 -33 -6z" />
    <glyph glyph-name="igrave" unicode="&#xec;" horiz-adv-x="221" 
d="M170 636q0 -14 -16.5 -29t-29.5 -15q-9 0 -27 29t-49 29q-2 0 -13 -3t-14 -3q-19 0 -15 38l-2 1t-2 4l2 3q-5 15 -1 20q7 12 30 21q2 1 13 1q3 0 8 -1t7 -1q3 0 9 3.5t9 3.5q4 0 10.5 -6t6.5 -11q0 2 -5 -38q19 -12 31.5 -16t25.5 -7q22 -9 22 -23zM195 82q0 -24 -6 -45
q-8 -30 -25 -30h-18q-10 0 -69 18q-9 3 -29 25q-2 42 -13 138q-3 50 -11 148q-1 13 -6.5 43t-5.5 31q0 16 14 28q1 21 6 34l-12 9q0 11 6 31q8 26 17 26q26 0 27.5 -8.5t3.5 -18.5t8 -10h33q11 -15 -2 -24q-13 0 -35 -2q1 -4 0 -9q14 2 34 -4q7 -9 0 -15q-14 1 -34 1
q-1 -15 -1 -20q0 -22 14 -29q19 -10 29 -35q0 -12 2 -32q0 -11 18 -102q1 -6 1 -37q0 -20 13 -41l22 -26q19 -25 19 -44z" />
    <glyph glyph-name="iacute" unicode="&#xed;" horiz-adv-x="221" 
d="M200 667q-20 -14 -35 -16q-3 0 -11 4t-11 4q-2 0 -9 -4q-1 -1 -16 -16.5t-23 -21.5q-14 6 -35 7q0 -9 -9 -24q-3 -2 -6 -2q-10 0 -20.5 14t-20.5 52l18 12q5 -2 14 -8l4 -14q2 -6 12 -6q26 0 43 12q9 8 17 16q13 11 20 9l-9 13q-7 3 -18 9q-7 10 -7 19q0 15 38 41
q9 6 33 2q19 -22 45 -54q3 -5 3 -12q0 -24 -17 -36zM195 82q0 -24 -6 -45q-8 -30 -25 -30h-18q-10 0 -69 18q-9 3 -29 25q-2 42 -13 138q-3 50 -11 148q-1 13 -6.5 43t-5.5 31q0 16 14 28q1 21 6 34l-12 9q0 11 6 31q8 26 17 26q26 0 27.5 -8.5t3.5 -18.5t8 -10h33
q11 -15 -2 -24q-13 0 -35 -2q1 -4 0 -9q14 2 34 -4q7 -9 0 -15q-14 1 -34 1q-1 -15 -1 -20q0 -22 14 -29q19 -10 29 -35q0 -12 2 -32q0 -11 18 -102q1 -6 1 -37q0 -20 13 -41l22 -26q19 -25 19 -44z" />
    <glyph glyph-name="icircumflex" unicode="&#xee;" horiz-adv-x="327" 
d="M293 703q0 -3 -4 -25q-6 -25 -7 -34q-2 -15 1 -39q-16 -20 -25 -20q-3 0 -5.5 1.5t-5.5 1.5t-18.5 -7.5t-18.5 -7.5q-12 0 -21.5 11t-9.5 21q0 2 4 13t4 16q-1 22 0 65q0 4 5.5 11.5t5.5 9.5q0 6 -10.5 16t-14.5 10q-16 0 -23 -26q-5 -16 -5 -27q0 -25 3 -39
q1 -4 5 -14.5t4 -13.5q0 -14 -15 -23q-4 -1 -13 -5q3 -12 -3.5 -23t-16.5 -11q-3 0 -10 4q-10 4 -13 5q-15 2 -30 5q-20 4 -25 11q-2 14 3 26q-2 3 -7.5 10.5t-5.5 11.5q0 -1 4.5 25t3.5 46q12 21 36 21q3 0 16 -3.5t16 -3.5q9 0 38 38t41 38q3 0 24 -30q26 -35 41 -48
q7 -1 29 -2q8 1 15.5 -4.5t7.5 -10.5zM92 617q16 -4 16 28q0 38 -18 33q-22 -5 -22 -28q0 -28 24 -33zM288 90q0 -24 -6 -45q-8 -30 -24 -30h-19q-10 0 -68 18q-9 2 -30 24q-2 43 -12 139q-4 50 -12 148q-1 13 -6 44q-5 28 -5 30q0 15 14 28q0 21 5 34l-12 9q0 11 6 31
q8 25 18 25q25 0 27 -8t3.5 -18t8.5 -10h32q12 -15 -2 -24q-13 0 -35 -2q1 -4 0 -9q14 2 34 -4q7 -9 0 -15q-14 0 -34 1q-1 -15 -1 -20q0 -22 14 -29q20 -10 29 -35q1 -12 2 -33q1 -10 18 -101q1 -6 1 -37q0 -20 13 -41l22 -26q19 -25 19 -44z" />
    <glyph glyph-name="idieresis" unicode="&#xef;" horiz-adv-x="390" 
d="M235 655q0 2 4.5 12t4.5 14q0 3 -2 13t-1 14q14 11 19 11q3 0 12 -2t12 -2q2 0 18.5 2t19.5 2q30 0 30 -26q0 -2 -3.5 -13t-4.5 -16q-1 -14 4 -37q-21 -16 -42 -16q-3 0 -10.5 2.5t-10.5 2.5q-2 0 -8.5 -2.5t-8.5 -2.5q-13 0 -19 12q-14 26 -14 32zM272 682v-20
q0 -10 24 -10q21 0 21 15q-3 22 -11 22q1 0 -34 -7zM140 681q0 -2 -4.5 -11.5t-4.5 -13.5q0 -3 2.5 -13t1.5 -14q-15 -11 -20 -11q-2 0 -11.5 2t-12.5 2q-2 0 -18.5 -2t-18.5 -2q-31 0 -31 26q0 2 4 13t4 16q2 14 -3 37q21 16 42 16q3 0 10.5 -2.5t9.5 -2.5q3 0 9 2.5t9 2.5
q12 0 18 -12q14 -26 14 -33zM103 655v20q0 10 -23 10q-22 0 -22 -15q4 -22 12 -22q-1 0 33 7zM321 95q0 -24 -6 -45q-8 -30 -25 -30h-18q-10 0 -68 17q-10 3 -30 25q-2 43 -13 139q-3 49 -11 148q-1 13 -6 44q-5 28 -5 30q0 15 14 28q0 21 5 34l-12 9q0 10 6 31q8 25 18 25
q25 0 27 -8t3.5 -18t7.5 -10h33q12 -15 -2 -24q-13 -1 -35 -2q1 -4 0 -9q14 2 34 -4q7 -10 0 -15q-14 0 -34 1q-1 -15 -1 -21q0 -21 14 -28q20 -10 29 -35q1 -12 2 -33q1 -10 18 -101q1 -6 1 -38q0 -19 13 -40l22 -26q19 -25 19 -44z" />
    <glyph glyph-name="ntilde" unicode="&#xf1;" horiz-adv-x="639" 
d="M615 641q0 -8 -6.5 -16.5t-15.5 -8.5q-3 0 -22.5 1.5t-22.5 1.5q-2 0 -6.5 -1.5t-6.5 -1.5t-11 4t-13 5q-68 10 -147 10q-18 0 -18 -13.5t-14 -13.5q-13 0 -16 20q0 1 -1 31q0 36 -19 36q-2 0 -7 -1t-7 -1t-10 3.5t-11 3.5q-94 15 -88 15q-24 0 -24 -29q0 -2 5 -14.5
t5 -14.5q0 -7 -8 -18.5t-13 -11.5q-3 0 -8 1.5t-7 1.5q-36 3 -41 4q-22 3 -24 12q-2 18 -2 17q0 59 22 59q3 0 16.5 -2.5t15.5 -2.5q9 0 14 15.5t18 15.5q5 0 75.5 -12t86.5 -12h13q-1 6 0 17q2 1 8 7q3 3 9 3q10 0 18 -12q-4 -24 -4 -47q0 -30 10 -30q2 0 9.5 3t9.5 3
q1 0 26.5 -5t39.5 -4q7 0 24 -1.5t18 -1.5q29 0 32 7q-1 5 -1 11q0 35 34 36q5 0 18.5 4t14.5 4q11 0 19 -8t8 -26q-1 -25 0 -28q5 -23 5 -15zM578 647q0 24 -2 34h-13q-11 -22 -12 -32q-1 0 6 -1t21 -1zM122 672q0 19 -9 19q-6 0 -14 -12l3 -12q12 1 20 5zM557 366
q-3 -2 -1 -124q-18 -7 -44 -14q1 -29 8 -59.5l7 -30.5q0 -2 -13 -10q-16 -10 -21 -15q-14 -15 -20 -48.5t-9 -35.5q-21 -11 -27 -11q-10 0 -25 9q-11 95 -11 93q5 4 23 14q10 2 21 3q15 3 15 16q0 30 -15 75q-15 9 -31 27q-1 15 -7 49q-6 28 -6 50q0 40 17 52q-1 17 -10 50
q-5 10 -28 15q-58 12 -116 21q-6 1 -39 1q-9 -13 -9 -30q0 -5 1 -14t1 -12q0 -9 -3 -14q-6 -11 -23 -13q-20 -2 -23 -4q7 -60 7 -165v-24q36 0 47 -5t15 -30.5t13 -25.5q2 0 7 1t9 1q28 0 28 -19l-2 -15t-1 -21q-3 -5 -29 -13.5t-30 -8.5q-1 0 -17 4.5t-33 6.5
q-16 11 -40 35q-21 34 -21 55q0 10 17 20v129q-2 23 -8 79q-9 113 -9 104q0 40 41 40q103 0 231 -14q20 -1 41 -6q8 -9 8 -31t11 -30q-2 -6 -2 -11q0 -10 16 -35q-1 -4 -1 -8q0 -18 41.5 -24.5t48.5 -28.5zM183 453q9 -1 9 17q0 22 -11 19q-12 -4 -12 -17q0 -17 14 -19z
M224 148q-5 2 -14 9q-4 3 -6 13.5t-8 10.5q-14 1 -15 -24q-1 -11 7 -22.5t17 -11.5t15.5 8.5t3.5 16.5z" />
    <glyph glyph-name="ograve" unicode="&#xf2;" horiz-adv-x="512" 
d="M469 155q0 -56 -18 -75t-63 -19q-14 0 -37 1q-29 -13 -75 -18l-78 -6l-14 7q-10 0 -32 -3.5t-33 -3.5q-27 0 -44.5 20.5t-17.5 48.5q0 9 4.5 28.5t5.5 28.5l-8 18q-2 24 -14 137q-10 87 -10 133q0 23 12 68q14 52 28 60q27 15 97 26q60 9 102 9q11 0 22.5 -7t17.5 -7
q26 0 54 6q22 -8 41 -20q6 -3 16.5 -57.5t10.5 -68.5q0 -6 3.5 -17t4.5 -15q25 -173 25 -274zM346 130q0 58 -20 201q-24 165 -48 200q-9 13 -30 13q-18 0 -56.5 -3t-57.5 -3q-33 0 -43 -49q-4 -21 -4 -77q0 -17 5.5 -100.5t7.5 -90.5t12 -10q9 -2 15 2q107 0 107 -103
q0 -13 -1 -28h55q58 0 58 48zM178 136q0 35 -23 35q-58 0 -58 -46q0 -43 50 -43q8 0 20 6q11 44 11 48zM336 682q0 -14 -16.5 -29t-30.5 -15q-9 0 -27 29t-48 29q-3 0 -14 -3.5t-13 -3.5q-20 0 -16 38q0 1 -2 2t-2 4l2 3q-5 15 -1 20q7 11 30 21q2 1 13 1q3 0 8 -1t8 -1
q2 0 8 3t9 3q4 0 10.5 -5.5t6.5 -10.5q0 2 -5 -38q19 -12 31.5 -16t26.5 -8q22 -8 22 -22z" />
    <glyph glyph-name="oacute" unicode="&#xf3;" horiz-adv-x="512" 
d="M469 155q0 -56 -18 -75t-63 -19q-14 0 -37 1q-29 -13 -75 -18l-78 -6l-14 7q-10 0 -32 -3.5t-33 -3.5q-27 0 -44.5 20.5t-17.5 48.5q0 9 4.5 28.5t5.5 28.5l-8 18q-2 24 -14 137q-10 87 -10 133q0 23 12 68q14 52 28 60q27 15 97 26q60 9 102 9q11 0 22.5 -7t17.5 -7
q26 0 54 6q22 -8 41 -20q6 -3 16.5 -57.5t10.5 -68.5q0 -6 3.5 -17t4.5 -15q25 -173 25 -274zM346 130q0 58 -20 201q-24 165 -48 200q-9 13 -30 13q-18 0 -56.5 -3t-57.5 -3q-33 0 -43 -49q-4 -21 -4 -77q0 -17 5.5 -100.5t7.5 -90.5t12 -10q9 -2 15 2q107 0 107 -103
q0 -13 -1 -28h55q58 0 58 48zM178 136q0 35 -23 35q-58 0 -58 -46q0 -43 50 -43q8 0 20 6q11 44 11 48zM305 697q-3 -1 -10.5 3.5t-11.5 4.5q-2 -1 -8 -5q-1 0 -16 -15.5t-24 -21.5q-13 6 -35 6q0 -9 -8 -24q-3 -2 -7 -2q-10 0 -20 14.5t-20 51.5l17 13q5 -2 14 -9l5 -13
q2 -7 11 -7q27 0 44 12q8 8 18.5 17.5t17.5 8.5l-9 13q-7 2 -15.5 10.5t-8.5 16.5q0 15 37 41q10 7 34 2q18 -21 44 -54q4 -5 4 -12q0 -24 -18.5 -36.5t-34.5 -14.5z" />
    <glyph glyph-name="ocircumflex" unicode="&#xf4;" horiz-adv-x="475" 
d="M436 143q0 -51 -16.5 -69t-57.5 -18q-13 0 -34 2q-29 -13 -140 -23l-13 7q-10 0 -29.5 -3.5t-30.5 -3.5q-24 0 -40 19.5t-16 44.5q0 8 4 26t5 26l-8 16q-2 22 -13 126q-9 80 -9 122q0 21 11 63q13 47 26 54q25 14 89 24q55 9 94 9q10 0 20 -7t16 -7q24 0 49 6
q21 -8 38 -18q6 -3 16 -55q9 -48 9 -61q0 -5 3 -15t4 -14q23 -159 23 -251zM323 120q0 53 -18 184q-22 152 -44 183q-8 12 -27 12q-17 0 -52 -2.5t-53 -2.5q-30 0 -39 -45q-4 -20 -4 -71q0 -16 5 -92.5t7 -82.5t10 -9q9 -2 15 2q98 0 98 -95q0 -11 -1 -25h50q53 0 53 44z
M169 126q0 31 -21 31q-53 0 -53 -41q0 -40 46 -40q7 0 18 5q10 41 10 45zM335 695q0 -2 -4.5 -23t-5.5 -29q-2 -13 1 -34q-15 -18 -23 -18q-3 0 -5 1t-4 1q-3 0 -17 -6t-16 -6q-11 0 -19.5 9.5t-8.5 17.5q0 2 4 12t4 15q-1 19 -1 57q1 3 5.5 9.5t4.5 9.5q0 4 -9 13t-13 9
q-20 0 -24 -47q0 -22 2 -34q1 -4 4.5 -13t3.5 -12q0 -12 -13 -20q-3 -1 -12 -5q3 -10 -2.5 -20t-14.5 -10q-3 0 -10.5 3.5t-9.5 4.5q-14 2 -27 5q-18 3 -22 9q-2 13 2 24q-1 2 -6 9t-5 10q0 -1 4 22t3 41q10 18 32 18q3 0 14.5 -3t14.5 -3q7 0 32.5 33.5t36.5 33.5
q2 0 22 -26q22 -31 35 -43q7 0 26 -1q7 0 14 -4.5t7 -9.5zM157 619q14 -2 14 26q0 34 -16 28q-10 -3 -14.5 -9.5t-4.5 -15.5q0 -26 21 -29z" />
    <glyph glyph-name="otilde" unicode="&#xf5;" horiz-adv-x="611" 
d="M526 155q0 -56 -18 -75t-63 -19q-15 0 -37 1q-30 -13 -75 -18l-78 -6l-14 7q-11 0 -32.5 -3.5t-32.5 -3.5q-27 0 -44.5 20.5t-17.5 48.5q0 9 4.5 28.5t5.5 28.5l-9 18q-1 24 -14 137q-9 87 -9 133q0 23 12 68q14 52 28 60q27 15 97 26q60 9 102 9q11 0 22 -7t18 -7
q25 0 53 6q23 -8 42 -20q6 -3 16.5 -57.5t10.5 -68.5q0 -6 3.5 -17t3.5 -15q26 -173 26 -274zM403 130q0 58 -21 201q-23 165 -47 200q-9 13 -30 13q-19 0 -57 -3t-57 -3q-33 0 -43 -49q-5 -21 -5 -77q0 -17 6 -100.5t8 -90.5t11 -10q10 -2 16 2q107 0 107 -103
q0 -13 -2 -28h55q59 0 59 48zM235 136q0 35 -24 35q-58 0 -58 -46q0 -43 51 -43q7 0 20 6q11 44 11 48zM603 664q0 -7 -6.5 -16t-15.5 -9q-3 0 -22.5 2t-22.5 2q-2 0 -6.5 -2t-6.5 -2t-11 4t-13 5q-68 10 -147 10q-18 0 -18 -13.5t-14 -13.5q-13 0 -16 20q0 2 -1 31
q0 37 -19 37q-2 0 -7 -1t-7 -1t-10 3t-11 4q-94 14 -88 14q-24 0 -24 -28q0 -2 5 -15t5 -14q0 -8 -8 -19t-13 -11q-3 0 -8 1.5t-7 1.5q-36 2 -41 3q-22 3 -24 12q-2 19 -2 17q0 60 22 60q3 0 16.5 -3t15.5 -3q9 0 14 15.5t18 15.5q5 0 75.5 -11.5t86.5 -11.5h13q-1 5 0 16
q2 1 8 7q3 4 9 4q10 0 18 -13q-4 -24 -4 -47q0 -29 10 -29q2 0 9.5 2.5t9.5 2.5q1 0 26.5 -4.5t39.5 -4.5q7 0 24 -1t18 -1q29 0 32 7q-1 5 -1 10q0 35 34 36q5 1 18.5 5t14.5 4q11 0 19 -8.5t8 -26.5q-1 -24 0 -28q5 -22 5 -15zM566 670q0 25 -2 35h-13q-11 -23 -12 -33
q-1 0 6 -1t21 -1zM110 695q0 20 -9 20q-6 0 -14 -13l3 -11q12 1 20 4z" />
    <glyph glyph-name="odieresis" unicode="&#xf6;" horiz-adv-x="512" 
d="M469 155q0 -56 -18 -75t-63 -19q-14 0 -37 1q-29 -13 -75 -18l-78 -6l-14 7q-10 0 -32 -3.5t-33 -3.5q-27 0 -44.5 20.5t-17.5 48.5q0 9 4.5 28.5t5.5 28.5l-8 18q-2 24 -14 137q-10 87 -10 133q0 23 12 68q14 52 28 60q27 15 97 26q60 9 102 9q11 0 22.5 -7t17.5 -7
q26 0 54 6q22 -8 41 -20q6 -3 16.5 -57.5t10.5 -68.5q0 -6 3.5 -17t4.5 -15q25 -173 25 -274zM346 130q0 58 -20 201q-24 165 -48 200q-9 13 -30 13q-18 0 -56.5 -3t-57.5 -3q-33 0 -43 -49q-4 -21 -4 -77q0 -17 5.5 -100.5t7.5 -90.5t12 -10q9 -2 15 2q107 0 107 -103
q0 -13 -1 -28h55q58 0 58 48zM178 136q0 35 -23 35q-58 0 -58 -46q0 -43 50 -43q8 0 20 6q11 44 11 48zM182 724q0 -2 -4 -11.5t-4 -14.5q0 -2 2 -12t1 -14q-15 -11 -20 -11q-2 0 -11.5 2t-11.5 2q-3 0 -19.5 -2t-18.5 -2q-30 0 -30 26q0 2 3.5 13t3.5 16q2 14 -3 37
q21 16 42 16q3 0 10.5 -2.5t10.5 -2.5q2 0 8 2.5t9 2.5q12 0 18 -12q14 -26 14 -33zM145 698v20q0 10 -23 10q-22 0 -22 -16q4 -21 12 -21q-1 0 33 7zM277 698q0 2 4.5 11.5t4.5 14.5q0 2 -2 12.5t-1 14.5q15 11 19 11q3 0 12 -2t12 -2q2 0 18.5 2t19.5 2q30 0 30 -26
q0 -2 -3.5 -13.5t-4.5 -15.5q-1 -14 4 -37q-21 -16 -42 -16q-3 0 -10.5 2t-10.5 2q-2 0 -8.5 -2t-8.5 -2q-13 0 -19 11q-14 27 -14 33zM314 725v-20q0 -10 24 -10q21 0 21 15q-3 22 -11 22q1 0 -34 -7z" />
    <glyph glyph-name="ugrave" unicode="&#xf9;" horiz-adv-x="494" 
d="M456 109q0 -8 -14 -15t-27 -7q-4 0 -13 5t-14 5q-26 0 -32 -16t-19 -16q-4 0 -24 5t-26 5q-4 0 -96.5 -5t-96.5 -5q-21 0 -25 20q-5 29 -12 36q3 14 3 27q0 12 -3.5 32.5t-3.5 31.5t-3 57q-2 51 -3 70q0 6 1 17v15q0 -5 -5 76q-6 76 -6 73q0 43 30 43q20 0 117 -39
q5 -26 4 -75q-1 -65 0 -83q1 -13 4.5 -48.5t3.5 -40.5q0 -53 -5 -62q-8 -15 -37 -17q-34 -2 -59 -29q2 -4 4.5 -8t7.5 -4q4 0 19.5 3t19.5 3q2 0 27.5 -3t37.5 -3t55 3q34 2 55 0q6 12 11 62q5 44 5 67q0 4 -1.5 17t-1.5 19q-4 0 -17 1.5t-20 1.5l-4 20q-3 16 0 20
q6 10 39 4v23q-1 1 -46 3q-4 5 -4 15q0 17 9 21.5t22 5.5q10 0 23 -1.5t14 -1.5q37 0 37 -23q0 -4 -1 -19q-2 -18 -2 -22q-9 -160 -9 -159q3 -6 8 -6h6q4 1 8 1q21 0 51 -27q8 -46 8 -73zM149 313q0 110 -11 171q-4 18 -28 18q-21 0 -21 -42q0 -21 7 -105.5t7 -110.5h17
q29 0 29 69zM333 640q0 -14 -16.5 -29t-30.5 -15q-9 0 -27 29t-48 29q-3 0 -14 -3.5t-13 -3.5q-20 0 -16 38q0 1 -2 2t-2 4l2 3q-5 15 -1 20q7 11 30 21q2 1 13 1q3 0 8 -1t8 -1q2 0 8 3t9 3q4 0 10.5 -5.5t6.5 -10.5q0 2 -5 -38q19 -12 31.5 -16t26.5 -8q22 -8 22 -22z" />
    <glyph glyph-name="uacute" unicode="&#xfa;" horiz-adv-x="494" 
d="M456 109q0 -8 -14 -15t-27 -7q-4 0 -13 5t-14 5q-26 0 -32 -16t-19 -16q-4 0 -24 5t-26 5q-4 0 -96.5 -5t-96.5 -5q-21 0 -25 20q-5 29 -12 36q3 14 3 27q0 12 -3.5 32.5t-3.5 31.5t-3 57q-2 51 -3 70q0 6 1 17v15q0 -5 -5 76q-6 76 -6 73q0 43 30 43q20 0 117 -39
q5 -26 4 -75q-1 -65 0 -83q1 -13 4.5 -48.5t3.5 -40.5q0 -53 -5 -62q-8 -15 -37 -17q-34 -2 -59 -29q2 -4 4.5 -8t7.5 -4q4 0 19.5 3t19.5 3q2 0 27.5 -3t37.5 -3t55 3q34 2 55 0q6 12 11 62q5 44 5 67q0 4 -1.5 17t-1.5 19q-4 0 -17 1.5t-20 1.5l-4 20q-3 16 0 20
q6 10 39 4v23q-1 1 -46 3q-4 5 -4 15q0 17 9 21.5t22 5.5q10 0 23 -1.5t14 -1.5q37 0 37 -23q0 -4 -1 -19q-2 -18 -2 -22q-9 -160 -9 -159q3 -7 8 -7q1 0 5.5 1t8.5 1q21 0 51 -27q8 -46 8 -73zM149 313q0 110 -11 171q-4 18 -28 18q-21 0 -21 -42q0 -21 7 -105.5t7 -110.5
h17q29 0 29 69zM311 663q-3 -1 -10.5 3.5t-11.5 4.5q-2 -1 -9 -5q-1 0 -15.5 -15.5t-23.5 -21.5q-14 6 -35 6q0 -9 -8 -24q-3 -2 -7 -2q-10 0 -20 14.5t-21 51.5l18 13q5 -2 14 -9l4 -13q3 -7 12 -7q27 0 44 12q8 8 18.5 17.5t17.5 8.5l-9 13q-7 2 -15.5 10.5t-8.5 16.5
q0 15 37 42q9 6 33 1q19 -21 45 -54q3 -5 3 -12q0 -24 -18 -36.5t-34 -14.5z" />
    <glyph glyph-name="ucircumflex" unicode="&#xfb;" horiz-adv-x="494" 
d="M456 109q0 -8 -14 -15t-27 -7q-4 0 -13 5t-14 5q-26 0 -32 -16t-19 -16q-4 0 -24 5t-26 5q-4 0 -96.5 -5t-96.5 -5q-21 0 -25 20q-5 29 -12 36q3 14 3 27q0 12 -3.5 32.5t-3.5 31.5t-3 57q-2 51 -3 70q0 6 1 17v15q0 -5 -5 76q-6 76 -6 73q0 43 30 43q20 0 117 -39
q5 -26 4 -75q-1 -65 0 -83q1 -13 4.5 -48.5t3.5 -40.5q0 -53 -5 -62q-8 -15 -37 -17q-34 -2 -59 -29q2 -4 4.5 -8t7.5 -4q4 0 19.5 3t19.5 3q2 0 27.5 -3t37.5 -3t55 3q34 2 55 0q6 12 11 62q5 44 5 67q0 4 -1.5 17t-1.5 19q-4 0 -17 1.5t-20 1.5l-4 20q-3 16 0 20
q6 10 39 4v23q-1 1 -46 3q-4 5 -4 15q0 17 9 21.5t22 5.5q10 0 23 -1.5t14 -1.5q37 0 37 -23q0 -4 -1 -19q-2 -18 -2 -22q-9 -160 -9 -159q3 -7 8 -7q1 0 5.5 1t8.5 1q21 0 51 -27q8 -46 8 -73zM149 313q0 110 -11 171q-4 18 -28 18q-21 0 -21 -42q0 -21 7 -105.5t7 -110.5
h17q29 0 29 69zM381 697q0 -2 -5 -26t-6 -33q-2 -15 1 -38q-16 -20 -25 -20q-3 0 -5.5 1t-5.5 1t-18.5 -7t-18.5 -7q-12 0 -21.5 11t-9.5 20q0 2 4 13.5t4 16.5q-1 22 -1 65q1 3 6.5 10.5t5.5 10.5q0 5 -10.5 15t-14.5 10q-16 0 -23 -26q-5 -15 -5 -26q0 -25 3 -40
q1 -4 5 -14t4 -13q0 -14 -15 -24q-4 0 -13 -4q2 -12 -4 -23.5t-16 -11.5q-3 0 -11.5 4t-11.5 5q-15 3 -30 5q-20 4 -25 11q-2 15 2 27q-1 3 -6.5 10.5t-5.5 10.5q0 -1 4.5 25.5t3.5 46.5q12 20 36 20q3 0 16 -3.5t16 -3.5q9 0 37.5 38.5t41.5 38.5q3 0 24 -30q26 -35 40 -49
q8 0 29 -1q8 1 16 -4.5t8 -11.5zM180 611q16 -4 16 29q0 37 -18 33q-22 -5 -22 -28q0 -28 24 -34z" />
    <glyph glyph-name="udieresis" unicode="&#xfc;" horiz-adv-x="494" 
d="M456 109q0 -8 -14 -15t-27 -7q-4 0 -13 5t-14 5q-26 0 -32 -16t-19 -16q-4 0 -24 5t-26 5q-4 0 -96.5 -5t-96.5 -5q-21 0 -25 20q-5 29 -12 36q3 14 3 27q0 12 -3.5 32.5t-3.5 31.5t-3 57q-2 51 -3 70q0 6 1 17v15q0 -5 -5 76q-6 76 -6 73q0 43 30 43q20 0 117 -39
q5 -26 4 -75q-1 -65 0 -83q1 -13 4.5 -48.5t3.5 -40.5q0 -53 -5 -62q-8 -15 -37 -17q-34 -2 -59 -29q2 -4 4.5 -8t7.5 -4q4 0 19.5 3t19.5 3q2 0 27.5 -3t37.5 -3t55 3q34 2 55 0q6 12 11 62q5 44 5 67q0 4 -1.5 17t-1.5 19q-4 0 -17 1.5t-20 1.5l-4 20q-3 16 0 20
q6 10 39 4v23q-1 1 -46 3q-4 5 -4 15q0 17 9 21.5t22 5.5q10 0 23 -1.5t14 -1.5q37 0 37 -23q0 -4 -1 -19q-2 -18 -2 -22q-9 -160 -9 -159q3 -7 8 -7q1 0 5.5 1t8.5 1q21 0 51 -27q8 -46 8 -73zM149 313q0 110 -11 171q-4 18 -28 18q-21 0 -21 -42q0 -21 7 -105.5t7 -110.5
h17q29 0 29 69zM196 681q0 -2 -4 -11.5t-4 -14.5q0 -2 2 -12t1 -14q-15 -12 -19 -12q-3 0 -12.5 2.5t-11.5 2.5q-3 0 -19.5 -2.5t-18.5 -2.5q-30 0 -30 26q0 2 3.5 13.5t4.5 15.5q1 14 -4 38q21 15 42 15q3 0 10.5 -2t10.5 -2q2 0 8.5 2t8.5 2q12 0 18 -11q14 -26 14 -33z
M160 654v21q0 9 -24 9q-22 0 -22 -15q4 -22 12 -22q-1 0 34 7zM292 655q0 2 4 11.5t4 14.5q0 2 -2 12t-1 14q15 12 19 12q3 0 12.5 -2.5t11.5 -2.5q3 0 19.5 2.5t18.5 2.5q30 0 30 -26q0 -2 -3.5 -13.5t-4.5 -16.5q-1 -13 4 -37q-21 -15 -42 -15q-3 0 -10.5 2t-10.5 2
q-2 0 -8.5 -2t-8.5 -2q-12 0 -18 11q-14 26 -14 33zM328 682v-21q0 -9 24 -9q22 0 22 15q-4 21 -12 21q1 0 -34 -6z" />
    <glyph glyph-name="yacute" unicode="&#xfd;" horiz-adv-x="504" 
d="M461 455q0 -2 -11 -93q-12 -104 -17 -150q-1 -11 -10 -14t-16 -6q-22 -16 -28 -53q-3 -29 -7 -59q-11 -41 -14 -50q-9 -25 -27 -44q-7 -7 -37 -28q-12 -9 -34 -21q-9 -6 -44 -14q-24 -5 -48 -32q2 -15 -5 -41q-12 -19 -45 -19q-49 0 -60.5 4t-16.5 44q-2 15 -10 48
q-7 29 -7 33q0 18 38 30q29 9 50 9q37 0 55 -46q18 6 38.5 12.5t33.5 20.5q24 27 25 86v83q-38 2 -64.5 12.5t-35.5 15.5q-16 8 -28 23q-19 21 -27 51q-25 71 -69 212q-1 1 5 2.5t8 5.5q5 12 -3 16q-2 2 -13 -2.5t-15 -4.5q-2 0 -3 1q-8 7 -8 36q0 3 9.5 5.5t11.5 7.5
q1 2 -1.5 13.5t-2.5 18.5q0 23 21 23q15 0 25 -23q6 -14 11 -28q15 -1 39 9q4 1 7.5 -11t1.5 -17q-3 -7 -19 -11q-20 -5 -27 -11q0 -7 5 -15q9 4 27 4q27 -12 43 -69q11 -39 50 -146q5 -11 -4 -42q9 -12 41.5 -22.5t59.5 -6.5q8 46 10 106q6 134 5 165q4 7 14.5 16t16.5 9
q3 0 7.5 -3t8.5 -3q5 0 15 5q-2 6 -22 15t-20 24q0 22 27 22q21 0 52.5 -17.5t31.5 -33.5q0 -11 -12 -22q18 -16 18 -30zM413 416q0 10 -10.5 19t-22.5 9h-17q5 -4 5 -23q0 -12 -3 -36.5t-3 -28.5v-109h30q21 136 21 169zM120 -118q-11 43 -10 65q-5 7 -10 7q-25 0 -25 -23
q0 -10 25 -49h20zM311 663q-3 -1 -10.5 3.5t-11.5 4.5q-2 -1 -9 -5q-1 0 -15.5 -15.5t-23.5 -21.5q-14 6 -35 6q0 -9 -8 -24q-3 -2 -7 -2q-10 0 -20 14.5t-21 51.5l18 13q5 -2 14 -9l4 -13q3 -7 12 -7q27 0 44 12q8 8 18.5 17.5t17.5 8.5l-9 13q-7 2 -15.5 10.5t-8.5 16.5
q0 15 37 42q9 6 33 1q19 -21 45 -54q3 -5 3 -12q0 -24 -18 -36.5t-34 -14.5z" />
    <glyph glyph-name="ydieresis" unicode="&#xff;" horiz-adv-x="504" 
d="M461 455q0 -2 -11 -93q-12 -104 -17 -150q-1 -11 -10 -14t-16 -6q-22 -16 -28 -53q-3 -29 -7 -59q-11 -41 -14 -50q-9 -25 -27 -44q-7 -7 -37 -28q-12 -9 -34 -21q-9 -6 -44 -14q-24 -5 -48 -32q2 -15 -5 -41q-12 -19 -45 -19q-49 0 -60.5 4t-16.5 44q-2 15 -10 48
q-7 29 -7 33q0 18 38 30q29 9 50 9q37 0 55 -46q18 6 38.5 12.5t33.5 20.5q24 27 25 86v83q-38 2 -64.5 12.5t-35.5 15.5q-16 8 -28 23q-19 21 -27 51q-25 71 -69 212q-1 1 5 2.5t8 5.5q5 12 -3 16q-2 2 -13 -2.5t-15 -4.5q-2 0 -3 1q-8 7 -8 36q0 3 9.5 5.5t11.5 7.5
q1 2 -1.5 13.5t-2.5 18.5q0 23 21 23q15 0 25 -23q6 -14 11 -28q15 -1 39 9q4 1 7.5 -11t1.5 -17q-3 -7 -19 -11q-20 -5 -27 -11q0 -7 5 -15q9 4 27 4q27 -12 43 -69q11 -39 50 -146q5 -11 -4 -42q9 -12 41.5 -22.5t59.5 -6.5q8 46 10 106q6 134 5 165q4 7 14.5 16t16.5 9
q3 0 7.5 -3t8.5 -3q5 0 15 5q-2 6 -22 15t-20 24q0 22 27 22q21 0 52.5 -17.5t31.5 -33.5q0 -11 -12 -22q18 -16 18 -30zM413 416q0 10 -10.5 19t-22.5 9h-17q5 -4 5 -23q0 -12 -3 -36.5t-3 -28.5v-109h30q21 136 21 169zM120 -118q-11 43 -10 65q-5 7 -10 7q-25 0 -25 -23
q0 -10 25 -49h20zM196 681q0 -2 -4 -11.5t-4 -14.5q0 -2 2 -12t1 -14q-15 -12 -19 -12q-3 0 -12.5 2.5t-11.5 2.5q-3 0 -19.5 -2.5t-18.5 -2.5q-30 0 -30 26q0 2 3.5 13.5t4.5 15.5q1 14 -4 38q21 15 42 15q3 0 10.5 -2t10.5 -2q2 0 8.5 2t8.5 2q12 0 18 -11q14 -26 14 -33z
M160 654v21q0 9 -24 9q-22 0 -22 -15q4 -22 12 -22q-1 0 34 7zM292 655q0 2 4 11.5t4 14.5q0 2 -2 12t-1 14q15 12 19 12q3 0 12.5 -2.5t11.5 -2.5q3 0 19.5 2.5t18.5 2.5q30 0 30 -26q0 -2 -3.5 -13.5t-4.5 -16.5q-1 -13 4 -37q-21 -15 -42 -15q-3 0 -10.5 2t-10.5 2
q-2 0 -8.5 -2t-8.5 -2q-12 0 -18 11q-14 26 -14 33zM328 682v-21q0 -9 24 -9q22 0 22 15q-4 21 -12 21q1 0 -34 -6z" />
    <glyph glyph-name="endash" unicode="&#x2013;" horiz-adv-x="633" 
d="M630 358l-4 -4q3 -5 3 -13l-3 -15q-18 -5 -72 -5q-29 0 -98.5 2t-102.5 2q-84 0 -109 -9q5 -11 5 -19q0 -39 -83 -39q-8 0 -27.5 3.5t-32.5 1.5l-25 12l-44 -10q-11 -2 -25 26q0 33 14 40q6 3 39 3q27 0 27 13q0 7 -4 21.5t-4 21.5q13 14 39 15q39 1 43 2q7 7 25 15
q22 4 88 4q61 0 177.5 -3.5t131.5 -3.5q42 0 42 -61zM184 300q-13 69 -40 69q-19 0 -19 -36q0 -15 12 -26.5t27 -11.5z" />
    <glyph glyph-name="emdash" unicode="&#x2014;" horiz-adv-x="919" 
d="M897 358l-4 -4q3 -5 3 -13l-3 -15q-18 -5 -111 -5q-49 0 -176 2t-187 2q-150 0 -175 -9q5 -11 5 -19q0 -39 -83 -39q-8 0 -27.5 3.5t-32.5 1.5l-25 12l-44 -10q-11 -2 -25 26q0 33 14 40q6 3 39 3q27 0 27 13q0 7 -4 21.5t-4 21.5q13 14 39 15q39 1 43 2q7 7 25 15
q22 4 137 4q109 0 315.5 -3.5t211.5 -3.5q42 0 42 -61zM184 300q-13 69 -40 69q-19 0 -19 -36q0 -15 12 -26.5t27 -11.5z" />
    <glyph glyph-name="afii00208" unicode="&#x2015;" horiz-adv-x="919" 
d="M897 358l-4 -4q3 -5 3 -13l-3 -15q-18 -5 -111 -5q-49 0 -176 2t-187 2q-150 0 -175 -9q5 -11 5 -19q0 -39 -83 -39q-8 0 -27.5 3.5t-32.5 1.5l-25 12l-44 -10q-11 -2 -25 26q0 33 14 40q6 3 39 3q27 0 27 13q0 7 -4 21.5t-4 21.5q13 14 39 15q39 1 43 2q7 7 25 15
q22 4 137 4q109 0 315.5 -3.5t211.5 -3.5q42 0 42 -61zM184 300q-13 69 -40 69q-19 0 -19 -36q0 -15 12 -26.5t27 -11.5z" />
    <glyph glyph-name="quoteleft" unicode="&#x2018;" horiz-adv-x="161" 
d="M28 542q0 2 4 11t4 15q0 7 -2.5 18.5t-2.5 16.5q0 10 5 20q2 4 17 10q8 32 17 65q16 57 26 57q3 0 9 2t8 2q8 0 9 -10q5 -24 -12 -73q-8 -24 -17 -48q6 -5 22 -7.5t24 -11.5q0 -2 1.5 -30.5t1.5 -32.5q0 -3 -2 -5.5t-2 -3.5q6 -11 4 -22q-2 -6 -8.5 -10t-12.5 -4
q-3 0 -10.5 4t-10.5 4q-12 3 -39 3q-2 0 -7 -2t-8 -2q-18 0 -18 34zM79 559q6 -24 17 -24q3 0 4.5 2t2.5 18q2 12 3 24q0 13 -10 14t-14.5 -10.5t-2.5 -23.5z" />
    <glyph glyph-name="quoteright" unicode="&#x2019;" horiz-adv-x="161" 
d="M142 718q0 -1 -4 -10.5t-4 -15.5q1 -7 3.5 -18t2.5 -17q0 -10 -6 -20q-2 -4 -17 -9l-16 -66q-17 -57 -27 -57q-2 0 -8 -2t-9 -2q-7 0 -9 10q-4 25 12 73q9 24 18 49q-6 4 -22.5 6.5t-24.5 11.5q0 2 -1.5 30.5t-1.5 32.5q0 3 2 6t2 4q-6 10 -3 21q1 6 9 11q5 3 12 3
q2 0 9.5 -3.5t11.5 -4.5q12 -3 38 -3q3 0 7.5 2.5t7.5 2.5q18 0 18 -35zM91 701q-6 24 -17 24q-2 0 -4 -2t-3 -16t-2 -26q-1 -13 9 -14t15 10.5t2 23.5z" />
    <glyph glyph-name="quotedblleft" unicode="&#x201c;" horiz-adv-x="311" 
d="M176 544q0 2 4 11.5t3 14.5q0 7 -2.5 18.5t-2.5 17.5q0 10 5 20q3 4 17 9q9 33 17 65q16 58 27 58q2 0 8 2t9 2q7 0 9 -10q4 -25 -12 -74l-18 -48q6 -4 22.5 -7t24.5 -12q-1 -2 1 -30t2 -32q0 -3 -2.5 -6t-1.5 -4q5 -10 3 -21q-2 -7 -8 -11t-13 -4q-3 0 -10 4t-11 5
q-12 3 -38 3q-3 0 -7.5 -2.5t-7.5 -2.5q-18 0 -18 34zM227 562q5 -24 17 -24q2 0 4 2t3 17l2 24q0 14 -9 15q-11 1 -15.5 -10.5t-1.5 -23.5zM28 542q0 2 4 11t4 15q0 7 -2.5 18.5t-2.5 16.5q0 10 5 20q2 4 17 10q8 32 17 65q16 57 26 57q3 0 9 2t8 2q8 0 9 -10
q5 -24 -12 -73q-8 -24 -17 -48q6 -5 22 -7.5t24 -11.5q0 -2 1.5 -30.5t1.5 -32.5q0 -3 -2 -5.5t-2 -3.5q6 -11 4 -22q-2 -6 -8.5 -10t-12.5 -4q-3 0 -10.5 4t-10.5 4q-12 3 -39 3q-2 0 -7 -2t-8 -2q-18 0 -18 34zM79 559q6 -24 17 -24q3 0 4.5 2t2.5 18q2 12 3 24
q0 13 -10 14t-14.5 -10.5t-2.5 -23.5z" />
    <glyph glyph-name="quotedblright" unicode="&#x201d;" horiz-adv-x="311" 
d="M142 718q0 -1 -4 -10.5t-4 -15.5q1 -7 3.5 -18t2.5 -17q0 -10 -6 -20q-2 -4 -17 -9l-16 -66q-17 -57 -27 -57q-2 0 -8 -2t-9 -2q-7 0 -9 10q-4 25 12 73q9 24 18 49q-6 4 -22.5 6.5t-24.5 11.5q0 2 -1.5 30.5t-1.5 32.5q0 3 2 6t2 4q-6 10 -3 21q1 6 9 11q5 3 12 3
q2 0 9.5 -3.5t11.5 -4.5q12 -3 38 -3q3 0 7.5 2.5t7.5 2.5q18 0 18 -35zM91 701q-6 24 -17 24q-2 0 -4 -2t-3 -16t-2 -26q-1 -13 9 -14t15 10.5t2 23.5zM289 720q0 -1 -4 -10.5t-4 -15.5q1 -7 3.5 -18t2.5 -17q0 -10 -6 -20q-2 -4 -17 -9l-16 -66q-17 -57 -27 -57
q-2 0 -8 -2t-9 -2q-7 0 -9 10q-4 25 12 73q9 24 18 49q-6 4 -22.5 6.5t-24.5 11.5q0 2 -1.5 30.5t-1.5 32.5q0 3 2 6t2 4q-6 10 -3 21q1 6 9 11q5 3 12 3q2 0 9.5 -3.5t11.5 -4.5q12 -3 38 -3q3 0 7.5 2.5t7.5 2.5q18 0 18 -35zM238 703q-6 24 -17 24q-2 0 -4 -2t-3 -16
t-2 -26q-1 -13 9 -14t15 10.5t2 23.5z" />
    <glyph glyph-name="ellipsis" unicode="&#x2026;" horiz-adv-x="478" 
d="M308 82q0 -2 -4.5 -11.5t-4.5 -14.5q0 -2 2.5 -12t1.5 -14q-15 -12 -20 -12q-3 0 -12 2.5t-12 2.5q-2 0 -18.5 -2.5t-18.5 -2.5q-31 0 -31 26q0 2 4 13.5t4 15.5q2 14 -3 38q21 15 42 15q3 0 10.5 -2t9.5 -2q3 0 9 2t9 2q12 0 18 -11q14 -26 14 -33zM271 55v21q0 9 -23 9
q-22 0 -22 -15q4 -21 12 -21q-1 0 33 6zM153 79q0 -2 -4.5 -11.5t-4.5 -14.5q0 -2 2.5 -12t1.5 -14q-15 -12 -20 -12q-3 0 -12 2.5t-12 2.5q-2 0 -18.5 -2.5t-18.5 -2.5q-31 0 -31 26q0 2 4 13.5t4 15.5q2 14 -3 38q21 15 42 15q3 0 10.5 -2t9.5 -2q3 0 9 2t9 2q12 0 18 -11
q14 -26 14 -33zM116 52v21q0 9 -23 9q-22 0 -22 -15q4 -21 12 -21q-1 0 33 6zM458 74q0 -2 -4.5 -11.5t-4.5 -14.5q0 -2 2.5 -12t1.5 -14q-15 -12 -20 -12q-3 0 -12 2.5t-12 2.5q-2 0 -18.5 -2.5t-18.5 -2.5q-31 0 -31 26q0 2 4 13.5t4 15.5q2 14 -3 38q21 15 42 15
q3 0 10.5 -2t9.5 -2q3 0 9 2t9 2q12 0 18 -11q14 -26 14 -33zM421 47v21q0 9 -23 9q-22 0 -22 -15q4 -21 12 -21q-1 0 33 6z" />
    </font>
</defs>
</svg>
